<?xml version="1.0" encoding="utf-8" standalone="no"?>
<!DOCTYPE svg PUBLIC "-//W3C//DTD SVG 1.1//EN"
  "http://www.w3.org/Graphics/SVG/1.1/DTD/svg11.dtd">
<svg xmlns:xlink="http://www.w3.org/1999/xlink" width="864pt" height="360pt" viewBox="0 0 864 360" xmlns="http://www.w3.org/2000/svg" version="1.1">
 <metadata>
  <rdf:RDF xmlns:dc="http://purl.org/dc/elements/1.1/" xmlns:cc="http://creativecommons.org/ns#" xmlns:rdf="http://www.w3.org/1999/02/22-rdf-syntax-ns#">
   <cc:Work>
    <dc:type rdf:resource="http://purl.org/dc/dcmitype/StillImage"/>
    <dc:date>2024-02-06T08:10:54.818833</dc:date>
    <dc:format>image/svg+xml</dc:format>
    <dc:creator>
     <cc:Agent>
      <dc:title>Matplotlib v3.8.2, https://matplotlib.org/</dc:title>
     </cc:Agent>
    </dc:creator>
   </cc:Work>
  </rdf:RDF>
 </metadata>
 <defs>
  <style type="text/css">*{stroke-linejoin: round; stroke-linecap: butt}</style>
 </defs>
 <g id="figure_1">
  <g id="patch_1">
   <path d="M 0 360 
L 864 360 
L 864 0 
L 0 0 
L 0 360 
z
" style="fill: none; opacity: 0"/>
  </g>
  <g id="axes_1">
   <g id="patch_2">
    <path d="M 108 320.4 
L 777.6 320.4 
L 777.6 43.2 
L 108 43.2 
L 108 320.4 
z
" style="fill: none; opacity: 0"/>
   </g>
   <g id="matplotlib.axis_1">
    <g id="xtick_1">
     <g id="line2d_1">
      <path d="M 123.333098 320.4 
L 123.333098 43.2 
" clip-path="url(#p896832e7cb)" style="fill: none; stroke-dasharray: 5.12,1.28,0.8,1.28; stroke-dashoffset: 0; stroke: #b0b0b0; stroke-width: 0.8"/>
     </g>
     <g id="line2d_2">
      <defs>
       <path id="m8b6f5c4b8f" d="M 0 0 
L 0 3.5 
" style="stroke: #a9a9a9; stroke-width: 0.8"/>
      </defs>
      <g>
       <use xlink:href="#m8b6f5c4b8f" x="123.333098" y="320.4" style="fill: #a9a9a9; stroke: #a9a9a9; stroke-width: 0.8"/>
      </g>
     </g>
     <g id="text_1">
      <!-- 2021-07 -->
      <g style="fill: #a9a9a9" transform="translate(102.441692 334.998438) scale(0.1 -0.1)">
       <defs>
        <path id="DejaVuSans-32" d="M 1228 531 
L 3431 531 
L 3431 0 
L 469 0 
L 469 531 
Q 828 903 1448 1529 
Q 2069 2156 2228 2338 
Q 2531 2678 2651 2914 
Q 2772 3150 2772 3378 
Q 2772 3750 2511 3984 
Q 2250 4219 1831 4219 
Q 1534 4219 1204 4116 
Q 875 4013 500 3803 
L 500 4441 
Q 881 4594 1212 4672 
Q 1544 4750 1819 4750 
Q 2544 4750 2975 4387 
Q 3406 4025 3406 3419 
Q 3406 3131 3298 2873 
Q 3191 2616 2906 2266 
Q 2828 2175 2409 1742 
Q 1991 1309 1228 531 
z
" transform="scale(0.015625)"/>
        <path id="DejaVuSans-30" d="M 2034 4250 
Q 1547 4250 1301 3770 
Q 1056 3291 1056 2328 
Q 1056 1369 1301 889 
Q 1547 409 2034 409 
Q 2525 409 2770 889 
Q 3016 1369 3016 2328 
Q 3016 3291 2770 3770 
Q 2525 4250 2034 4250 
z
M 2034 4750 
Q 2819 4750 3233 4129 
Q 3647 3509 3647 2328 
Q 3647 1150 3233 529 
Q 2819 -91 2034 -91 
Q 1250 -91 836 529 
Q 422 1150 422 2328 
Q 422 3509 836 4129 
Q 1250 4750 2034 4750 
z
" transform="scale(0.015625)"/>
        <path id="DejaVuSans-31" d="M 794 531 
L 1825 531 
L 1825 4091 
L 703 3866 
L 703 4441 
L 1819 4666 
L 2450 4666 
L 2450 531 
L 3481 531 
L 3481 0 
L 794 0 
L 794 531 
z
" transform="scale(0.015625)"/>
        <path id="DejaVuSans-2d" d="M 313 2009 
L 1997 2009 
L 1997 1497 
L 313 1497 
L 313 2009 
z
" transform="scale(0.015625)"/>
        <path id="DejaVuSans-37" d="M 525 4666 
L 3525 4666 
L 3525 4397 
L 1831 0 
L 1172 0 
L 2766 4134 
L 525 4134 
L 525 4666 
z
" transform="scale(0.015625)"/>
       </defs>
       <use xlink:href="#DejaVuSans-32"/>
       <use xlink:href="#DejaVuSans-30" x="63.623047"/>
       <use xlink:href="#DejaVuSans-32" x="127.246094"/>
       <use xlink:href="#DejaVuSans-31" x="190.869141"/>
       <use xlink:href="#DejaVuSans-2d" x="254.492188"/>
       <use xlink:href="#DejaVuSans-30" x="290.576172"/>
       <use xlink:href="#DejaVuSans-37" x="354.199219"/>
      </g>
     </g>
    </g>
    <g id="xtick_2">
     <g id="line2d_3">
      <path d="M 183.746161 320.4 
L 183.746161 43.2 
" clip-path="url(#p896832e7cb)" style="fill: none; stroke-dasharray: 5.12,1.28,0.8,1.28; stroke-dashoffset: 0; stroke: #b0b0b0; stroke-width: 0.8"/>
     </g>
     <g id="line2d_4">
      <g>
       <use xlink:href="#m8b6f5c4b8f" x="183.746161" y="320.4" style="fill: #a9a9a9; stroke: #a9a9a9; stroke-width: 0.8"/>
      </g>
     </g>
     <g id="text_2">
      <!-- 2021-10 -->
      <g style="fill: #a9a9a9" transform="translate(162.854754 334.998438) scale(0.1 -0.1)">
       <use xlink:href="#DejaVuSans-32"/>
       <use xlink:href="#DejaVuSans-30" x="63.623047"/>
       <use xlink:href="#DejaVuSans-32" x="127.246094"/>
       <use xlink:href="#DejaVuSans-31" x="190.869141"/>
       <use xlink:href="#DejaVuSans-2d" x="254.492188"/>
       <use xlink:href="#DejaVuSans-31" x="290.576172"/>
       <use xlink:href="#DejaVuSans-30" x="354.199219"/>
      </g>
     </g>
    </g>
    <g id="xtick_3">
     <g id="line2d_5">
      <path d="M 244.159223 320.4 
L 244.159223 43.2 
" clip-path="url(#p896832e7cb)" style="fill: none; stroke-dasharray: 5.12,1.28,0.8,1.28; stroke-dashoffset: 0; stroke: #b0b0b0; stroke-width: 0.8"/>
     </g>
     <g id="line2d_6">
      <g>
       <use xlink:href="#m8b6f5c4b8f" x="244.159223" y="320.4" style="fill: #a9a9a9; stroke: #a9a9a9; stroke-width: 0.8"/>
      </g>
     </g>
     <g id="text_3">
      <!-- 2022-01 -->
      <g style="fill: #a9a9a9" transform="translate(223.267817 334.998438) scale(0.1 -0.1)">
       <use xlink:href="#DejaVuSans-32"/>
       <use xlink:href="#DejaVuSans-30" x="63.623047"/>
       <use xlink:href="#DejaVuSans-32" x="127.246094"/>
       <use xlink:href="#DejaVuSans-32" x="190.869141"/>
       <use xlink:href="#DejaVuSans-2d" x="254.492188"/>
       <use xlink:href="#DejaVuSans-30" x="290.576172"/>
       <use xlink:href="#DejaVuSans-31" x="354.199219"/>
      </g>
     </g>
    </g>
    <g id="xtick_4">
     <g id="line2d_7">
      <path d="M 303.258959 320.4 
L 303.258959 43.2 
" clip-path="url(#p896832e7cb)" style="fill: none; stroke-dasharray: 5.12,1.28,0.8,1.28; stroke-dashoffset: 0; stroke: #b0b0b0; stroke-width: 0.8"/>
     </g>
     <g id="line2d_8">
      <g>
       <use xlink:href="#m8b6f5c4b8f" x="303.258959" y="320.4" style="fill: #a9a9a9; stroke: #a9a9a9; stroke-width: 0.8"/>
      </g>
     </g>
     <g id="text_4">
      <!-- 2022-04 -->
      <g style="fill: #a9a9a9" transform="translate(282.367552 334.998438) scale(0.1 -0.1)">
       <defs>
        <path id="DejaVuSans-34" d="M 2419 4116 
L 825 1625 
L 2419 1625 
L 2419 4116 
z
M 2253 4666 
L 3047 4666 
L 3047 1625 
L 3713 1625 
L 3713 1100 
L 3047 1100 
L 3047 0 
L 2419 0 
L 2419 1100 
L 313 1100 
L 313 1709 
L 2253 4666 
z
" transform="scale(0.015625)"/>
       </defs>
       <use xlink:href="#DejaVuSans-32"/>
       <use xlink:href="#DejaVuSans-30" x="63.623047"/>
       <use xlink:href="#DejaVuSans-32" x="127.246094"/>
       <use xlink:href="#DejaVuSans-32" x="190.869141"/>
       <use xlink:href="#DejaVuSans-2d" x="254.492188"/>
       <use xlink:href="#DejaVuSans-30" x="290.576172"/>
       <use xlink:href="#DejaVuSans-34" x="354.199219"/>
      </g>
     </g>
    </g>
    <g id="xtick_5">
     <g id="line2d_9">
      <path d="M 363.015357 320.4 
L 363.015357 43.2 
" clip-path="url(#p896832e7cb)" style="fill: none; stroke-dasharray: 5.12,1.28,0.8,1.28; stroke-dashoffset: 0; stroke: #b0b0b0; stroke-width: 0.8"/>
     </g>
     <g id="line2d_10">
      <g>
       <use xlink:href="#m8b6f5c4b8f" x="363.015357" y="320.4" style="fill: #a9a9a9; stroke: #a9a9a9; stroke-width: 0.8"/>
      </g>
     </g>
     <g id="text_5">
      <!-- 2022-07 -->
      <g style="fill: #a9a9a9" transform="translate(342.123951 334.998438) scale(0.1 -0.1)">
       <use xlink:href="#DejaVuSans-32"/>
       <use xlink:href="#DejaVuSans-30" x="63.623047"/>
       <use xlink:href="#DejaVuSans-32" x="127.246094"/>
       <use xlink:href="#DejaVuSans-32" x="190.869141"/>
       <use xlink:href="#DejaVuSans-2d" x="254.492188"/>
       <use xlink:href="#DejaVuSans-30" x="290.576172"/>
       <use xlink:href="#DejaVuSans-37" x="354.199219"/>
      </g>
     </g>
    </g>
    <g id="xtick_6">
     <g id="line2d_11">
      <path d="M 423.42842 320.4 
L 423.42842 43.2 
" clip-path="url(#p896832e7cb)" style="fill: none; stroke-dasharray: 5.12,1.28,0.8,1.28; stroke-dashoffset: 0; stroke: #b0b0b0; stroke-width: 0.8"/>
     </g>
     <g id="line2d_12">
      <g>
       <use xlink:href="#m8b6f5c4b8f" x="423.42842" y="320.4" style="fill: #a9a9a9; stroke: #a9a9a9; stroke-width: 0.8"/>
      </g>
     </g>
     <g id="text_6">
      <!-- 2022-10 -->
      <g style="fill: #a9a9a9" transform="translate(402.537014 334.998438) scale(0.1 -0.1)">
       <use xlink:href="#DejaVuSans-32"/>
       <use xlink:href="#DejaVuSans-30" x="63.623047"/>
       <use xlink:href="#DejaVuSans-32" x="127.246094"/>
       <use xlink:href="#DejaVuSans-32" x="190.869141"/>
       <use xlink:href="#DejaVuSans-2d" x="254.492188"/>
       <use xlink:href="#DejaVuSans-31" x="290.576172"/>
       <use xlink:href="#DejaVuSans-30" x="354.199219"/>
      </g>
     </g>
    </g>
    <g id="xtick_7">
     <g id="line2d_13">
      <path d="M 483.841483 320.4 
L 483.841483 43.2 
" clip-path="url(#p896832e7cb)" style="fill: none; stroke-dasharray: 5.12,1.28,0.8,1.28; stroke-dashoffset: 0; stroke: #b0b0b0; stroke-width: 0.8"/>
     </g>
     <g id="line2d_14">
      <g>
       <use xlink:href="#m8b6f5c4b8f" x="483.841483" y="320.4" style="fill: #a9a9a9; stroke: #a9a9a9; stroke-width: 0.8"/>
      </g>
     </g>
     <g id="text_7">
      <!-- 2023-01 -->
      <g style="fill: #a9a9a9" transform="translate(462.950077 334.998438) scale(0.1 -0.1)">
       <defs>
        <path id="DejaVuSans-33" d="M 2597 2516 
Q 3050 2419 3304 2112 
Q 3559 1806 3559 1356 
Q 3559 666 3084 287 
Q 2609 -91 1734 -91 
Q 1441 -91 1130 -33 
Q 819 25 488 141 
L 488 750 
Q 750 597 1062 519 
Q 1375 441 1716 441 
Q 2309 441 2620 675 
Q 2931 909 2931 1356 
Q 2931 1769 2642 2001 
Q 2353 2234 1838 2234 
L 1294 2234 
L 1294 2753 
L 1863 2753 
Q 2328 2753 2575 2939 
Q 2822 3125 2822 3475 
Q 2822 3834 2567 4026 
Q 2313 4219 1838 4219 
Q 1578 4219 1281 4162 
Q 984 4106 628 3988 
L 628 4550 
Q 988 4650 1302 4700 
Q 1616 4750 1894 4750 
Q 2613 4750 3031 4423 
Q 3450 4097 3450 3541 
Q 3450 3153 3228 2886 
Q 3006 2619 2597 2516 
z
" transform="scale(0.015625)"/>
       </defs>
       <use xlink:href="#DejaVuSans-32"/>
       <use xlink:href="#DejaVuSans-30" x="63.623047"/>
       <use xlink:href="#DejaVuSans-32" x="127.246094"/>
       <use xlink:href="#DejaVuSans-33" x="190.869141"/>
       <use xlink:href="#DejaVuSans-2d" x="254.492188"/>
       <use xlink:href="#DejaVuSans-30" x="290.576172"/>
       <use xlink:href="#DejaVuSans-31" x="354.199219"/>
      </g>
     </g>
    </g>
    <g id="xtick_8">
     <g id="line2d_15">
      <path d="M 542.941218 320.4 
L 542.941218 43.2 
" clip-path="url(#p896832e7cb)" style="fill: none; stroke-dasharray: 5.12,1.28,0.8,1.28; stroke-dashoffset: 0; stroke: #b0b0b0; stroke-width: 0.8"/>
     </g>
     <g id="line2d_16">
      <g>
       <use xlink:href="#m8b6f5c4b8f" x="542.941218" y="320.4" style="fill: #a9a9a9; stroke: #a9a9a9; stroke-width: 0.8"/>
      </g>
     </g>
     <g id="text_8">
      <!-- 2023-04 -->
      <g style="fill: #a9a9a9" transform="translate(522.049812 334.998438) scale(0.1 -0.1)">
       <use xlink:href="#DejaVuSans-32"/>
       <use xlink:href="#DejaVuSans-30" x="63.623047"/>
       <use xlink:href="#DejaVuSans-32" x="127.246094"/>
       <use xlink:href="#DejaVuSans-33" x="190.869141"/>
       <use xlink:href="#DejaVuSans-2d" x="254.492188"/>
       <use xlink:href="#DejaVuSans-30" x="290.576172"/>
       <use xlink:href="#DejaVuSans-34" x="354.199219"/>
      </g>
     </g>
    </g>
    <g id="xtick_9">
     <g id="line2d_17">
      <path d="M 602.697617 320.4 
L 602.697617 43.2 
" clip-path="url(#p896832e7cb)" style="fill: none; stroke-dasharray: 5.12,1.28,0.8,1.28; stroke-dashoffset: 0; stroke: #b0b0b0; stroke-width: 0.8"/>
     </g>
     <g id="line2d_18">
      <g>
       <use xlink:href="#m8b6f5c4b8f" x="602.697617" y="320.4" style="fill: #a9a9a9; stroke: #a9a9a9; stroke-width: 0.8"/>
      </g>
     </g>
     <g id="text_9">
      <!-- 2023-07 -->
      <g style="fill: #a9a9a9" transform="translate(581.806211 334.998438) scale(0.1 -0.1)">
       <use xlink:href="#DejaVuSans-32"/>
       <use xlink:href="#DejaVuSans-30" x="63.623047"/>
       <use xlink:href="#DejaVuSans-32" x="127.246094"/>
       <use xlink:href="#DejaVuSans-33" x="190.869141"/>
       <use xlink:href="#DejaVuSans-2d" x="254.492188"/>
       <use xlink:href="#DejaVuSans-30" x="290.576172"/>
       <use xlink:href="#DejaVuSans-37" x="354.199219"/>
      </g>
     </g>
    </g>
    <g id="xtick_10">
     <g id="line2d_19">
      <path d="M 663.11068 320.4 
L 663.11068 43.2 
" clip-path="url(#p896832e7cb)" style="fill: none; stroke-dasharray: 5.12,1.28,0.8,1.28; stroke-dashoffset: 0; stroke: #b0b0b0; stroke-width: 0.8"/>
     </g>
     <g id="line2d_20">
      <g>
       <use xlink:href="#m8b6f5c4b8f" x="663.11068" y="320.4" style="fill: #a9a9a9; stroke: #a9a9a9; stroke-width: 0.8"/>
      </g>
     </g>
     <g id="text_10">
      <!-- 2023-10 -->
      <g style="fill: #a9a9a9" transform="translate(642.219273 334.998438) scale(0.1 -0.1)">
       <use xlink:href="#DejaVuSans-32"/>
       <use xlink:href="#DejaVuSans-30" x="63.623047"/>
       <use xlink:href="#DejaVuSans-32" x="127.246094"/>
       <use xlink:href="#DejaVuSans-33" x="190.869141"/>
       <use xlink:href="#DejaVuSans-2d" x="254.492188"/>
       <use xlink:href="#DejaVuSans-31" x="290.576172"/>
       <use xlink:href="#DejaVuSans-30" x="354.199219"/>
      </g>
     </g>
    </g>
    <g id="xtick_11">
     <g id="line2d_21">
      <path d="M 723.523742 320.4 
L 723.523742 43.2 
" clip-path="url(#p896832e7cb)" style="fill: none; stroke-dasharray: 5.12,1.28,0.8,1.28; stroke-dashoffset: 0; stroke: #b0b0b0; stroke-width: 0.8"/>
     </g>
     <g id="line2d_22">
      <g>
       <use xlink:href="#m8b6f5c4b8f" x="723.523742" y="320.4" style="fill: #a9a9a9; stroke: #a9a9a9; stroke-width: 0.8"/>
      </g>
     </g>
     <g id="text_11">
      <!-- 2024-01 -->
      <g style="fill: #a9a9a9" transform="translate(702.632336 334.998438) scale(0.1 -0.1)">
       <use xlink:href="#DejaVuSans-32"/>
       <use xlink:href="#DejaVuSans-30" x="63.623047"/>
       <use xlink:href="#DejaVuSans-32" x="127.246094"/>
       <use xlink:href="#DejaVuSans-34" x="190.869141"/>
       <use xlink:href="#DejaVuSans-2d" x="254.492188"/>
       <use xlink:href="#DejaVuSans-30" x="290.576172"/>
       <use xlink:href="#DejaVuSans-31" x="354.199219"/>
      </g>
     </g>
    </g>
   </g>
   <g id="matplotlib.axis_2">
    <g id="ytick_1">
     <g id="line2d_23">
      <path d="M 108 307.845202 
L 777.6 307.845202 
" clip-path="url(#p896832e7cb)" style="fill: none; stroke-dasharray: 5.12,1.28,0.8,1.28; stroke-dashoffset: 0; stroke: #b0b0b0; stroke-width: 0.8"/>
     </g>
     <g id="line2d_24">
      <defs>
       <path id="m06f0fe6035" d="M 0 0 
L -3.5 0 
" style="stroke: #a9a9a9; stroke-width: 0.8"/>
      </defs>
      <g>
       <use xlink:href="#m06f0fe6035" x="108" y="307.845202" style="fill: #a9a9a9; stroke: #a9a9a9; stroke-width: 0.8"/>
      </g>
     </g>
     <g id="text_12">
      <!-- 0 -->
      <g style="fill: #a9a9a9" transform="translate(94.6375 311.644421) scale(0.1 -0.1)">
       <use xlink:href="#DejaVuSans-30"/>
      </g>
     </g>
    </g>
    <g id="ytick_2">
     <g id="line2d_25">
      <path d="M 108 271.683767 
L 777.6 271.683767 
" clip-path="url(#p896832e7cb)" style="fill: none; stroke-dasharray: 5.12,1.28,0.8,1.28; stroke-dashoffset: 0; stroke: #b0b0b0; stroke-width: 0.8"/>
     </g>
     <g id="line2d_26">
      <g>
       <use xlink:href="#m06f0fe6035" x="108" y="271.683767" style="fill: #a9a9a9; stroke: #a9a9a9; stroke-width: 0.8"/>
      </g>
     </g>
     <g id="text_13">
      <!-- 800 -->
      <g style="fill: #a9a9a9" transform="translate(81.9125 275.482986) scale(0.1 -0.1)">
       <defs>
        <path id="DejaVuSans-38" d="M 2034 2216 
Q 1584 2216 1326 1975 
Q 1069 1734 1069 1313 
Q 1069 891 1326 650 
Q 1584 409 2034 409 
Q 2484 409 2743 651 
Q 3003 894 3003 1313 
Q 3003 1734 2745 1975 
Q 2488 2216 2034 2216 
z
M 1403 2484 
Q 997 2584 770 2862 
Q 544 3141 544 3541 
Q 544 4100 942 4425 
Q 1341 4750 2034 4750 
Q 2731 4750 3128 4425 
Q 3525 4100 3525 3541 
Q 3525 3141 3298 2862 
Q 3072 2584 2669 2484 
Q 3125 2378 3379 2068 
Q 3634 1759 3634 1313 
Q 3634 634 3220 271 
Q 2806 -91 2034 -91 
Q 1263 -91 848 271 
Q 434 634 434 1313 
Q 434 1759 690 2068 
Q 947 2378 1403 2484 
z
M 1172 3481 
Q 1172 3119 1398 2916 
Q 1625 2713 2034 2713 
Q 2441 2713 2670 2916 
Q 2900 3119 2900 3481 
Q 2900 3844 2670 4047 
Q 2441 4250 2034 4250 
Q 1625 4250 1398 4047 
Q 1172 3844 1172 3481 
z
" transform="scale(0.015625)"/>
       </defs>
       <use xlink:href="#DejaVuSans-38"/>
       <use xlink:href="#DejaVuSans-30" x="63.623047"/>
       <use xlink:href="#DejaVuSans-30" x="127.246094"/>
      </g>
     </g>
    </g>
    <g id="ytick_3">
     <g id="line2d_27">
      <path d="M 108 235.522332 
L 777.6 235.522332 
" clip-path="url(#p896832e7cb)" style="fill: none; stroke-dasharray: 5.12,1.28,0.8,1.28; stroke-dashoffset: 0; stroke: #b0b0b0; stroke-width: 0.8"/>
     </g>
     <g id="line2d_28">
      <g>
       <use xlink:href="#m06f0fe6035" x="108" y="235.522332" style="fill: #a9a9a9; stroke: #a9a9a9; stroke-width: 0.8"/>
      </g>
     </g>
     <g id="text_14">
      <!-- 1600 -->
      <g style="fill: #a9a9a9" transform="translate(75.55 239.321551) scale(0.1 -0.1)">
       <defs>
        <path id="DejaVuSans-36" d="M 2113 2584 
Q 1688 2584 1439 2293 
Q 1191 2003 1191 1497 
Q 1191 994 1439 701 
Q 1688 409 2113 409 
Q 2538 409 2786 701 
Q 3034 994 3034 1497 
Q 3034 2003 2786 2293 
Q 2538 2584 2113 2584 
z
M 3366 4563 
L 3366 3988 
Q 3128 4100 2886 4159 
Q 2644 4219 2406 4219 
Q 1781 4219 1451 3797 
Q 1122 3375 1075 2522 
Q 1259 2794 1537 2939 
Q 1816 3084 2150 3084 
Q 2853 3084 3261 2657 
Q 3669 2231 3669 1497 
Q 3669 778 3244 343 
Q 2819 -91 2113 -91 
Q 1303 -91 875 529 
Q 447 1150 447 2328 
Q 447 3434 972 4092 
Q 1497 4750 2381 4750 
Q 2619 4750 2861 4703 
Q 3103 4656 3366 4563 
z
" transform="scale(0.015625)"/>
       </defs>
       <use xlink:href="#DejaVuSans-31"/>
       <use xlink:href="#DejaVuSans-36" x="63.623047"/>
       <use xlink:href="#DejaVuSans-30" x="127.246094"/>
       <use xlink:href="#DejaVuSans-30" x="190.869141"/>
      </g>
     </g>
    </g>
    <g id="ytick_4">
     <g id="line2d_29">
      <path d="M 108 199.360897 
L 777.6 199.360897 
" clip-path="url(#p896832e7cb)" style="fill: none; stroke-dasharray: 5.12,1.28,0.8,1.28; stroke-dashoffset: 0; stroke: #b0b0b0; stroke-width: 0.8"/>
     </g>
     <g id="line2d_30">
      <g>
       <use xlink:href="#m06f0fe6035" x="108" y="199.360897" style="fill: #a9a9a9; stroke: #a9a9a9; stroke-width: 0.8"/>
      </g>
     </g>
     <g id="text_15">
      <!-- 2400 -->
      <g style="fill: #a9a9a9" transform="translate(75.55 203.160116) scale(0.1 -0.1)">
       <use xlink:href="#DejaVuSans-32"/>
       <use xlink:href="#DejaVuSans-34" x="63.623047"/>
       <use xlink:href="#DejaVuSans-30" x="127.246094"/>
       <use xlink:href="#DejaVuSans-30" x="190.869141"/>
      </g>
     </g>
    </g>
    <g id="ytick_5">
     <g id="line2d_31">
      <path d="M 108 163.199462 
L 777.6 163.199462 
" clip-path="url(#p896832e7cb)" style="fill: none; stroke-dasharray: 5.12,1.28,0.8,1.28; stroke-dashoffset: 0; stroke: #b0b0b0; stroke-width: 0.8"/>
     </g>
     <g id="line2d_32">
      <g>
       <use xlink:href="#m06f0fe6035" x="108" y="163.199462" style="fill: #a9a9a9; stroke: #a9a9a9; stroke-width: 0.8"/>
      </g>
     </g>
     <g id="text_16">
      <!-- 3200 -->
      <g style="fill: #a9a9a9" transform="translate(75.55 166.998681) scale(0.1 -0.1)">
       <use xlink:href="#DejaVuSans-33"/>
       <use xlink:href="#DejaVuSans-32" x="63.623047"/>
       <use xlink:href="#DejaVuSans-30" x="127.246094"/>
       <use xlink:href="#DejaVuSans-30" x="190.869141"/>
      </g>
     </g>
    </g>
    <g id="ytick_6">
     <g id="line2d_33">
      <path d="M 108 127.038027 
L 777.6 127.038027 
" clip-path="url(#p896832e7cb)" style="fill: none; stroke-dasharray: 5.12,1.28,0.8,1.28; stroke-dashoffset: 0; stroke: #b0b0b0; stroke-width: 0.8"/>
     </g>
     <g id="line2d_34">
      <g>
       <use xlink:href="#m06f0fe6035" x="108" y="127.038027" style="fill: #a9a9a9; stroke: #a9a9a9; stroke-width: 0.8"/>
      </g>
     </g>
     <g id="text_17">
      <!-- 4000 -->
      <g style="fill: #a9a9a9" transform="translate(75.55 130.837246) scale(0.1 -0.1)">
       <use xlink:href="#DejaVuSans-34"/>
       <use xlink:href="#DejaVuSans-30" x="63.623047"/>
       <use xlink:href="#DejaVuSans-30" x="127.246094"/>
       <use xlink:href="#DejaVuSans-30" x="190.869141"/>
      </g>
     </g>
    </g>
    <g id="ytick_7">
     <g id="line2d_35">
      <path d="M 108 90.876592 
L 777.6 90.876592 
" clip-path="url(#p896832e7cb)" style="fill: none; stroke-dasharray: 5.12,1.28,0.8,1.28; stroke-dashoffset: 0; stroke: #b0b0b0; stroke-width: 0.8"/>
     </g>
     <g id="line2d_36">
      <g>
       <use xlink:href="#m06f0fe6035" x="108" y="90.876592" style="fill: #a9a9a9; stroke: #a9a9a9; stroke-width: 0.8"/>
      </g>
     </g>
     <g id="text_18">
      <!-- 4800 -->
      <g style="fill: #a9a9a9" transform="translate(75.55 94.675811) scale(0.1 -0.1)">
       <use xlink:href="#DejaVuSans-34"/>
       <use xlink:href="#DejaVuSans-38" x="63.623047"/>
       <use xlink:href="#DejaVuSans-30" x="127.246094"/>
       <use xlink:href="#DejaVuSans-30" x="190.869141"/>
      </g>
     </g>
    </g>
    <g id="ytick_8">
     <g id="line2d_37">
      <path d="M 108 54.715157 
L 777.6 54.715157 
" clip-path="url(#p896832e7cb)" style="fill: none; stroke-dasharray: 5.12,1.28,0.8,1.28; stroke-dashoffset: 0; stroke: #b0b0b0; stroke-width: 0.8"/>
     </g>
     <g id="line2d_38">
      <g>
       <use xlink:href="#m06f0fe6035" x="108" y="54.715157" style="fill: #a9a9a9; stroke: #a9a9a9; stroke-width: 0.8"/>
      </g>
     </g>
     <g id="text_19">
      <!-- 5600 -->
      <g style="fill: #a9a9a9" transform="translate(75.55 58.514376) scale(0.1 -0.1)">
       <defs>
        <path id="DejaVuSans-35" d="M 691 4666 
L 3169 4666 
L 3169 4134 
L 1269 4134 
L 1269 2991 
Q 1406 3038 1543 3061 
Q 1681 3084 1819 3084 
Q 2600 3084 3056 2656 
Q 3513 2228 3513 1497 
Q 3513 744 3044 326 
Q 2575 -91 1722 -91 
Q 1428 -91 1123 -41 
Q 819 9 494 109 
L 494 744 
Q 775 591 1075 516 
Q 1375 441 1709 441 
Q 2250 441 2565 725 
Q 2881 1009 2881 1497 
Q 2881 1984 2565 2268 
Q 2250 2553 1709 2553 
Q 1456 2553 1204 2497 
Q 953 2441 691 2322 
L 691 4666 
z
" transform="scale(0.015625)"/>
       </defs>
       <use xlink:href="#DejaVuSans-35"/>
       <use xlink:href="#DejaVuSans-36" x="63.623047"/>
       <use xlink:href="#DejaVuSans-30" x="127.246094"/>
       <use xlink:href="#DejaVuSans-30" x="190.869141"/>
      </g>
     </g>
    </g>
   </g>
   <g id="line2d_39">
    <path d="M 138.436364 307.709596 
L 142.376346 307.393184 
L 143.03301 307.121973 
L 145.003001 306.895964 
L 149.599647 306.03713 
L 152.882966 305.720717 
L 153.539629 305.404305 
L 154.196293 305.223498 
L 154.852957 304.409865 
L 155.50962 303.957848 
L 156.166284 302.556592 
L 156.822948 302.466188 
L 157.479612 301.968969 
L 158.792939 301.336143 
L 161.419594 299.347265 
L 162.732921 298.804843 
L 163.389585 298.352825 
L 166.01624 297.22278 
L 166.672904 296.183139 
L 167.986231 295.233901 
L 168.642895 294.917489 
L 175.209532 294.013453 
L 175.866196 293.69704 
L 180.462842 293.335426 
L 182.432833 292.838206 
L 188.342807 292.069776 
L 188.99947 291.708161 
L 189.656134 291.617758 
L 190.312798 291.346547 
L 191.626125 291.120538 
L 192.282789 291.075336 
L 192.939453 290.849327 
L 195.566108 290.442511 
L 196.879435 290.080897 
L 198.849426 289.90009 
L 200.162754 289.764484 
L 200.819417 289.583677 
L 201.476081 289.538475 
L 203.446072 288.950852 
L 207.386055 288.363229 
L 208.042718 288.182422 
L 208.699382 287.278386 
L 210.669373 286.555157 
L 212.639365 286.012735 
L 213.296028 285.696323 
L 213.952692 285.651121 
L 217.236011 284.747085 
L 218.549338 284.656682 
L 219.206002 284.566278 
L 221.175993 283.978655 
L 223.802648 283.34583 
L 224.459312 283.074619 
L 225.115975 282.984215 
L 225.772639 282.667803 
L 232.339276 281.673363 
L 235.622595 280.769327 
L 236.279259 280.362511 
L 238.905914 279.684484 
L 240.219241 278.916054 
L 240.875905 278.464036 
L 242.845896 278.102422 
L 246.785878 276.927175 
L 248.099206 276.520359 
L 248.755869 276.429955 
L 250.069197 276.068341 
L 251.382524 275.751928 
L 252.039188 275.661525 
L 253.352515 275.119103 
L 254.009179 274.983498 
L 254.665843 274.712287 
L 255.322507 274.621883 
L 255.97917 274.305471 
L 256.635834 274.124664 
L 257.949162 274.03426 
L 259.262489 273.582242 
L 260.575816 273.491839 
L 261.23248 273.175426 
L 263.859135 272.723408 
L 266.48579 272.497399 
L 267.142454 272.361794 
L 268.455781 271.728969 
L 275.679082 268.700448 
L 276.335746 268.338834 
L 276.99241 267.615605 
L 277.649073 266.530762 
L 278.305737 265.671928 
L 278.962401 265.491121 
L 279.619064 265.491121 
L 280.932392 264.541883 
L 281.589056 264.361076 
L 282.245719 263.999462 
L 282.902383 263.863857 
L 283.559047 263.276233 
L 284.215711 263.095426 
L 286.185702 262.146188 
L 286.842365 261.332556 
L 287.499029 260.338117 
L 288.155693 259.9313 
L 288.812357 258.846457 
L 289.46902 258.16843 
L 290.125684 257.852018 
L 290.782348 257.671211 
L 293.409003 256.13435 
L 294.72233 255.094709 
L 295.378994 254.687892 
L 296.035658 253.738655 
L 296.692321 252.246996 
L 297.348985 251.297758 
L 298.005649 250.800538 
L 298.662312 250.529327 
L 301.288967 248.269238 
L 301.945631 247.81722 
L 303.258959 246.687175 
L 303.915622 245.783139 
L 305.22895 244.653094 
L 307.855605 242.980628 
L 308.512268 242.393004 
L 309.168932 242.257399 
L 311.138923 241.217758 
L 313.108914 240.223318 
L 314.422242 239.00287 
L 315.078906 238.234439 
L 316.392233 237.330404 
L 317.048897 237.149596 
L 317.70556 236.833184 
L 319.018888 235.97435 
L 319.675552 235.612735 
L 320.332215 235.522332 
L 321.645543 234.799103 
L 322.302207 234.437489 
L 322.95887 233.759462 
L 323.615534 233.352646 
L 324.272198 233.126637 
L 324.928861 232.674619 
L 327.555516 231.318565 
L 328.21218 230.730942 
L 330.838835 229.872108 
L 331.495499 229.42009 
L 332.152162 229.284484 
L 333.46549 228.832466 
L 335.435481 228.064036 
L 337.405472 227.340807 
L 338.7188 227.114798 
L 340.032127 225.984753 
L 341.345455 225.351928 
L 343.315446 224.221883 
L 344.628773 223.860269 
L 345.285437 223.453453 
L 345.942101 223.272646 
L 347.255428 222.413812 
L 347.912092 222.052197 
L 351.19541 221.283767 
L 353.165402 220.153722 
L 353.822065 220.063318 
L 354.478729 219.837309 
L 355.792056 219.566099 
L 357.762048 218.119641 
L 359.732039 217.667623 
L 360.388703 217.441614 
L 361.045366 216.944395 
L 364.985349 215.678744 
L 365.642012 215.633543 
L 370.238658 214.006278 
L 370.895322 213.689865 
L 372.865313 213.237848 
L 374.178641 212.921435 
L 374.835305 212.605022 
L 375.491968 212.469417 
L 377.461959 211.565381 
L 379.431951 210.616143 
L 380.088614 210.164126 
L 380.745278 209.983318 
L 382.715269 208.943677 
L 384.028597 208.627265 
L 385.341924 207.949238 
L 386.655252 207.587623 
L 387.311915 207.49722 
L 387.968579 207.045202 
L 388.625243 206.728789 
L 389.281906 206.593184 
L 390.595234 206.050762 
L 391.251898 205.915157 
L 391.908561 205.553543 
L 394.535216 205.146726 
L 395.848544 204.513901 
L 396.505207 203.97148 
L 397.161871 202.841435 
L 398.475199 202.570224 
L 399.131862 202.434619 
L 401.758517 201.078565 
L 402.415181 200.94296 
L 407.668491 198.456861 
L 409.638482 198.050045 
L 410.295146 197.68843 
L 414.235128 196.332377 
L 415.548455 195.518744 
L 416.205119 195.066726 
L 416.861783 194.750314 
L 417.518447 194.65991 
L 418.17511 194.433901 
L 418.831774 194.3887 
L 422.115093 193.529865 
L 422.771756 193.032646 
L 424.085084 192.580628 
L 426.055075 191.947803 
L 426.711739 191.540987 
L 427.368402 191.360179 
L 428.025066 190.908161 
L 428.68173 190.636951 
L 429.338394 190.230135 
L 429.995057 189.958924 
L 431.308385 189.642511 
L 433.278376 188.874081 
L 435.248367 187.382422 
L 435.905031 187.246816 
L 437.218358 186.252377 
L 437.875022 186.116771 
L 438.531686 185.122332 
L 439.18835 184.851121 
L 439.845013 184.353901 
L 440.501677 184.263498 
L 441.158341 183.81148 
L 441.815004 183.495067 
L 442.471668 183.359462 
L 443.128332 183.088251 
L 443.784996 182.591031 
L 444.441659 182.365022 
L 446.41165 181.05417 
L 449.038305 179.743318 
L 449.694969 179.652915 
L 451.008297 179.065291 
L 451.66496 178.703677 
L 452.321624 177.618834 
L 452.978288 177.031211 
L 453.634951 176.669596 
L 454.291615 176.533991 
L 455.604943 175.720359 
L 456.261606 175.584753 
L 457.574934 174.951928 
L 459.544925 174.138296 
L 460.858252 173.23426 
L 462.17158 171.878206 
L 463.484907 171.064574 
L 464.141571 170.657758 
L 464.798235 169.979731 
L 465.454898 169.527713 
L 466.768226 168.44287 
L 467.42489 168.171659 
L 468.081553 167.44843 
L 468.738217 166.951211 
L 470.051545 166.499193 
L 470.708208 165.956771 
L 472.021536 165.278744 
L 472.678199 165.097937 
L 473.334863 164.645919 
L 473.991527 164.510314 
L 475.961518 163.470673 
L 476.618182 163.018655 
L 477.931509 162.476233 
L 478.588173 162.340628 
L 479.244837 161.933812 
L 482.528155 160.89417 
L 483.184819 160.713363 
L 483.841483 160.396951 
L 484.498147 159.809327 
L 486.468138 159.086099 
L 487.781465 158.679283 
L 488.438129 158.182063 
L 491.064784 156.826009 
L 491.721447 156.464395 
L 493.034775 153.887892 
L 494.348102 152.351031 
L 495.004766 151.899013 
L 496.974757 151.040179 
L 497.631421 150.81417 
L 498.288085 150.723767 
L 498.944748 150.362152 
L 500.91474 149.774529 
L 503.541395 148.599283 
L 504.198058 148.192466 
L 505.511386 147.740448 
L 509.451368 145.480359 
L 510.108032 144.802332 
L 511.421359 144.079103 
L 512.078023 143.717489 
L 512.734687 143.49148 
L 513.39135 143.039462 
L 514.704678 142.406637 
L 516.674669 141.366996 
L 517.331333 141.186188 
L 517.987996 140.688969 
L 518.64466 140.417758 
L 519.301324 140.282152 
L 520.614651 139.830135 
L 522.584643 139.106906 
L 523.241306 138.609686 
L 524.554634 138.248072 
L 525.867961 137.750852 
L 526.524625 137.20843 
L 527.837952 136.801614 
L 528.494616 136.485202 
L 529.15128 136.304395 
L 530.464607 135.400359 
L 531.777935 134.812735 
L 533.091262 133.818296 
L 534.40459 133.366278 
L 535.061253 132.823857 
L 535.717917 132.733453 
L 537.031244 131.784215 
L 538.344572 131.15139 
L 539.001236 130.880179 
L 539.657899 130.202152 
L 543.597882 128.800897 
L 545.567873 127.942063 
L 547.537864 127.354439 
L 548.851192 127.173632 
L 549.507855 126.902422 
L 550.164519 126.812018 
L 551.477846 126.269596 
L 552.13451 126.224395 
L 554.761165 125.275157 
L 556.731156 123.919103 
L 560.671139 121.975426 
L 561.984466 121.161794 
L 562.64113 120.754978 
L 563.954457 120.438565 
L 565.267785 119.534529 
L 567.89444 118.720897 
L 568.551103 118.449686 
L 569.864431 118.133274 
L 573.147749 117.04843 
L 575.117741 116.686816 
L 575.774404 116.506009 
L 576.431068 116.189596 
L 577.087732 116.099193 
L 578.401059 115.556771 
L 579.057723 115.466368 
L 579.714387 115.149955 
L 581.027714 114.878744 
L 581.684378 114.562332 
L 583.654369 114.110314 
L 584.967696 113.839103 
L 588.907679 113.115874 
L 590.221006 112.844664 
L 590.87767 112.709058 
L 591.534334 112.437848 
L 592.190997 112.392646 
L 594.160989 111.850224 
L 594.817652 111.48861 
L 598.100971 110.674978 
L 598.757635 110.539372 
L 600.070962 110.087354 
L 602.040953 109.409327 
L 602.697617 109.318924 
L 604.667608 108.640897 
L 605.324272 108.640897 
L 606.637599 108.188879 
L 607.294263 107.556054 
L 607.950927 107.239641 
L 609.264254 106.832825 
L 611.890909 105.838386 
L 612.547573 105.70278 
L 613.204237 105.295964 
L 613.8609 105.160359 
L 614.517564 104.753543 
L 617.800883 103.804305 
L 618.457546 103.397489 
L 619.11421 103.216682 
L 619.770874 102.67426 
L 621.740865 102.312646 
L 623.054192 101.589417 
L 623.710856 100.866188 
L 625.024184 100.594978 
L 629.62083 99.555336 
L 630.277493 99.374529 
L 631.590821 99.329327 
L 632.247485 99.012915 
L 634.874139 98.560897 
L 635.530803 98.244484 
L 637.500794 97.973274 
L 640.127449 97.159641 
L 642.09744 96.707623 
L 644.067432 96.210404 
L 646.694086 95.396771 
L 647.35075 95.261166 
L 648.007414 94.944753 
L 648.664078 94.85435 
L 649.320741 94.628341 
L 649.977405 94.221525 
L 651.947396 93.498296 
L 652.60406 93.001076 
L 653.917387 92.639462 
L 654.574051 92.368251 
L 655.887379 92.006637 
L 658.514034 90.83139 
L 660.484025 90.695785 
L 663.11068 89.882152 
L 663.767343 89.475336 
L 665.080671 89.06852 
L 667.050662 88.074081 
L 667.707326 87.938475 
L 668.363989 87.622063 
L 669.020653 87.531659 
L 676.243954 85.135964 
L 678.870609 84.503139 
L 679.527273 84.322332 
L 680.8406 83.689507 
L 681.497264 83.599103 
L 682.810591 83.237489 
L 683.467255 82.740269 
L 684.123919 82.423857 
L 684.780583 81.655426 
L 685.437246 81.158206 
L 686.750574 80.75139 
L 687.407237 80.208969 
L 694.630538 77.270852 
L 695.943866 76.954439 
L 697.257193 76.366816 
L 699.227184 75.19157 
L 699.883848 75.055964 
L 700.540512 74.558744 
L 701.853839 73.925919 
L 703.167167 73.112287 
L 705.137158 72.208251 
L 705.793822 71.756233 
L 707.107149 71.259013 
L 707.763813 70.806996 
L 709.07714 70.17417 
L 709.733804 69.722152 
L 711.047132 69.270135 
L 711.703795 69.134529 
L 714.33045 67.959283 
L 717.613769 66.829238 
L 718.270432 66.784036 
L 718.927096 66.603229 
L 719.58376 66.196413 
L 720.240424 66.106009 
L 720.897087 65.834798 
L 722.867079 65.427982 
L 726.150397 63.755516 
L 727.463725 63.032287 
L 728.120388 62.941883 
L 730.09038 61.85704 
L 732.060371 61.133812 
L 734.030362 60.274978 
L 736.657017 59.235336 
L 737.31368 59.054529 
L 737.970344 58.647713 
L 738.627008 58.602511 
L 739.283672 58.421704 
L 739.940335 57.969686 
L 740.596999 57.924484 
L 741.910327 57.517668 
L 743.223654 56.884843 
L 743.880318 56.794439 
L 744.536981 56.523229 
L 745.193645 56.387623 
L 746.506973 55.8 
L 747.163636 55.8 
L 747.163636 55.8 
" clip-path="url(#p896832e7cb)" style="fill: none; stroke: #1f77b4; stroke-width: 1.5; stroke-linecap: square"/>
   </g>
   <g id="line2d_40">
    <path d="M 139.093027 307.8 
L 141.063019 307.709596 
L 143.03301 307.664395 
L 146.972992 307.573991 
L 150.256311 307.438386 
L 152.882966 307.438386 
L 153.539629 307.257578 
L 156.166284 307.167175 
L 158.136275 306.941166 
L 160.106267 306.760359 
L 164.046249 306.579552 
L 164.702913 306.579552 
L 165.359576 306.443946 
L 167.986231 306.353543 
L 169.299559 306.263139 
L 174.552868 306.172735 
L 177.836187 306.03713 
L 185.716152 305.946726 
L 188.99947 305.811121 
L 192.939453 305.720717 
L 195.566108 305.630314 
L 201.476081 305.53991 
L 203.446072 305.494709 
L 205.416064 305.449507 
L 207.386055 305.223498 
L 211.326037 305.178296 
L 212.639365 305.087892 
L 217.236011 304.997489 
L 224.459312 304.590673 
L 229.055958 304.500269 
L 230.369285 304.409865 
L 232.339276 304.319462 
L 236.279259 304.138655 
L 238.905914 304.093453 
L 240.875905 303.912646 
L 251.382524 303.279821 
L 254.009179 303.189417 
L 258.605825 302.963408 
L 260.575816 302.873004 
L 267.142454 302.51139 
L 274.365755 302.420987 
L 276.99241 302.149776 
L 278.305737 302.059372 
L 286.842365 301.381345 
L 290.782348 300.884126 
L 293.409003 300.793722 
L 298.662312 300.115695 
L 301.945631 300.025291 
L 310.482259 299.347265 
L 314.422242 298.895247 
L 316.392233 298.850045 
L 317.70556 298.759641 
L 320.332215 298.669238 
L 321.645543 298.578834 
L 324.928861 298.262422 
L 325.585525 298.081614 
L 329.525508 297.900807 
L 332.808826 297.810404 
L 341.345455 297.313184 
L 343.315446 297.22278 
L 351.852074 296.725561 
L 356.44872 296.635157 
L 357.105384 296.499552 
L 362.358694 296.409148 
L 366.95534 296.183139 
L 374.178641 296.092735 
L 378.775287 295.866726 
L 384.028597 295.776323 
L 389.281906 295.505112 
L 393.878553 295.414709 
L 406.355163 294.646278 
L 411.608473 294.555874 
L 428.68173 293.471031 
L 432.621712 293.380628 
L 434.591703 293.335426 
L 436.561695 293.290224 
L 438.531686 293.109417 
L 443.784996 293.019013 
L 445.098323 292.793004 
L 446.41165 292.702601 
L 449.694969 292.566996 
L 451.008297 292.476592 
L 452.321624 292.386188 
L 458.231598 292.295785 
L 459.544925 292.160179 
L 462.17158 292.114978 
L 462.828244 291.979372 
L 464.141571 291.888969 
L 464.798235 291.753363 
L 466.768226 291.66296 
L 477.931509 290.984933 
L 479.9015 290.894529 
L 483.184819 290.758924 
L 492.378111 290.66852 
L 496.974757 290.442511 
L 502.228067 290.352108 
L 504.854722 290.261704 
L 507.481377 290.216502 
L 508.794704 290.080897 
L 511.421359 289.990493 
L 517.987996 289.628879 
L 521.927979 289.583677 
L 523.89797 289.40287 
L 525.867961 289.357668 
L 530.464607 289.267265 
L 533.091262 289.176861 
L 539.001236 289.086457 
L 541.627891 288.996054 
L 545.567873 288.90565 
L 552.13451 288.544036 
L 555.417829 288.453632 
L 556.731156 288.318027 
L 564.611121 288.227623 
L 567.237776 288.13722 
L 576.431068 288.046816 
L 578.401059 288.001614 
L 582.341041 287.911211 
L 584.311033 287.866009 
L 592.847661 287.775605 
L 594.160989 287.685202 
L 601.384289 287.594798 
L 604.010944 287.504395 
L 611.890909 287.459193 
L 613.204237 287.368789 
L 623.054192 287.323587 
L 625.024184 287.14278 
L 636.187467 287.052377 
L 638.157458 287.007175 
L 655.230715 286.916771 
L 657.85737 286.826368 
L 669.677317 286.735964 
L 672.303972 286.645561 
L 676.900618 286.555157 
L 682.153928 286.283946 
L 684.780583 286.193543 
L 687.407237 286.103139 
L 691.34722 286.012735 
L 693.317211 285.967534 
L 695.943866 285.87713 
L 697.913857 285.831928 
L 701.197176 285.741525 
L 702.510503 285.605919 
L 706.450485 285.515516 
L 713.673786 285.1087 
L 716.957105 285.018296 
L 719.58376 284.927892 
L 724.180406 284.837489 
L 726.807061 284.747085 
L 732.060371 284.656682 
L 734.030362 284.61148 
L 737.31368 284.521076 
L 741.253663 284.340269 
L 747.163636 284.249865 
L 747.163636 284.249865 
" clip-path="url(#p896832e7cb)" style="fill: none; stroke: #ff7f0e; stroke-width: 1.5; stroke-linecap: square"/>
   </g>
   <g id="patch_3">
    <path d="M 108 320.4 
L 108 43.2 
" style="fill: none; stroke: #a9a9a9; stroke-width: 0.8; stroke-linejoin: miter; stroke-linecap: square"/>
   </g>
   <g id="patch_4">
    <path d="M 777.6 320.4 
L 777.6 43.2 
" style="fill: none"/>
   </g>
   <g id="patch_5">
    <path d="M 108 320.4 
L 777.6 320.4 
" style="fill: none; stroke: #a9a9a9; stroke-width: 0.8; stroke-linejoin: miter; stroke-linecap: square"/>
   </g>
   <g id="patch_6">
    <path d="M 108 43.2 
L 777.6 43.2 
" style="fill: none"/>
   </g>
   <g id="text_20">
    <!-- get_subscribe history -->
    <g style="fill: #a9a9a9" transform="translate(378.6075 37.2) scale(0.12 -0.12)">
     <defs>
      <path id="DejaVuSans-67" d="M 2906 1791 
Q 2906 2416 2648 2759 
Q 2391 3103 1925 3103 
Q 1463 3103 1205 2759 
Q 947 2416 947 1791 
Q 947 1169 1205 825 
Q 1463 481 1925 481 
Q 2391 481 2648 825 
Q 2906 1169 2906 1791 
z
M 3481 434 
Q 3481 -459 3084 -895 
Q 2688 -1331 1869 -1331 
Q 1566 -1331 1297 -1286 
Q 1028 -1241 775 -1147 
L 775 -588 
Q 1028 -725 1275 -790 
Q 1522 -856 1778 -856 
Q 2344 -856 2625 -561 
Q 2906 -266 2906 331 
L 2906 616 
Q 2728 306 2450 153 
Q 2172 0 1784 0 
Q 1141 0 747 490 
Q 353 981 353 1791 
Q 353 2603 747 3093 
Q 1141 3584 1784 3584 
Q 2172 3584 2450 3431 
Q 2728 3278 2906 2969 
L 2906 3500 
L 3481 3500 
L 3481 434 
z
" transform="scale(0.015625)"/>
      <path id="DejaVuSans-65" d="M 3597 1894 
L 3597 1613 
L 953 1613 
Q 991 1019 1311 708 
Q 1631 397 2203 397 
Q 2534 397 2845 478 
Q 3156 559 3463 722 
L 3463 178 
Q 3153 47 2828 -22 
Q 2503 -91 2169 -91 
Q 1331 -91 842 396 
Q 353 884 353 1716 
Q 353 2575 817 3079 
Q 1281 3584 2069 3584 
Q 2775 3584 3186 3129 
Q 3597 2675 3597 1894 
z
M 3022 2063 
Q 3016 2534 2758 2815 
Q 2500 3097 2075 3097 
Q 1594 3097 1305 2825 
Q 1016 2553 972 2059 
L 3022 2063 
z
" transform="scale(0.015625)"/>
      <path id="DejaVuSans-74" d="M 1172 4494 
L 1172 3500 
L 2356 3500 
L 2356 3053 
L 1172 3053 
L 1172 1153 
Q 1172 725 1289 603 
Q 1406 481 1766 481 
L 2356 481 
L 2356 0 
L 1766 0 
Q 1100 0 847 248 
Q 594 497 594 1153 
L 594 3053 
L 172 3053 
L 172 3500 
L 594 3500 
L 594 4494 
L 1172 4494 
z
" transform="scale(0.015625)"/>
      <path id="DejaVuSans-5f" d="M 3263 -1063 
L 3263 -1509 
L -63 -1509 
L -63 -1063 
L 3263 -1063 
z
" transform="scale(0.015625)"/>
      <path id="DejaVuSans-73" d="M 2834 3397 
L 2834 2853 
Q 2591 2978 2328 3040 
Q 2066 3103 1784 3103 
Q 1356 3103 1142 2972 
Q 928 2841 928 2578 
Q 928 2378 1081 2264 
Q 1234 2150 1697 2047 
L 1894 2003 
Q 2506 1872 2764 1633 
Q 3022 1394 3022 966 
Q 3022 478 2636 193 
Q 2250 -91 1575 -91 
Q 1294 -91 989 -36 
Q 684 19 347 128 
L 347 722 
Q 666 556 975 473 
Q 1284 391 1588 391 
Q 1994 391 2212 530 
Q 2431 669 2431 922 
Q 2431 1156 2273 1281 
Q 2116 1406 1581 1522 
L 1381 1569 
Q 847 1681 609 1914 
Q 372 2147 372 2553 
Q 372 3047 722 3315 
Q 1072 3584 1716 3584 
Q 2034 3584 2315 3537 
Q 2597 3491 2834 3397 
z
" transform="scale(0.015625)"/>
      <path id="DejaVuSans-75" d="M 544 1381 
L 544 3500 
L 1119 3500 
L 1119 1403 
Q 1119 906 1312 657 
Q 1506 409 1894 409 
Q 2359 409 2629 706 
Q 2900 1003 2900 1516 
L 2900 3500 
L 3475 3500 
L 3475 0 
L 2900 0 
L 2900 538 
Q 2691 219 2414 64 
Q 2138 -91 1772 -91 
Q 1169 -91 856 284 
Q 544 659 544 1381 
z
M 1991 3584 
L 1991 3584 
z
" transform="scale(0.015625)"/>
      <path id="DejaVuSans-62" d="M 3116 1747 
Q 3116 2381 2855 2742 
Q 2594 3103 2138 3103 
Q 1681 3103 1420 2742 
Q 1159 2381 1159 1747 
Q 1159 1113 1420 752 
Q 1681 391 2138 391 
Q 2594 391 2855 752 
Q 3116 1113 3116 1747 
z
M 1159 2969 
Q 1341 3281 1617 3432 
Q 1894 3584 2278 3584 
Q 2916 3584 3314 3078 
Q 3713 2572 3713 1747 
Q 3713 922 3314 415 
Q 2916 -91 2278 -91 
Q 1894 -91 1617 61 
Q 1341 213 1159 525 
L 1159 0 
L 581 0 
L 581 4863 
L 1159 4863 
L 1159 2969 
z
" transform="scale(0.015625)"/>
      <path id="DejaVuSans-63" d="M 3122 3366 
L 3122 2828 
Q 2878 2963 2633 3030 
Q 2388 3097 2138 3097 
Q 1578 3097 1268 2742 
Q 959 2388 959 1747 
Q 959 1106 1268 751 
Q 1578 397 2138 397 
Q 2388 397 2633 464 
Q 2878 531 3122 666 
L 3122 134 
Q 2881 22 2623 -34 
Q 2366 -91 2075 -91 
Q 1284 -91 818 406 
Q 353 903 353 1747 
Q 353 2603 823 3093 
Q 1294 3584 2113 3584 
Q 2378 3584 2631 3529 
Q 2884 3475 3122 3366 
z
" transform="scale(0.015625)"/>
      <path id="DejaVuSans-72" d="M 2631 2963 
Q 2534 3019 2420 3045 
Q 2306 3072 2169 3072 
Q 1681 3072 1420 2755 
Q 1159 2438 1159 1844 
L 1159 0 
L 581 0 
L 581 3500 
L 1159 3500 
L 1159 2956 
Q 1341 3275 1631 3429 
Q 1922 3584 2338 3584 
Q 2397 3584 2469 3576 
Q 2541 3569 2628 3553 
L 2631 2963 
z
" transform="scale(0.015625)"/>
      <path id="DejaVuSans-69" d="M 603 3500 
L 1178 3500 
L 1178 0 
L 603 0 
L 603 3500 
z
M 603 4863 
L 1178 4863 
L 1178 4134 
L 603 4134 
L 603 4863 
z
" transform="scale(0.015625)"/>
      <path id="DejaVuSans-20" transform="scale(0.015625)"/>
      <path id="DejaVuSans-68" d="M 3513 2113 
L 3513 0 
L 2938 0 
L 2938 2094 
Q 2938 2591 2744 2837 
Q 2550 3084 2163 3084 
Q 1697 3084 1428 2787 
Q 1159 2491 1159 1978 
L 1159 0 
L 581 0 
L 581 4863 
L 1159 4863 
L 1159 2956 
Q 1366 3272 1645 3428 
Q 1925 3584 2291 3584 
Q 2894 3584 3203 3211 
Q 3513 2838 3513 2113 
z
" transform="scale(0.015625)"/>
      <path id="DejaVuSans-6f" d="M 1959 3097 
Q 1497 3097 1228 2736 
Q 959 2375 959 1747 
Q 959 1119 1226 758 
Q 1494 397 1959 397 
Q 2419 397 2687 759 
Q 2956 1122 2956 1747 
Q 2956 2369 2687 2733 
Q 2419 3097 1959 3097 
z
M 1959 3584 
Q 2709 3584 3137 3096 
Q 3566 2609 3566 1747 
Q 3566 888 3137 398 
Q 2709 -91 1959 -91 
Q 1206 -91 779 398 
Q 353 888 353 1747 
Q 353 2609 779 3096 
Q 1206 3584 1959 3584 
z
" transform="scale(0.015625)"/>
      <path id="DejaVuSans-79" d="M 2059 -325 
Q 1816 -950 1584 -1140 
Q 1353 -1331 966 -1331 
L 506 -1331 
L 506 -850 
L 844 -850 
Q 1081 -850 1212 -737 
Q 1344 -625 1503 -206 
L 1606 56 
L 191 3500 
L 800 3500 
L 1894 763 
L 2988 3500 
L 3597 3500 
L 2059 -325 
z
" transform="scale(0.015625)"/>
     </defs>
     <use xlink:href="#DejaVuSans-67"/>
     <use xlink:href="#DejaVuSans-65" x="63.476562"/>
     <use xlink:href="#DejaVuSans-74" x="125"/>
     <use xlink:href="#DejaVuSans-5f" x="164.208984"/>
     <use xlink:href="#DejaVuSans-73" x="214.208984"/>
     <use xlink:href="#DejaVuSans-75" x="266.308594"/>
     <use xlink:href="#DejaVuSans-62" x="329.6875"/>
     <use xlink:href="#DejaVuSans-73" x="393.164062"/>
     <use xlink:href="#DejaVuSans-63" x="445.263672"/>
     <use xlink:href="#DejaVuSans-72" x="500.244141"/>
     <use xlink:href="#DejaVuSans-69" x="541.357422"/>
     <use xlink:href="#DejaVuSans-62" x="569.140625"/>
     <use xlink:href="#DejaVuSans-65" x="632.617188"/>
     <use xlink:href="#DejaVuSans-20" x="694.140625"/>
     <use xlink:href="#DejaVuSans-68" x="725.927734"/>
     <use xlink:href="#DejaVuSans-69" x="789.306641"/>
     <use xlink:href="#DejaVuSans-73" x="817.089844"/>
     <use xlink:href="#DejaVuSans-74" x="869.189453"/>
     <use xlink:href="#DejaVuSans-6f" x="908.398438"/>
     <use xlink:href="#DejaVuSans-72" x="969.580078"/>
     <use xlink:href="#DejaVuSans-79" x="1010.693359"/>
    </g>
   </g>
   <g id="legend_1">
    <g id="line2d_41">
     <path d="M 815.08 328.498438 
L 825.08 328.498438 
L 835.08 328.498438 
" style="fill: none; stroke: #1f77b4; stroke-width: 1.5; stroke-linecap: square"/>
    </g>
    <g id="text_21">
     <!-- star -->
     <g style="fill: #a9a9a9" transform="translate(843.08 331.998438) scale(0.1 -0.1)">
      <defs>
       <path id="DejaVuSans-61" d="M 2194 1759 
Q 1497 1759 1228 1600 
Q 959 1441 959 1056 
Q 959 750 1161 570 
Q 1363 391 1709 391 
Q 2188 391 2477 730 
Q 2766 1069 2766 1631 
L 2766 1759 
L 2194 1759 
z
M 3341 1997 
L 3341 0 
L 2766 0 
L 2766 531 
Q 2569 213 2275 61 
Q 1981 -91 1556 -91 
Q 1019 -91 701 211 
Q 384 513 384 1019 
Q 384 1609 779 1909 
Q 1175 2209 1959 2209 
L 2766 2209 
L 2766 2266 
Q 2766 2663 2505 2880 
Q 2244 3097 1772 3097 
Q 1472 3097 1187 3025 
Q 903 2953 641 2809 
L 641 3341 
Q 956 3463 1253 3523 
Q 1550 3584 1831 3584 
Q 2591 3584 2966 3190 
Q 3341 2797 3341 1997 
z
" transform="scale(0.015625)"/>
      </defs>
      <use xlink:href="#DejaVuSans-73"/>
      <use xlink:href="#DejaVuSans-74" x="52.099609"/>
      <use xlink:href="#DejaVuSans-61" x="91.308594"/>
      <use xlink:href="#DejaVuSans-72" x="152.587891"/>
     </g>
    </g>
    <g id="line2d_42">
     <path d="M 815.08 343.176562 
L 825.08 343.176562 
L 835.08 343.176562 
" style="fill: none; stroke: #ff7f0e; stroke-width: 1.5; stroke-linecap: square"/>
    </g>
    <g id="text_22">
     <!-- fork -->
     <g style="fill: #a9a9a9" transform="translate(843.08 346.676562) scale(0.1 -0.1)">
      <defs>
       <path id="DejaVuSans-66" d="M 2375 4863 
L 2375 4384 
L 1825 4384 
Q 1516 4384 1395 4259 
Q 1275 4134 1275 3809 
L 1275 3500 
L 2222 3500 
L 2222 3053 
L 1275 3053 
L 1275 0 
L 697 0 
L 697 3053 
L 147 3053 
L 147 3500 
L 697 3500 
L 697 3744 
Q 697 4328 969 4595 
Q 1241 4863 1831 4863 
L 2375 4863 
z
" transform="scale(0.015625)"/>
       <path id="DejaVuSans-6b" d="M 581 4863 
L 1159 4863 
L 1159 1991 
L 2875 3500 
L 3609 3500 
L 1753 1863 
L 3688 0 
L 2938 0 
L 1159 1709 
L 1159 0 
L 581 0 
L 581 4863 
z
" transform="scale(0.015625)"/>
      </defs>
      <use xlink:href="#DejaVuSans-66"/>
      <use xlink:href="#DejaVuSans-6f" x="35.205078"/>
      <use xlink:href="#DejaVuSans-72" x="96.386719"/>
      <use xlink:href="#DejaVuSans-6b" x="137.5"/>
     </g>
    </g>
   </g>
  </g>
 </g>
 <defs>
  <clipPath id="p896832e7cb">
   <rect x="108" y="43.2" width="669.6" height="277.2"/>
  </clipPath>
 </defs>
</svg>
