<?xml version="1.0" encoding="utf-8" standalone="no"?>
<!DOCTYPE svg PUBLIC "-//W3C//DTD SVG 1.1//EN"
  "http://www.w3.org/Graphics/SVG/1.1/DTD/svg11.dtd">
<svg xmlns:xlink="http://www.w3.org/1999/xlink" width="864pt" height="360pt" viewBox="0 0 864 360" xmlns="http://www.w3.org/2000/svg" version="1.1">
 <metadata>
  <rdf:RDF xmlns:dc="http://purl.org/dc/elements/1.1/" xmlns:cc="http://creativecommons.org/ns#" xmlns:rdf="http://www.w3.org/1999/02/22-rdf-syntax-ns#">
   <cc:Work>
    <dc:type rdf:resource="http://purl.org/dc/dcmitype/StillImage"/>
    <dc:date>2024-02-07T08:10:20.604839</dc:date>
    <dc:format>image/svg+xml</dc:format>
    <dc:creator>
     <cc:Agent>
      <dc:title>Matplotlib v3.8.2, https://matplotlib.org/</dc:title>
     </cc:Agent>
    </dc:creator>
   </cc:Work>
  </rdf:RDF>
 </metadata>
 <defs>
  <style type="text/css">*{stroke-linejoin: round; stroke-linecap: butt}</style>
 </defs>
 <g id="figure_1">
  <g id="patch_1">
   <path d="M 0 360 
L 864 360 
L 864 0 
L 0 0 
L 0 360 
z
" style="fill: none; opacity: 0"/>
  </g>
  <g id="axes_1">
   <g id="patch_2">
    <path d="M 108 320.4 
L 777.6 320.4 
L 777.6 43.2 
L 108 43.2 
L 108 320.4 
z
" style="fill: none; opacity: 0"/>
   </g>
   <g id="matplotlib.axis_1">
    <g id="xtick_1">
     <g id="line2d_1">
      <path d="M 123.349373 320.4 
L 123.349373 43.2 
" clip-path="url(#pae71cfabe2)" style="fill: none; stroke-dasharray: 5.12,1.28,0.8,1.28; stroke-dashoffset: 0; stroke: #b0b0b0; stroke-width: 0.8"/>
     </g>
     <g id="line2d_2">
      <defs>
       <path id="m5d8cccfc68" d="M 0 0 
L 0 3.5 
" style="stroke: #a9a9a9; stroke-width: 0.8"/>
      </defs>
      <g>
       <use xlink:href="#m5d8cccfc68" x="123.349373" y="320.4" style="fill: #a9a9a9; stroke: #a9a9a9; stroke-width: 0.8"/>
      </g>
     </g>
     <g id="text_1">
      <!-- 2021-07 -->
      <g style="fill: #a9a9a9" transform="translate(102.457967 334.998438) scale(0.1 -0.1)">
       <defs>
        <path id="DejaVuSans-32" d="M 1228 531 
L 3431 531 
L 3431 0 
L 469 0 
L 469 531 
Q 828 903 1448 1529 
Q 2069 2156 2228 2338 
Q 2531 2678 2651 2914 
Q 2772 3150 2772 3378 
Q 2772 3750 2511 3984 
Q 2250 4219 1831 4219 
Q 1534 4219 1204 4116 
Q 875 4013 500 3803 
L 500 4441 
Q 881 4594 1212 4672 
Q 1544 4750 1819 4750 
Q 2544 4750 2975 4387 
Q 3406 4025 3406 3419 
Q 3406 3131 3298 2873 
Q 3191 2616 2906 2266 
Q 2828 2175 2409 1742 
Q 1991 1309 1228 531 
z
" transform="scale(0.015625)"/>
        <path id="DejaVuSans-30" d="M 2034 4250 
Q 1547 4250 1301 3770 
Q 1056 3291 1056 2328 
Q 1056 1369 1301 889 
Q 1547 409 2034 409 
Q 2525 409 2770 889 
Q 3016 1369 3016 2328 
Q 3016 3291 2770 3770 
Q 2525 4250 2034 4250 
z
M 2034 4750 
Q 2819 4750 3233 4129 
Q 3647 3509 3647 2328 
Q 3647 1150 3233 529 
Q 2819 -91 2034 -91 
Q 1250 -91 836 529 
Q 422 1150 422 2328 
Q 422 3509 836 4129 
Q 1250 4750 2034 4750 
z
" transform="scale(0.015625)"/>
        <path id="DejaVuSans-31" d="M 794 531 
L 1825 531 
L 1825 4091 
L 703 3866 
L 703 4441 
L 1819 4666 
L 2450 4666 
L 2450 531 
L 3481 531 
L 3481 0 
L 794 0 
L 794 531 
z
" transform="scale(0.015625)"/>
        <path id="DejaVuSans-2d" d="M 313 2009 
L 1997 2009 
L 1997 1497 
L 313 1497 
L 313 2009 
z
" transform="scale(0.015625)"/>
        <path id="DejaVuSans-37" d="M 525 4666 
L 3525 4666 
L 3525 4397 
L 1831 0 
L 1172 0 
L 2766 4134 
L 525 4134 
L 525 4666 
z
" transform="scale(0.015625)"/>
       </defs>
       <use xlink:href="#DejaVuSans-32"/>
       <use xlink:href="#DejaVuSans-30" x="63.623047"/>
       <use xlink:href="#DejaVuSans-32" x="127.246094"/>
       <use xlink:href="#DejaVuSans-31" x="190.869141"/>
       <use xlink:href="#DejaVuSans-2d" x="254.492188"/>
       <use xlink:href="#DejaVuSans-30" x="290.576172"/>
       <use xlink:href="#DejaVuSans-37" x="354.199219"/>
      </g>
     </g>
    </g>
    <g id="xtick_2">
     <g id="line2d_3">
      <path d="M 183.697335 320.4 
L 183.697335 43.2 
" clip-path="url(#pae71cfabe2)" style="fill: none; stroke-dasharray: 5.12,1.28,0.8,1.28; stroke-dashoffset: 0; stroke: #b0b0b0; stroke-width: 0.8"/>
     </g>
     <g id="line2d_4">
      <g>
       <use xlink:href="#m5d8cccfc68" x="183.697335" y="320.4" style="fill: #a9a9a9; stroke: #a9a9a9; stroke-width: 0.8"/>
      </g>
     </g>
     <g id="text_2">
      <!-- 2021-10 -->
      <g style="fill: #a9a9a9" transform="translate(162.805929 334.998438) scale(0.1 -0.1)">
       <use xlink:href="#DejaVuSans-32"/>
       <use xlink:href="#DejaVuSans-30" x="63.623047"/>
       <use xlink:href="#DejaVuSans-32" x="127.246094"/>
       <use xlink:href="#DejaVuSans-31" x="190.869141"/>
       <use xlink:href="#DejaVuSans-2d" x="254.492188"/>
       <use xlink:href="#DejaVuSans-31" x="290.576172"/>
       <use xlink:href="#DejaVuSans-30" x="354.199219"/>
      </g>
     </g>
    </g>
    <g id="xtick_3">
     <g id="line2d_5">
      <path d="M 244.045298 320.4 
L 244.045298 43.2 
" clip-path="url(#pae71cfabe2)" style="fill: none; stroke-dasharray: 5.12,1.28,0.8,1.28; stroke-dashoffset: 0; stroke: #b0b0b0; stroke-width: 0.8"/>
     </g>
     <g id="line2d_6">
      <g>
       <use xlink:href="#m5d8cccfc68" x="244.045298" y="320.4" style="fill: #a9a9a9; stroke: #a9a9a9; stroke-width: 0.8"/>
      </g>
     </g>
     <g id="text_3">
      <!-- 2022-01 -->
      <g style="fill: #a9a9a9" transform="translate(223.153892 334.998438) scale(0.1 -0.1)">
       <use xlink:href="#DejaVuSans-32"/>
       <use xlink:href="#DejaVuSans-30" x="63.623047"/>
       <use xlink:href="#DejaVuSans-32" x="127.246094"/>
       <use xlink:href="#DejaVuSans-32" x="190.869141"/>
       <use xlink:href="#DejaVuSans-2d" x="254.492188"/>
       <use xlink:href="#DejaVuSans-30" x="290.576172"/>
       <use xlink:href="#DejaVuSans-31" x="354.199219"/>
      </g>
     </g>
    </g>
    <g id="xtick_4">
     <g id="line2d_7">
      <path d="M 303.081348 320.4 
L 303.081348 43.2 
" clip-path="url(#pae71cfabe2)" style="fill: none; stroke-dasharray: 5.12,1.28,0.8,1.28; stroke-dashoffset: 0; stroke: #b0b0b0; stroke-width: 0.8"/>
     </g>
     <g id="line2d_8">
      <g>
       <use xlink:href="#m5d8cccfc68" x="303.081348" y="320.4" style="fill: #a9a9a9; stroke: #a9a9a9; stroke-width: 0.8"/>
      </g>
     </g>
     <g id="text_4">
      <!-- 2022-04 -->
      <g style="fill: #a9a9a9" transform="translate(282.189942 334.998438) scale(0.1 -0.1)">
       <defs>
        <path id="DejaVuSans-34" d="M 2419 4116 
L 825 1625 
L 2419 1625 
L 2419 4116 
z
M 2253 4666 
L 3047 4666 
L 3047 1625 
L 3713 1625 
L 3713 1100 
L 3047 1100 
L 3047 0 
L 2419 0 
L 2419 1100 
L 313 1100 
L 313 1709 
L 2253 4666 
z
" transform="scale(0.015625)"/>
       </defs>
       <use xlink:href="#DejaVuSans-32"/>
       <use xlink:href="#DejaVuSans-30" x="63.623047"/>
       <use xlink:href="#DejaVuSans-32" x="127.246094"/>
       <use xlink:href="#DejaVuSans-32" x="190.869141"/>
       <use xlink:href="#DejaVuSans-2d" x="254.492188"/>
       <use xlink:href="#DejaVuSans-30" x="290.576172"/>
       <use xlink:href="#DejaVuSans-34" x="354.199219"/>
      </g>
     </g>
    </g>
    <g id="xtick_5">
     <g id="line2d_9">
      <path d="M 362.773354 320.4 
L 362.773354 43.2 
" clip-path="url(#pae71cfabe2)" style="fill: none; stroke-dasharray: 5.12,1.28,0.8,1.28; stroke-dashoffset: 0; stroke: #b0b0b0; stroke-width: 0.8"/>
     </g>
     <g id="line2d_10">
      <g>
       <use xlink:href="#m5d8cccfc68" x="362.773354" y="320.4" style="fill: #a9a9a9; stroke: #a9a9a9; stroke-width: 0.8"/>
      </g>
     </g>
     <g id="text_5">
      <!-- 2022-07 -->
      <g style="fill: #a9a9a9" transform="translate(341.881948 334.998438) scale(0.1 -0.1)">
       <use xlink:href="#DejaVuSans-32"/>
       <use xlink:href="#DejaVuSans-30" x="63.623047"/>
       <use xlink:href="#DejaVuSans-32" x="127.246094"/>
       <use xlink:href="#DejaVuSans-32" x="190.869141"/>
       <use xlink:href="#DejaVuSans-2d" x="254.492188"/>
       <use xlink:href="#DejaVuSans-30" x="290.576172"/>
       <use xlink:href="#DejaVuSans-37" x="354.199219"/>
      </g>
     </g>
    </g>
    <g id="xtick_6">
     <g id="line2d_11">
      <path d="M 423.121317 320.4 
L 423.121317 43.2 
" clip-path="url(#pae71cfabe2)" style="fill: none; stroke-dasharray: 5.12,1.28,0.8,1.28; stroke-dashoffset: 0; stroke: #b0b0b0; stroke-width: 0.8"/>
     </g>
     <g id="line2d_12">
      <g>
       <use xlink:href="#m5d8cccfc68" x="423.121317" y="320.4" style="fill: #a9a9a9; stroke: #a9a9a9; stroke-width: 0.8"/>
      </g>
     </g>
     <g id="text_6">
      <!-- 2022-10 -->
      <g style="fill: #a9a9a9" transform="translate(402.22991 334.998438) scale(0.1 -0.1)">
       <use xlink:href="#DejaVuSans-32"/>
       <use xlink:href="#DejaVuSans-30" x="63.623047"/>
       <use xlink:href="#DejaVuSans-32" x="127.246094"/>
       <use xlink:href="#DejaVuSans-32" x="190.869141"/>
       <use xlink:href="#DejaVuSans-2d" x="254.492188"/>
       <use xlink:href="#DejaVuSans-31" x="290.576172"/>
       <use xlink:href="#DejaVuSans-30" x="354.199219"/>
      </g>
     </g>
    </g>
    <g id="xtick_7">
     <g id="line2d_13">
      <path d="M 483.469279 320.4 
L 483.469279 43.2 
" clip-path="url(#pae71cfabe2)" style="fill: none; stroke-dasharray: 5.12,1.28,0.8,1.28; stroke-dashoffset: 0; stroke: #b0b0b0; stroke-width: 0.8"/>
     </g>
     <g id="line2d_14">
      <g>
       <use xlink:href="#m5d8cccfc68" x="483.469279" y="320.4" style="fill: #a9a9a9; stroke: #a9a9a9; stroke-width: 0.8"/>
      </g>
     </g>
     <g id="text_7">
      <!-- 2023-01 -->
      <g style="fill: #a9a9a9" transform="translate(462.577873 334.998438) scale(0.1 -0.1)">
       <defs>
        <path id="DejaVuSans-33" d="M 2597 2516 
Q 3050 2419 3304 2112 
Q 3559 1806 3559 1356 
Q 3559 666 3084 287 
Q 2609 -91 1734 -91 
Q 1441 -91 1130 -33 
Q 819 25 488 141 
L 488 750 
Q 750 597 1062 519 
Q 1375 441 1716 441 
Q 2309 441 2620 675 
Q 2931 909 2931 1356 
Q 2931 1769 2642 2001 
Q 2353 2234 1838 2234 
L 1294 2234 
L 1294 2753 
L 1863 2753 
Q 2328 2753 2575 2939 
Q 2822 3125 2822 3475 
Q 2822 3834 2567 4026 
Q 2313 4219 1838 4219 
Q 1578 4219 1281 4162 
Q 984 4106 628 3988 
L 628 4550 
Q 988 4650 1302 4700 
Q 1616 4750 1894 4750 
Q 2613 4750 3031 4423 
Q 3450 4097 3450 3541 
Q 3450 3153 3228 2886 
Q 3006 2619 2597 2516 
z
" transform="scale(0.015625)"/>
       </defs>
       <use xlink:href="#DejaVuSans-32"/>
       <use xlink:href="#DejaVuSans-30" x="63.623047"/>
       <use xlink:href="#DejaVuSans-32" x="127.246094"/>
       <use xlink:href="#DejaVuSans-33" x="190.869141"/>
       <use xlink:href="#DejaVuSans-2d" x="254.492188"/>
       <use xlink:href="#DejaVuSans-30" x="290.576172"/>
       <use xlink:href="#DejaVuSans-31" x="354.199219"/>
      </g>
     </g>
    </g>
    <g id="xtick_8">
     <g id="line2d_15">
      <path d="M 542.505329 320.4 
L 542.505329 43.2 
" clip-path="url(#pae71cfabe2)" style="fill: none; stroke-dasharray: 5.12,1.28,0.8,1.28; stroke-dashoffset: 0; stroke: #b0b0b0; stroke-width: 0.8"/>
     </g>
     <g id="line2d_16">
      <g>
       <use xlink:href="#m5d8cccfc68" x="542.505329" y="320.4" style="fill: #a9a9a9; stroke: #a9a9a9; stroke-width: 0.8"/>
      </g>
     </g>
     <g id="text_8">
      <!-- 2023-04 -->
      <g style="fill: #a9a9a9" transform="translate(521.613923 334.998438) scale(0.1 -0.1)">
       <use xlink:href="#DejaVuSans-32"/>
       <use xlink:href="#DejaVuSans-30" x="63.623047"/>
       <use xlink:href="#DejaVuSans-32" x="127.246094"/>
       <use xlink:href="#DejaVuSans-33" x="190.869141"/>
       <use xlink:href="#DejaVuSans-2d" x="254.492188"/>
       <use xlink:href="#DejaVuSans-30" x="290.576172"/>
       <use xlink:href="#DejaVuSans-34" x="354.199219"/>
      </g>
     </g>
    </g>
    <g id="xtick_9">
     <g id="line2d_17">
      <path d="M 602.197335 320.4 
L 602.197335 43.2 
" clip-path="url(#pae71cfabe2)" style="fill: none; stroke-dasharray: 5.12,1.28,0.8,1.28; stroke-dashoffset: 0; stroke: #b0b0b0; stroke-width: 0.8"/>
     </g>
     <g id="line2d_18">
      <g>
       <use xlink:href="#m5d8cccfc68" x="602.197335" y="320.4" style="fill: #a9a9a9; stroke: #a9a9a9; stroke-width: 0.8"/>
      </g>
     </g>
     <g id="text_9">
      <!-- 2023-07 -->
      <g style="fill: #a9a9a9" transform="translate(581.305929 334.998438) scale(0.1 -0.1)">
       <use xlink:href="#DejaVuSans-32"/>
       <use xlink:href="#DejaVuSans-30" x="63.623047"/>
       <use xlink:href="#DejaVuSans-32" x="127.246094"/>
       <use xlink:href="#DejaVuSans-33" x="190.869141"/>
       <use xlink:href="#DejaVuSans-2d" x="254.492188"/>
       <use xlink:href="#DejaVuSans-30" x="290.576172"/>
       <use xlink:href="#DejaVuSans-37" x="354.199219"/>
      </g>
     </g>
    </g>
    <g id="xtick_10">
     <g id="line2d_19">
      <path d="M 662.545298 320.4 
L 662.545298 43.2 
" clip-path="url(#pae71cfabe2)" style="fill: none; stroke-dasharray: 5.12,1.28,0.8,1.28; stroke-dashoffset: 0; stroke: #b0b0b0; stroke-width: 0.8"/>
     </g>
     <g id="line2d_20">
      <g>
       <use xlink:href="#m5d8cccfc68" x="662.545298" y="320.4" style="fill: #a9a9a9; stroke: #a9a9a9; stroke-width: 0.8"/>
      </g>
     </g>
     <g id="text_10">
      <!-- 2023-10 -->
      <g style="fill: #a9a9a9" transform="translate(641.653892 334.998438) scale(0.1 -0.1)">
       <use xlink:href="#DejaVuSans-32"/>
       <use xlink:href="#DejaVuSans-30" x="63.623047"/>
       <use xlink:href="#DejaVuSans-32" x="127.246094"/>
       <use xlink:href="#DejaVuSans-33" x="190.869141"/>
       <use xlink:href="#DejaVuSans-2d" x="254.492188"/>
       <use xlink:href="#DejaVuSans-31" x="290.576172"/>
       <use xlink:href="#DejaVuSans-30" x="354.199219"/>
      </g>
     </g>
    </g>
    <g id="xtick_11">
     <g id="line2d_21">
      <path d="M 722.89326 320.4 
L 722.89326 43.2 
" clip-path="url(#pae71cfabe2)" style="fill: none; stroke-dasharray: 5.12,1.28,0.8,1.28; stroke-dashoffset: 0; stroke: #b0b0b0; stroke-width: 0.8"/>
     </g>
     <g id="line2d_22">
      <g>
       <use xlink:href="#m5d8cccfc68" x="722.89326" y="320.4" style="fill: #a9a9a9; stroke: #a9a9a9; stroke-width: 0.8"/>
      </g>
     </g>
     <g id="text_11">
      <!-- 2024-01 -->
      <g style="fill: #a9a9a9" transform="translate(702.001854 334.998438) scale(0.1 -0.1)">
       <use xlink:href="#DejaVuSans-32"/>
       <use xlink:href="#DejaVuSans-30" x="63.623047"/>
       <use xlink:href="#DejaVuSans-32" x="127.246094"/>
       <use xlink:href="#DejaVuSans-34" x="190.869141"/>
       <use xlink:href="#DejaVuSans-2d" x="254.492188"/>
       <use xlink:href="#DejaVuSans-30" x="290.576172"/>
       <use xlink:href="#DejaVuSans-31" x="354.199219"/>
      </g>
     </g>
    </g>
   </g>
   <g id="matplotlib.axis_2">
    <g id="ytick_1">
     <g id="line2d_23">
      <path d="M 108 307.845161 
L 777.6 307.845161 
" clip-path="url(#pae71cfabe2)" style="fill: none; stroke-dasharray: 5.12,1.28,0.8,1.28; stroke-dashoffset: 0; stroke: #b0b0b0; stroke-width: 0.8"/>
     </g>
     <g id="line2d_24">
      <defs>
       <path id="m30a2861ae6" d="M 0 0 
L -3.5 0 
" style="stroke: #a9a9a9; stroke-width: 0.8"/>
      </defs>
      <g>
       <use xlink:href="#m30a2861ae6" x="108" y="307.845161" style="fill: #a9a9a9; stroke: #a9a9a9; stroke-width: 0.8"/>
      </g>
     </g>
     <g id="text_12">
      <!-- 0 -->
      <g style="fill: #a9a9a9" transform="translate(94.6375 311.64438) scale(0.1 -0.1)">
       <use xlink:href="#DejaVuSans-30"/>
      </g>
     </g>
    </g>
    <g id="ytick_2">
     <g id="line2d_25">
      <path d="M 108 271.716129 
L 777.6 271.716129 
" clip-path="url(#pae71cfabe2)" style="fill: none; stroke-dasharray: 5.12,1.28,0.8,1.28; stroke-dashoffset: 0; stroke: #b0b0b0; stroke-width: 0.8"/>
     </g>
     <g id="line2d_26">
      <g>
       <use xlink:href="#m30a2861ae6" x="108" y="271.716129" style="fill: #a9a9a9; stroke: #a9a9a9; stroke-width: 0.8"/>
      </g>
     </g>
     <g id="text_13">
      <!-- 800 -->
      <g style="fill: #a9a9a9" transform="translate(81.9125 275.515348) scale(0.1 -0.1)">
       <defs>
        <path id="DejaVuSans-38" d="M 2034 2216 
Q 1584 2216 1326 1975 
Q 1069 1734 1069 1313 
Q 1069 891 1326 650 
Q 1584 409 2034 409 
Q 2484 409 2743 651 
Q 3003 894 3003 1313 
Q 3003 1734 2745 1975 
Q 2488 2216 2034 2216 
z
M 1403 2484 
Q 997 2584 770 2862 
Q 544 3141 544 3541 
Q 544 4100 942 4425 
Q 1341 4750 2034 4750 
Q 2731 4750 3128 4425 
Q 3525 4100 3525 3541 
Q 3525 3141 3298 2862 
Q 3072 2584 2669 2484 
Q 3125 2378 3379 2068 
Q 3634 1759 3634 1313 
Q 3634 634 3220 271 
Q 2806 -91 2034 -91 
Q 1263 -91 848 271 
Q 434 634 434 1313 
Q 434 1759 690 2068 
Q 947 2378 1403 2484 
z
M 1172 3481 
Q 1172 3119 1398 2916 
Q 1625 2713 2034 2713 
Q 2441 2713 2670 2916 
Q 2900 3119 2900 3481 
Q 2900 3844 2670 4047 
Q 2441 4250 2034 4250 
Q 1625 4250 1398 4047 
Q 1172 3844 1172 3481 
z
" transform="scale(0.015625)"/>
       </defs>
       <use xlink:href="#DejaVuSans-38"/>
       <use xlink:href="#DejaVuSans-30" x="63.623047"/>
       <use xlink:href="#DejaVuSans-30" x="127.246094"/>
      </g>
     </g>
    </g>
    <g id="ytick_3">
     <g id="line2d_27">
      <path d="M 108 235.587097 
L 777.6 235.587097 
" clip-path="url(#pae71cfabe2)" style="fill: none; stroke-dasharray: 5.12,1.28,0.8,1.28; stroke-dashoffset: 0; stroke: #b0b0b0; stroke-width: 0.8"/>
     </g>
     <g id="line2d_28">
      <g>
       <use xlink:href="#m30a2861ae6" x="108" y="235.587097" style="fill: #a9a9a9; stroke: #a9a9a9; stroke-width: 0.8"/>
      </g>
     </g>
     <g id="text_14">
      <!-- 1600 -->
      <g style="fill: #a9a9a9" transform="translate(75.55 239.386316) scale(0.1 -0.1)">
       <defs>
        <path id="DejaVuSans-36" d="M 2113 2584 
Q 1688 2584 1439 2293 
Q 1191 2003 1191 1497 
Q 1191 994 1439 701 
Q 1688 409 2113 409 
Q 2538 409 2786 701 
Q 3034 994 3034 1497 
Q 3034 2003 2786 2293 
Q 2538 2584 2113 2584 
z
M 3366 4563 
L 3366 3988 
Q 3128 4100 2886 4159 
Q 2644 4219 2406 4219 
Q 1781 4219 1451 3797 
Q 1122 3375 1075 2522 
Q 1259 2794 1537 2939 
Q 1816 3084 2150 3084 
Q 2853 3084 3261 2657 
Q 3669 2231 3669 1497 
Q 3669 778 3244 343 
Q 2819 -91 2113 -91 
Q 1303 -91 875 529 
Q 447 1150 447 2328 
Q 447 3434 972 4092 
Q 1497 4750 2381 4750 
Q 2619 4750 2861 4703 
Q 3103 4656 3366 4563 
z
" transform="scale(0.015625)"/>
       </defs>
       <use xlink:href="#DejaVuSans-31"/>
       <use xlink:href="#DejaVuSans-36" x="63.623047"/>
       <use xlink:href="#DejaVuSans-30" x="127.246094"/>
       <use xlink:href="#DejaVuSans-30" x="190.869141"/>
      </g>
     </g>
    </g>
    <g id="ytick_4">
     <g id="line2d_29">
      <path d="M 108 199.458065 
L 777.6 199.458065 
" clip-path="url(#pae71cfabe2)" style="fill: none; stroke-dasharray: 5.12,1.28,0.8,1.28; stroke-dashoffset: 0; stroke: #b0b0b0; stroke-width: 0.8"/>
     </g>
     <g id="line2d_30">
      <g>
       <use xlink:href="#m30a2861ae6" x="108" y="199.458065" style="fill: #a9a9a9; stroke: #a9a9a9; stroke-width: 0.8"/>
      </g>
     </g>
     <g id="text_15">
      <!-- 2400 -->
      <g style="fill: #a9a9a9" transform="translate(75.55 203.257283) scale(0.1 -0.1)">
       <use xlink:href="#DejaVuSans-32"/>
       <use xlink:href="#DejaVuSans-34" x="63.623047"/>
       <use xlink:href="#DejaVuSans-30" x="127.246094"/>
       <use xlink:href="#DejaVuSans-30" x="190.869141"/>
      </g>
     </g>
    </g>
    <g id="ytick_5">
     <g id="line2d_31">
      <path d="M 108 163.329032 
L 777.6 163.329032 
" clip-path="url(#pae71cfabe2)" style="fill: none; stroke-dasharray: 5.12,1.28,0.8,1.28; stroke-dashoffset: 0; stroke: #b0b0b0; stroke-width: 0.8"/>
     </g>
     <g id="line2d_32">
      <g>
       <use xlink:href="#m30a2861ae6" x="108" y="163.329032" style="fill: #a9a9a9; stroke: #a9a9a9; stroke-width: 0.8"/>
      </g>
     </g>
     <g id="text_16">
      <!-- 3200 -->
      <g style="fill: #a9a9a9" transform="translate(75.55 167.128251) scale(0.1 -0.1)">
       <use xlink:href="#DejaVuSans-33"/>
       <use xlink:href="#DejaVuSans-32" x="63.623047"/>
       <use xlink:href="#DejaVuSans-30" x="127.246094"/>
       <use xlink:href="#DejaVuSans-30" x="190.869141"/>
      </g>
     </g>
    </g>
    <g id="ytick_6">
     <g id="line2d_33">
      <path d="M 108 127.2 
L 777.6 127.2 
" clip-path="url(#pae71cfabe2)" style="fill: none; stroke-dasharray: 5.12,1.28,0.8,1.28; stroke-dashoffset: 0; stroke: #b0b0b0; stroke-width: 0.8"/>
     </g>
     <g id="line2d_34">
      <g>
       <use xlink:href="#m30a2861ae6" x="108" y="127.2" style="fill: #a9a9a9; stroke: #a9a9a9; stroke-width: 0.8"/>
      </g>
     </g>
     <g id="text_17">
      <!-- 4000 -->
      <g style="fill: #a9a9a9" transform="translate(75.55 130.999219) scale(0.1 -0.1)">
       <use xlink:href="#DejaVuSans-34"/>
       <use xlink:href="#DejaVuSans-30" x="63.623047"/>
       <use xlink:href="#DejaVuSans-30" x="127.246094"/>
       <use xlink:href="#DejaVuSans-30" x="190.869141"/>
      </g>
     </g>
    </g>
    <g id="ytick_7">
     <g id="line2d_35">
      <path d="M 108 91.070968 
L 777.6 91.070968 
" clip-path="url(#pae71cfabe2)" style="fill: none; stroke-dasharray: 5.12,1.28,0.8,1.28; stroke-dashoffset: 0; stroke: #b0b0b0; stroke-width: 0.8"/>
     </g>
     <g id="line2d_36">
      <g>
       <use xlink:href="#m30a2861ae6" x="108" y="91.070968" style="fill: #a9a9a9; stroke: #a9a9a9; stroke-width: 0.8"/>
      </g>
     </g>
     <g id="text_18">
      <!-- 4800 -->
      <g style="fill: #a9a9a9" transform="translate(75.55 94.870186) scale(0.1 -0.1)">
       <use xlink:href="#DejaVuSans-34"/>
       <use xlink:href="#DejaVuSans-38" x="63.623047"/>
       <use xlink:href="#DejaVuSans-30" x="127.246094"/>
       <use xlink:href="#DejaVuSans-30" x="190.869141"/>
      </g>
     </g>
    </g>
    <g id="ytick_8">
     <g id="line2d_37">
      <path d="M 108 54.941935 
L 777.6 54.941935 
" clip-path="url(#pae71cfabe2)" style="fill: none; stroke-dasharray: 5.12,1.28,0.8,1.28; stroke-dashoffset: 0; stroke: #b0b0b0; stroke-width: 0.8"/>
     </g>
     <g id="line2d_38">
      <g>
       <use xlink:href="#m30a2861ae6" x="108" y="54.941935" style="fill: #a9a9a9; stroke: #a9a9a9; stroke-width: 0.8"/>
      </g>
     </g>
     <g id="text_19">
      <!-- 5600 -->
      <g style="fill: #a9a9a9" transform="translate(75.55 58.741154) scale(0.1 -0.1)">
       <defs>
        <path id="DejaVuSans-35" d="M 691 4666 
L 3169 4666 
L 3169 4134 
L 1269 4134 
L 1269 2991 
Q 1406 3038 1543 3061 
Q 1681 3084 1819 3084 
Q 2600 3084 3056 2656 
Q 3513 2228 3513 1497 
Q 3513 744 3044 326 
Q 2575 -91 1722 -91 
Q 1428 -91 1123 -41 
Q 819 9 494 109 
L 494 744 
Q 775 591 1075 516 
Q 1375 441 1709 441 
Q 2250 441 2565 725 
Q 2881 1009 2881 1497 
Q 2881 1984 2565 2268 
Q 2250 2553 1709 2553 
Q 1456 2553 1204 2497 
Q 953 2441 691 2322 
L 691 4666 
z
" transform="scale(0.015625)"/>
       </defs>
       <use xlink:href="#DejaVuSans-35"/>
       <use xlink:href="#DejaVuSans-36" x="63.623047"/>
       <use xlink:href="#DejaVuSans-30" x="127.246094"/>
       <use xlink:href="#DejaVuSans-30" x="190.869141"/>
      </g>
     </g>
    </g>
   </g>
   <g id="line2d_39">
    <path d="M 138.436364 307.709677 
L 142.3721 307.393548 
L 143.028056 307.122581 
L 144.995925 306.896774 
L 149.587618 306.03871 
L 152.867398 305.722581 
L 153.523354 305.406452 
L 154.17931 305.225806 
L 154.835266 304.412903 
L 155.491223 303.96129 
L 156.147179 302.56129 
L 156.803135 302.470968 
L 157.459091 301.974194 
L 158.771003 301.341935 
L 161.394828 299.354839 
L 162.70674 298.812903 
L 163.362696 298.36129 
L 165.98652 297.232258 
L 166.642476 296.193548 
L 167.954389 295.245161 
L 168.610345 294.929032 
L 175.169906 294.025806 
L 175.825862 293.709677 
L 180.417555 293.348387 
L 182.385423 292.851613 
L 188.289028 292.083871 
L 188.944984 291.722581 
L 189.60094 291.632258 
L 190.256897 291.36129 
L 191.568809 291.135484 
L 192.224765 291.090323 
L 192.880721 290.864516 
L 195.504545 290.458065 
L 196.816458 290.096774 
L 198.784326 289.916129 
L 200.096238 289.780645 
L 200.752194 289.6 
L 201.40815 289.554839 
L 203.376019 288.967742 
L 207.311755 288.380645 
L 207.967712 288.2 
L 208.623668 287.296774 
L 210.591536 286.574194 
L 212.559404 286.032258 
L 213.215361 285.716129 
L 213.871317 285.670968 
L 217.151097 284.767742 
L 218.463009 284.677419 
L 219.118966 284.587097 
L 221.086834 284 
L 223.710658 283.367742 
L 224.366614 283.096774 
L 225.022571 283.006452 
L 225.678527 282.690323 
L 232.238088 281.696774 
L 235.517868 280.793548 
L 236.173824 280.387097 
L 238.797649 279.709677 
L 240.109561 278.941935 
L 240.765517 278.490323 
L 242.733386 278.129032 
L 246.669122 276.954839 
L 247.981034 276.548387 
L 248.636991 276.458065 
L 249.948903 276.096774 
L 251.260815 275.780645 
L 251.916771 275.690323 
L 253.228683 275.148387 
L 253.884639 275.012903 
L 254.540596 274.741935 
L 255.196552 274.651613 
L 255.852508 274.335484 
L 256.508464 274.154839 
L 257.820376 274.064516 
L 259.132288 273.612903 
L 260.444201 273.522581 
L 261.100157 273.206452 
L 263.723981 272.754839 
L 266.347806 272.529032 
L 267.003762 272.393548 
L 268.315674 271.76129 
L 275.531191 268.735484 
L 276.187147 268.374194 
L 276.843103 267.651613 
L 277.49906 266.567742 
L 278.155016 265.709677 
L 278.810972 265.529032 
L 279.466928 265.529032 
L 280.77884 264.580645 
L 281.434796 264.4 
L 282.090752 264.03871 
L 282.746708 263.903226 
L 283.402665 263.316129 
L 284.058621 263.135484 
L 286.026489 262.187097 
L 286.682445 261.374194 
L 287.338401 260.380645 
L 287.994357 259.974194 
L 288.650313 258.890323 
L 289.30627 258.212903 
L 289.962226 257.896774 
L 290.618182 257.716129 
L 293.242006 256.180645 
L 294.553918 255.141935 
L 295.209875 254.735484 
L 295.865831 253.787097 
L 296.521787 252.296774 
L 297.177743 251.348387 
L 297.833699 250.851613 
L 298.489655 250.580645 
L 301.11348 248.322581 
L 301.769436 247.870968 
L 303.081348 246.741935 
L 303.737304 245.83871 
L 305.049216 244.709677 
L 307.673041 243.03871 
L 308.328997 242.451613 
L 308.984953 242.316129 
L 310.952821 241.277419 
L 312.92069 240.283871 
L 314.232602 239.064516 
L 314.888558 238.296774 
L 316.20047 237.393548 
L 316.856426 237.212903 
L 317.512382 236.896774 
L 318.824295 236.03871 
L 319.480251 235.677419 
L 320.136207 235.587097 
L 321.448119 234.864516 
L 322.104075 234.503226 
L 322.760031 233.825806 
L 323.415987 233.419355 
L 324.071944 233.193548 
L 324.7279 232.741935 
L 327.351724 231.387097 
L 328.00768 230.8 
L 330.631505 229.941935 
L 331.287461 229.490323 
L 331.943417 229.354839 
L 333.255329 228.903226 
L 335.223197 228.135484 
L 337.191066 227.412903 
L 338.502978 227.187097 
L 339.81489 226.058065 
L 341.126803 225.425806 
L 343.094671 224.296774 
L 344.406583 223.935484 
L 345.062539 223.529032 
L 345.718495 223.348387 
L 347.030408 222.490323 
L 347.686364 222.129032 
L 350.966144 221.36129 
L 352.934013 220.232258 
L 353.589969 220.141935 
L 354.245925 219.916129 
L 355.557837 219.645161 
L 357.525705 218.2 
L 359.493574 217.748387 
L 360.14953 217.522581 
L 360.805486 217.025806 
L 364.741223 215.76129 
L 365.397179 215.716129 
L 369.988871 214.090323 
L 370.644828 213.774194 
L 372.612696 213.322581 
L 373.924608 213.006452 
L 374.580564 212.690323 
L 375.23652 212.554839 
L 377.204389 211.651613 
L 379.172257 210.703226 
L 379.828213 210.251613 
L 380.484169 210.070968 
L 382.452038 209.032258 
L 383.76395 208.716129 
L 385.075862 208.03871 
L 386.387774 207.677419 
L 387.04373 207.587097 
L 387.699687 207.135484 
L 388.355643 206.819355 
L 389.011599 206.683871 
L 390.323511 206.141935 
L 390.979467 206.006452 
L 391.635423 205.645161 
L 394.259248 205.23871 
L 395.57116 204.606452 
L 396.227116 204.064516 
L 396.883072 202.935484 
L 398.194984 202.664516 
L 398.85094 202.529032 
L 401.474765 201.174194 
L 402.130721 201.03871 
L 407.37837 198.554839 
L 409.346238 198.148387 
L 410.002194 197.787097 
L 413.937931 196.432258 
L 415.249843 195.619355 
L 415.905799 195.167742 
L 416.561755 194.851613 
L 417.217712 194.76129 
L 417.873668 194.535484 
L 418.529624 194.490323 
L 421.809404 193.632258 
L 422.465361 193.135484 
L 423.777273 192.683871 
L 425.745141 192.051613 
L 426.401097 191.645161 
L 427.057053 191.464516 
L 427.713009 191.012903 
L 428.368966 190.741935 
L 429.024922 190.335484 
L 429.680878 190.064516 
L 430.99279 189.748387 
L 432.960658 188.980645 
L 434.928527 187.490323 
L 435.584483 187.354839 
L 436.896395 186.36129 
L 437.552351 186.225806 
L 438.208307 185.232258 
L 438.864263 184.96129 
L 439.520219 184.464516 
L 440.176176 184.374194 
L 440.832132 183.922581 
L 441.488088 183.606452 
L 442.144044 183.470968 
L 442.8 183.2 
L 443.455956 182.703226 
L 444.111912 182.477419 
L 446.079781 181.167742 
L 448.703605 179.858065 
L 449.359561 179.767742 
L 450.671473 179.180645 
L 451.327429 178.819355 
L 451.983386 177.735484 
L 452.639342 177.148387 
L 453.295298 176.787097 
L 453.951254 176.651613 
L 455.263166 175.83871 
L 455.919122 175.703226 
L 457.231034 175.070968 
L 459.198903 174.258065 
L 460.510815 173.354839 
L 461.822727 172 
L 463.134639 171.187097 
L 463.790596 170.780645 
L 464.446552 170.103226 
L 465.102508 169.651613 
L 466.41442 168.567742 
L 467.070376 168.296774 
L 467.726332 167.574194 
L 468.382288 167.077419 
L 469.694201 166.625806 
L 470.350157 166.083871 
L 471.662069 165.406452 
L 472.318025 165.225806 
L 472.973981 164.774194 
L 473.629937 164.63871 
L 475.597806 163.6 
L 476.253762 163.148387 
L 477.565674 162.606452 
L 478.22163 162.470968 
L 478.877586 162.064516 
L 482.157367 161.025806 
L 482.813323 160.845161 
L 483.469279 160.529032 
L 484.125235 159.941935 
L 486.093103 159.219355 
L 487.405016 158.812903 
L 488.060972 158.316129 
L 490.684796 156.96129 
L 491.340752 156.6 
L 492.652665 154.025806 
L 493.964577 152.490323 
L 494.620533 152.03871 
L 496.588401 151.180645 
L 497.244357 150.954839 
L 497.900313 150.864516 
L 498.55627 150.503226 
L 500.524138 149.916129 
L 503.147962 148.741935 
L 503.803918 148.335484 
L 505.115831 147.883871 
L 509.051567 145.625806 
L 509.707524 144.948387 
L 511.019436 144.225806 
L 511.675392 143.864516 
L 512.331348 143.63871 
L 512.987304 143.187097 
L 514.299216 142.554839 
L 516.267085 141.516129 
L 516.923041 141.335484 
L 517.578997 140.83871 
L 518.234953 140.567742 
L 518.890909 140.432258 
L 520.202821 139.980645 
L 522.17069 139.258065 
L 522.826646 138.76129 
L 524.138558 138.4 
L 525.45047 137.903226 
L 526.106426 137.36129 
L 527.418339 136.954839 
L 528.074295 136.63871 
L 528.730251 136.458065 
L 530.042163 135.554839 
L 531.354075 134.967742 
L 532.665987 133.974194 
L 533.9779 133.522581 
L 534.633856 132.980645 
L 535.289812 132.890323 
L 536.601724 131.941935 
L 537.913636 131.309677 
L 538.569592 131.03871 
L 539.225549 130.36129 
L 543.161285 128.96129 
L 545.129154 128.103226 
L 547.097022 127.516129 
L 548.408934 127.335484 
L 549.06489 127.064516 
L 549.720846 126.974194 
L 551.032759 126.432258 
L 551.688715 126.387097 
L 554.312539 125.43871 
L 556.280408 124.083871 
L 560.216144 122.141935 
L 561.528056 121.329032 
L 562.184013 120.922581 
L 563.495925 120.606452 
L 564.807837 119.703226 
L 567.431661 118.890323 
L 568.087618 118.619355 
L 569.39953 118.303226 
L 572.67931 117.219355 
L 574.647179 116.858065 
L 575.303135 116.677419 
L 575.959091 116.36129 
L 576.615047 116.270968 
L 577.926959 115.729032 
L 578.582915 115.63871 
L 579.238871 115.322581 
L 580.550784 115.051613 
L 581.20674 114.735484 
L 583.174608 114.283871 
L 584.48652 114.012903 
L 588.422257 113.290323 
L 589.734169 113.019355 
L 590.390125 112.883871 
L 591.046082 112.612903 
L 591.702038 112.567742 
L 593.669906 112.025806 
L 594.325862 111.664516 
L 597.605643 110.851613 
L 598.261599 110.716129 
L 599.573511 110.264516 
L 601.541379 109.587097 
L 602.197335 109.496774 
L 604.165204 108.819355 
L 604.82116 108.819355 
L 606.133072 108.367742 
L 606.789028 107.735484 
L 607.444984 107.419355 
L 608.756897 107.012903 
L 611.380721 106.019355 
L 612.036677 105.883871 
L 612.692633 105.477419 
L 613.348589 105.341935 
L 614.004545 104.935484 
L 617.284326 103.987097 
L 617.940282 103.580645 
L 618.596238 103.4 
L 619.252194 102.858065 
L 621.220063 102.496774 
L 622.531975 101.774194 
L 623.187931 101.051613 
L 624.499843 100.780645 
L 629.091536 99.741935 
L 629.747492 99.56129 
L 631.059404 99.516129 
L 631.715361 99.2 
L 634.339185 98.748387 
L 634.995141 98.432258 
L 636.963009 98.16129 
L 639.586834 97.348387 
L 641.554702 96.896774 
L 643.522571 96.4 
L 646.146395 95.587097 
L 646.802351 95.451613 
L 647.458307 95.135484 
L 648.114263 95.045161 
L 648.770219 94.819355 
L 649.426176 94.412903 
L 651.394044 93.690323 
L 652.05 93.193548 
L 653.361912 92.832258 
L 654.017868 92.56129 
L 655.329781 92.2 
L 657.953605 91.025806 
L 659.921473 90.890323 
L 662.545298 90.077419 
L 663.201254 89.670968 
L 664.513166 89.264516 
L 666.481034 88.270968 
L 667.136991 88.135484 
L 667.792947 87.819355 
L 668.448903 87.729032 
L 675.66442 85.335484 
L 678.288245 84.703226 
L 678.944201 84.522581 
L 680.256113 83.890323 
L 680.912069 83.8 
L 682.223981 83.43871 
L 682.879937 82.941935 
L 683.535893 82.625806 
L 684.19185 81.858065 
L 684.847806 81.406452 
L 686.159718 81 
L 686.815674 80.458065 
L 694.031191 77.522581 
L 695.343103 77.206452 
L 696.655016 76.619355 
L 698.622884 75.445161 
L 699.27884 75.309677 
L 699.934796 74.812903 
L 701.246708 74.180645 
L 702.558621 73.367742 
L 704.526489 72.464516 
L 705.182445 72.012903 
L 706.494357 71.516129 
L 707.150313 71.064516 
L 708.462226 70.432258 
L 709.118182 69.980645 
L 710.430094 69.529032 
L 711.08605 69.393548 
L 713.709875 68.219355 
L 716.989655 67.090323 
L 717.645611 67.045161 
L 718.301567 66.864516 
L 718.957524 66.458065 
L 719.61348 66.367742 
L 720.269436 66.096774 
L 722.237304 65.690323 
L 725.517085 64.019355 
L 726.828997 63.296774 
L 727.484953 63.206452 
L 729.452821 62.122581 
L 731.42069 61.4 
L 733.388558 60.541935 
L 736.012382 59.503226 
L 736.668339 59.322581 
L 737.324295 58.916129 
L 737.980251 58.870968 
L 738.636207 58.690323 
L 739.292163 58.23871 
L 739.948119 58.193548 
L 741.260031 57.787097 
L 742.571944 57.154839 
L 743.2279 57.064516 
L 743.883856 56.793548 
L 744.539812 56.658065 
L 746.50768 55.8 
L 747.163636 55.8 
L 747.163636 55.8 
" clip-path="url(#pae71cfabe2)" style="fill: none; stroke: #1f77b4; stroke-width: 1.5; stroke-linecap: square"/>
   </g>
   <g id="line2d_40">
    <path d="M 139.09232 307.8 
L 141.060188 307.709677 
L 143.028056 307.664516 
L 146.963793 307.574194 
L 150.243574 307.43871 
L 152.867398 307.43871 
L 153.523354 307.258065 
L 156.147179 307.167742 
L 158.115047 306.941935 
L 160.082915 306.76129 
L 164.018652 306.580645 
L 164.674608 306.580645 
L 165.330564 306.445161 
L 167.954389 306.354839 
L 169.266301 306.264516 
L 174.51395 306.174194 
L 177.79373 306.03871 
L 185.665204 305.948387 
L 188.944984 305.812903 
L 192.880721 305.722581 
L 195.504545 305.632258 
L 201.40815 305.541935 
L 203.376019 305.496774 
L 205.343887 305.451613 
L 207.311755 305.225806 
L 211.247492 305.180645 
L 212.559404 305.090323 
L 217.151097 305 
L 224.366614 304.593548 
L 228.958307 304.503226 
L 230.270219 304.412903 
L 232.238088 304.322581 
L 236.173824 304.141935 
L 238.797649 304.096774 
L 240.765517 303.916129 
L 251.260815 303.283871 
L 253.884639 303.193548 
L 258.476332 302.967742 
L 260.444201 302.877419 
L 267.003762 302.516129 
L 274.219279 302.425806 
L 276.843103 302.154839 
L 278.155016 302.064516 
L 286.682445 301.387097 
L 290.618182 300.890323 
L 293.242006 300.8 
L 298.489655 300.122581 
L 301.769436 300.032258 
L 310.296865 299.354839 
L 314.232602 298.903226 
L 316.20047 298.858065 
L 317.512382 298.767742 
L 320.136207 298.677419 
L 321.448119 298.587097 
L 324.7279 298.270968 
L 325.383856 298.090323 
L 329.319592 297.909677 
L 332.599373 297.819355 
L 341.126803 297.322581 
L 343.094671 297.232258 
L 351.6221 296.735484 
L 356.213793 296.645161 
L 356.869749 296.509677 
L 362.117398 296.419355 
L 366.709091 296.193548 
L 373.924608 296.103226 
L 378.516301 295.877419 
L 383.76395 295.787097 
L 389.011599 295.516129 
L 393.603292 295.425806 
L 406.066458 294.658065 
L 411.314107 294.567742 
L 428.368966 293.483871 
L 432.304702 293.393548 
L 434.272571 293.348387 
L 436.240439 293.303226 
L 438.208307 293.122581 
L 443.455956 293.032258 
L 444.767868 292.806452 
L 446.079781 292.716129 
L 449.359561 292.580645 
L 450.671473 292.490323 
L 451.983386 292.4 
L 457.886991 292.309677 
L 459.198903 292.174194 
L 461.822727 292.129032 
L 462.478683 291.993548 
L 463.790596 291.903226 
L 464.446552 291.767742 
L 466.41442 291.677419 
L 477.565674 291 
L 479.533542 290.909677 
L 482.813323 290.774194 
L 491.996708 290.683871 
L 496.588401 290.458065 
L 501.83605 290.367742 
L 504.459875 290.277419 
L 507.083699 290.232258 
L 508.395611 290.096774 
L 511.019436 290.006452 
L 517.578997 289.645161 
L 521.514734 289.6 
L 523.482602 289.419355 
L 525.45047 289.374194 
L 530.042163 289.283871 
L 532.665987 289.193548 
L 538.569592 289.103226 
L 541.193417 289.012903 
L 545.129154 288.922581 
L 551.688715 288.56129 
L 554.968495 288.470968 
L 556.280408 288.335484 
L 564.151881 288.245161 
L 566.775705 288.154839 
L 575.959091 288.064516 
L 577.926959 288.019355 
L 581.862696 287.929032 
L 583.830564 287.883871 
L 592.357994 287.793548 
L 593.669906 287.703226 
L 600.885423 287.612903 
L 603.509248 287.522581 
L 611.380721 287.477419 
L 612.692633 287.387097 
L 622.531975 287.341935 
L 624.499843 287.16129 
L 635.651097 287.070968 
L 637.618966 287.025806 
L 654.673824 286.935484 
L 657.297649 286.845161 
L 669.104859 286.754839 
L 671.728683 286.664516 
L 676.320376 286.574194 
L 681.568025 286.303226 
L 684.19185 286.212903 
L 686.815674 286.122581 
L 690.751411 286.032258 
L 692.719279 285.987097 
L 695.343103 285.896774 
L 697.310972 285.851613 
L 700.590752 285.76129 
L 701.902665 285.625806 
L 705.838401 285.535484 
L 713.053918 285.129032 
L 716.333699 285.03871 
L 718.957524 284.948387 
L 723.549216 284.858065 
L 726.173041 284.767742 
L 731.42069 284.677419 
L 733.388558 284.632258 
L 736.668339 284.541935 
L 740.604075 284.36129 
L 745.851724 284.270968 
L 747.163636 284.180645 
L 747.163636 284.180645 
" clip-path="url(#pae71cfabe2)" style="fill: none; stroke: #ff7f0e; stroke-width: 1.5; stroke-linecap: square"/>
   </g>
   <g id="patch_3">
    <path d="M 108 320.4 
L 108 43.2 
" style="fill: none; stroke: #a9a9a9; stroke-width: 0.8; stroke-linejoin: miter; stroke-linecap: square"/>
   </g>
   <g id="patch_4">
    <path d="M 777.6 320.4 
L 777.6 43.2 
" style="fill: none"/>
   </g>
   <g id="patch_5">
    <path d="M 108 320.4 
L 777.6 320.4 
" style="fill: none; stroke: #a9a9a9; stroke-width: 0.8; stroke-linejoin: miter; stroke-linecap: square"/>
   </g>
   <g id="patch_6">
    <path d="M 108 43.2 
L 777.6 43.2 
" style="fill: none"/>
   </g>
   <g id="text_20">
    <!-- get_subscribe history -->
    <g style="fill: #a9a9a9" transform="translate(378.6075 37.2) scale(0.12 -0.12)">
     <defs>
      <path id="DejaVuSans-67" d="M 2906 1791 
Q 2906 2416 2648 2759 
Q 2391 3103 1925 3103 
Q 1463 3103 1205 2759 
Q 947 2416 947 1791 
Q 947 1169 1205 825 
Q 1463 481 1925 481 
Q 2391 481 2648 825 
Q 2906 1169 2906 1791 
z
M 3481 434 
Q 3481 -459 3084 -895 
Q 2688 -1331 1869 -1331 
Q 1566 -1331 1297 -1286 
Q 1028 -1241 775 -1147 
L 775 -588 
Q 1028 -725 1275 -790 
Q 1522 -856 1778 -856 
Q 2344 -856 2625 -561 
Q 2906 -266 2906 331 
L 2906 616 
Q 2728 306 2450 153 
Q 2172 0 1784 0 
Q 1141 0 747 490 
Q 353 981 353 1791 
Q 353 2603 747 3093 
Q 1141 3584 1784 3584 
Q 2172 3584 2450 3431 
Q 2728 3278 2906 2969 
L 2906 3500 
L 3481 3500 
L 3481 434 
z
" transform="scale(0.015625)"/>
      <path id="DejaVuSans-65" d="M 3597 1894 
L 3597 1613 
L 953 1613 
Q 991 1019 1311 708 
Q 1631 397 2203 397 
Q 2534 397 2845 478 
Q 3156 559 3463 722 
L 3463 178 
Q 3153 47 2828 -22 
Q 2503 -91 2169 -91 
Q 1331 -91 842 396 
Q 353 884 353 1716 
Q 353 2575 817 3079 
Q 1281 3584 2069 3584 
Q 2775 3584 3186 3129 
Q 3597 2675 3597 1894 
z
M 3022 2063 
Q 3016 2534 2758 2815 
Q 2500 3097 2075 3097 
Q 1594 3097 1305 2825 
Q 1016 2553 972 2059 
L 3022 2063 
z
" transform="scale(0.015625)"/>
      <path id="DejaVuSans-74" d="M 1172 4494 
L 1172 3500 
L 2356 3500 
L 2356 3053 
L 1172 3053 
L 1172 1153 
Q 1172 725 1289 603 
Q 1406 481 1766 481 
L 2356 481 
L 2356 0 
L 1766 0 
Q 1100 0 847 248 
Q 594 497 594 1153 
L 594 3053 
L 172 3053 
L 172 3500 
L 594 3500 
L 594 4494 
L 1172 4494 
z
" transform="scale(0.015625)"/>
      <path id="DejaVuSans-5f" d="M 3263 -1063 
L 3263 -1509 
L -63 -1509 
L -63 -1063 
L 3263 -1063 
z
" transform="scale(0.015625)"/>
      <path id="DejaVuSans-73" d="M 2834 3397 
L 2834 2853 
Q 2591 2978 2328 3040 
Q 2066 3103 1784 3103 
Q 1356 3103 1142 2972 
Q 928 2841 928 2578 
Q 928 2378 1081 2264 
Q 1234 2150 1697 2047 
L 1894 2003 
Q 2506 1872 2764 1633 
Q 3022 1394 3022 966 
Q 3022 478 2636 193 
Q 2250 -91 1575 -91 
Q 1294 -91 989 -36 
Q 684 19 347 128 
L 347 722 
Q 666 556 975 473 
Q 1284 391 1588 391 
Q 1994 391 2212 530 
Q 2431 669 2431 922 
Q 2431 1156 2273 1281 
Q 2116 1406 1581 1522 
L 1381 1569 
Q 847 1681 609 1914 
Q 372 2147 372 2553 
Q 372 3047 722 3315 
Q 1072 3584 1716 3584 
Q 2034 3584 2315 3537 
Q 2597 3491 2834 3397 
z
" transform="scale(0.015625)"/>
      <path id="DejaVuSans-75" d="M 544 1381 
L 544 3500 
L 1119 3500 
L 1119 1403 
Q 1119 906 1312 657 
Q 1506 409 1894 409 
Q 2359 409 2629 706 
Q 2900 1003 2900 1516 
L 2900 3500 
L 3475 3500 
L 3475 0 
L 2900 0 
L 2900 538 
Q 2691 219 2414 64 
Q 2138 -91 1772 -91 
Q 1169 -91 856 284 
Q 544 659 544 1381 
z
M 1991 3584 
L 1991 3584 
z
" transform="scale(0.015625)"/>
      <path id="DejaVuSans-62" d="M 3116 1747 
Q 3116 2381 2855 2742 
Q 2594 3103 2138 3103 
Q 1681 3103 1420 2742 
Q 1159 2381 1159 1747 
Q 1159 1113 1420 752 
Q 1681 391 2138 391 
Q 2594 391 2855 752 
Q 3116 1113 3116 1747 
z
M 1159 2969 
Q 1341 3281 1617 3432 
Q 1894 3584 2278 3584 
Q 2916 3584 3314 3078 
Q 3713 2572 3713 1747 
Q 3713 922 3314 415 
Q 2916 -91 2278 -91 
Q 1894 -91 1617 61 
Q 1341 213 1159 525 
L 1159 0 
L 581 0 
L 581 4863 
L 1159 4863 
L 1159 2969 
z
" transform="scale(0.015625)"/>
      <path id="DejaVuSans-63" d="M 3122 3366 
L 3122 2828 
Q 2878 2963 2633 3030 
Q 2388 3097 2138 3097 
Q 1578 3097 1268 2742 
Q 959 2388 959 1747 
Q 959 1106 1268 751 
Q 1578 397 2138 397 
Q 2388 397 2633 464 
Q 2878 531 3122 666 
L 3122 134 
Q 2881 22 2623 -34 
Q 2366 -91 2075 -91 
Q 1284 -91 818 406 
Q 353 903 353 1747 
Q 353 2603 823 3093 
Q 1294 3584 2113 3584 
Q 2378 3584 2631 3529 
Q 2884 3475 3122 3366 
z
" transform="scale(0.015625)"/>
      <path id="DejaVuSans-72" d="M 2631 2963 
Q 2534 3019 2420 3045 
Q 2306 3072 2169 3072 
Q 1681 3072 1420 2755 
Q 1159 2438 1159 1844 
L 1159 0 
L 581 0 
L 581 3500 
L 1159 3500 
L 1159 2956 
Q 1341 3275 1631 3429 
Q 1922 3584 2338 3584 
Q 2397 3584 2469 3576 
Q 2541 3569 2628 3553 
L 2631 2963 
z
" transform="scale(0.015625)"/>
      <path id="DejaVuSans-69" d="M 603 3500 
L 1178 3500 
L 1178 0 
L 603 0 
L 603 3500 
z
M 603 4863 
L 1178 4863 
L 1178 4134 
L 603 4134 
L 603 4863 
z
" transform="scale(0.015625)"/>
      <path id="DejaVuSans-20" transform="scale(0.015625)"/>
      <path id="DejaVuSans-68" d="M 3513 2113 
L 3513 0 
L 2938 0 
L 2938 2094 
Q 2938 2591 2744 2837 
Q 2550 3084 2163 3084 
Q 1697 3084 1428 2787 
Q 1159 2491 1159 1978 
L 1159 0 
L 581 0 
L 581 4863 
L 1159 4863 
L 1159 2956 
Q 1366 3272 1645 3428 
Q 1925 3584 2291 3584 
Q 2894 3584 3203 3211 
Q 3513 2838 3513 2113 
z
" transform="scale(0.015625)"/>
      <path id="DejaVuSans-6f" d="M 1959 3097 
Q 1497 3097 1228 2736 
Q 959 2375 959 1747 
Q 959 1119 1226 758 
Q 1494 397 1959 397 
Q 2419 397 2687 759 
Q 2956 1122 2956 1747 
Q 2956 2369 2687 2733 
Q 2419 3097 1959 3097 
z
M 1959 3584 
Q 2709 3584 3137 3096 
Q 3566 2609 3566 1747 
Q 3566 888 3137 398 
Q 2709 -91 1959 -91 
Q 1206 -91 779 398 
Q 353 888 353 1747 
Q 353 2609 779 3096 
Q 1206 3584 1959 3584 
z
" transform="scale(0.015625)"/>
      <path id="DejaVuSans-79" d="M 2059 -325 
Q 1816 -950 1584 -1140 
Q 1353 -1331 966 -1331 
L 506 -1331 
L 506 -850 
L 844 -850 
Q 1081 -850 1212 -737 
Q 1344 -625 1503 -206 
L 1606 56 
L 191 3500 
L 800 3500 
L 1894 763 
L 2988 3500 
L 3597 3500 
L 2059 -325 
z
" transform="scale(0.015625)"/>
     </defs>
     <use xlink:href="#DejaVuSans-67"/>
     <use xlink:href="#DejaVuSans-65" x="63.476562"/>
     <use xlink:href="#DejaVuSans-74" x="125"/>
     <use xlink:href="#DejaVuSans-5f" x="164.208984"/>
     <use xlink:href="#DejaVuSans-73" x="214.208984"/>
     <use xlink:href="#DejaVuSans-75" x="266.308594"/>
     <use xlink:href="#DejaVuSans-62" x="329.6875"/>
     <use xlink:href="#DejaVuSans-73" x="393.164062"/>
     <use xlink:href="#DejaVuSans-63" x="445.263672"/>
     <use xlink:href="#DejaVuSans-72" x="500.244141"/>
     <use xlink:href="#DejaVuSans-69" x="541.357422"/>
     <use xlink:href="#DejaVuSans-62" x="569.140625"/>
     <use xlink:href="#DejaVuSans-65" x="632.617188"/>
     <use xlink:href="#DejaVuSans-20" x="694.140625"/>
     <use xlink:href="#DejaVuSans-68" x="725.927734"/>
     <use xlink:href="#DejaVuSans-69" x="789.306641"/>
     <use xlink:href="#DejaVuSans-73" x="817.089844"/>
     <use xlink:href="#DejaVuSans-74" x="869.189453"/>
     <use xlink:href="#DejaVuSans-6f" x="908.398438"/>
     <use xlink:href="#DejaVuSans-72" x="969.580078"/>
     <use xlink:href="#DejaVuSans-79" x="1010.693359"/>
    </g>
   </g>
   <g id="legend_1">
    <g id="line2d_41">
     <path d="M 815.08 328.498438 
L 825.08 328.498438 
L 835.08 328.498438 
" style="fill: none; stroke: #1f77b4; stroke-width: 1.5; stroke-linecap: square"/>
    </g>
    <g id="text_21">
     <!-- star -->
     <g style="fill: #a9a9a9" transform="translate(843.08 331.998438) scale(0.1 -0.1)">
      <defs>
       <path id="DejaVuSans-61" d="M 2194 1759 
Q 1497 1759 1228 1600 
Q 959 1441 959 1056 
Q 959 750 1161 570 
Q 1363 391 1709 391 
Q 2188 391 2477 730 
Q 2766 1069 2766 1631 
L 2766 1759 
L 2194 1759 
z
M 3341 1997 
L 3341 0 
L 2766 0 
L 2766 531 
Q 2569 213 2275 61 
Q 1981 -91 1556 -91 
Q 1019 -91 701 211 
Q 384 513 384 1019 
Q 384 1609 779 1909 
Q 1175 2209 1959 2209 
L 2766 2209 
L 2766 2266 
Q 2766 2663 2505 2880 
Q 2244 3097 1772 3097 
Q 1472 3097 1187 3025 
Q 903 2953 641 2809 
L 641 3341 
Q 956 3463 1253 3523 
Q 1550 3584 1831 3584 
Q 2591 3584 2966 3190 
Q 3341 2797 3341 1997 
z
" transform="scale(0.015625)"/>
      </defs>
      <use xlink:href="#DejaVuSans-73"/>
      <use xlink:href="#DejaVuSans-74" x="52.099609"/>
      <use xlink:href="#DejaVuSans-61" x="91.308594"/>
      <use xlink:href="#DejaVuSans-72" x="152.587891"/>
     </g>
    </g>
    <g id="line2d_42">
     <path d="M 815.08 343.176562 
L 825.08 343.176562 
L 835.08 343.176562 
" style="fill: none; stroke: #ff7f0e; stroke-width: 1.5; stroke-linecap: square"/>
    </g>
    <g id="text_22">
     <!-- fork -->
     <g style="fill: #a9a9a9" transform="translate(843.08 346.676562) scale(0.1 -0.1)">
      <defs>
       <path id="DejaVuSans-66" d="M 2375 4863 
L 2375 4384 
L 1825 4384 
Q 1516 4384 1395 4259 
Q 1275 4134 1275 3809 
L 1275 3500 
L 2222 3500 
L 2222 3053 
L 1275 3053 
L 1275 0 
L 697 0 
L 697 3053 
L 147 3053 
L 147 3500 
L 697 3500 
L 697 3744 
Q 697 4328 969 4595 
Q 1241 4863 1831 4863 
L 2375 4863 
z
" transform="scale(0.015625)"/>
       <path id="DejaVuSans-6b" d="M 581 4863 
L 1159 4863 
L 1159 1991 
L 2875 3500 
L 3609 3500 
L 1753 1863 
L 3688 0 
L 2938 0 
L 1159 1709 
L 1159 0 
L 581 0 
L 581 4863 
z
" transform="scale(0.015625)"/>
      </defs>
      <use xlink:href="#DejaVuSans-66"/>
      <use xlink:href="#DejaVuSans-6f" x="35.205078"/>
      <use xlink:href="#DejaVuSans-72" x="96.386719"/>
      <use xlink:href="#DejaVuSans-6b" x="137.5"/>
     </g>
    </g>
   </g>
  </g>
 </g>
 <defs>
  <clipPath id="pae71cfabe2">
   <rect x="108" y="43.2" width="669.6" height="277.2"/>
  </clipPath>
 </defs>
</svg>
