<?xml version="1.0" encoding="utf-8" standalone="no"?>
<!DOCTYPE svg PUBLIC "-//W3C//DTD SVG 1.1//EN"
  "http://www.w3.org/Graphics/SVG/1.1/DTD/svg11.dtd">
<svg xmlns:xlink="http://www.w3.org/1999/xlink" width="864pt" height="360pt" viewBox="0 0 864 360" xmlns="http://www.w3.org/2000/svg" version="1.1">
 <metadata>
  <rdf:RDF xmlns:dc="http://purl.org/dc/elements/1.1/" xmlns:cc="http://creativecommons.org/ns#" xmlns:rdf="http://www.w3.org/1999/02/22-rdf-syntax-ns#">
   <cc:Work>
    <dc:type rdf:resource="http://purl.org/dc/dcmitype/StillImage"/>
    <dc:date>2024-02-08T08:10:45.374507</dc:date>
    <dc:format>image/svg+xml</dc:format>
    <dc:creator>
     <cc:Agent>
      <dc:title>Matplotlib v3.8.2, https://matplotlib.org/</dc:title>
     </cc:Agent>
    </dc:creator>
   </cc:Work>
  </rdf:RDF>
 </metadata>
 <defs>
  <style type="text/css">*{stroke-linejoin: round; stroke-linecap: butt}</style>
 </defs>
 <g id="figure_1">
  <g id="patch_1">
   <path d="M 0 360 
L 864 360 
L 864 0 
L 0 0 
L 0 360 
z
" style="fill: none; opacity: 0"/>
  </g>
  <g id="axes_1">
   <g id="patch_2">
    <path d="M 108 320.4 
L 777.6 320.4 
L 777.6 43.2 
L 108 43.2 
L 108 320.4 
z
" style="fill: none; opacity: 0"/>
   </g>
   <g id="matplotlib.axis_1">
    <g id="xtick_1">
     <g id="line2d_1">
      <path d="M 123.365613 320.4 
L 123.365613 43.2 
" clip-path="url(#pb3341d9510)" style="fill: none; stroke-dasharray: 5.12,1.28,0.8,1.28; stroke-dashoffset: 0; stroke: #b0b0b0; stroke-width: 0.8"/>
     </g>
     <g id="line2d_2">
      <defs>
       <path id="mb838be2171" d="M 0 0 
L 0 3.5 
" style="stroke: #a9a9a9; stroke-width: 0.8"/>
      </defs>
      <g>
       <use xlink:href="#mb838be2171" x="123.365613" y="320.4" style="fill: #a9a9a9; stroke: #a9a9a9; stroke-width: 0.8"/>
      </g>
     </g>
     <g id="text_1">
      <!-- 2021-07 -->
      <g style="fill: #a9a9a9" transform="translate(102.474207 334.998438) scale(0.1 -0.1)">
       <defs>
        <path id="DejaVuSans-32" d="M 1228 531 
L 3431 531 
L 3431 0 
L 469 0 
L 469 531 
Q 828 903 1448 1529 
Q 2069 2156 2228 2338 
Q 2531 2678 2651 2914 
Q 2772 3150 2772 3378 
Q 2772 3750 2511 3984 
Q 2250 4219 1831 4219 
Q 1534 4219 1204 4116 
Q 875 4013 500 3803 
L 500 4441 
Q 881 4594 1212 4672 
Q 1544 4750 1819 4750 
Q 2544 4750 2975 4387 
Q 3406 4025 3406 3419 
Q 3406 3131 3298 2873 
Q 3191 2616 2906 2266 
Q 2828 2175 2409 1742 
Q 1991 1309 1228 531 
z
" transform="scale(0.015625)"/>
        <path id="DejaVuSans-30" d="M 2034 4250 
Q 1547 4250 1301 3770 
Q 1056 3291 1056 2328 
Q 1056 1369 1301 889 
Q 1547 409 2034 409 
Q 2525 409 2770 889 
Q 3016 1369 3016 2328 
Q 3016 3291 2770 3770 
Q 2525 4250 2034 4250 
z
M 2034 4750 
Q 2819 4750 3233 4129 
Q 3647 3509 3647 2328 
Q 3647 1150 3233 529 
Q 2819 -91 2034 -91 
Q 1250 -91 836 529 
Q 422 1150 422 2328 
Q 422 3509 836 4129 
Q 1250 4750 2034 4750 
z
" transform="scale(0.015625)"/>
        <path id="DejaVuSans-31" d="M 794 531 
L 1825 531 
L 1825 4091 
L 703 3866 
L 703 4441 
L 1819 4666 
L 2450 4666 
L 2450 531 
L 3481 531 
L 3481 0 
L 794 0 
L 794 531 
z
" transform="scale(0.015625)"/>
        <path id="DejaVuSans-2d" d="M 313 2009 
L 1997 2009 
L 1997 1497 
L 313 1497 
L 313 2009 
z
" transform="scale(0.015625)"/>
        <path id="DejaVuSans-37" d="M 525 4666 
L 3525 4666 
L 3525 4397 
L 1831 0 
L 1172 0 
L 2766 4134 
L 525 4134 
L 525 4666 
z
" transform="scale(0.015625)"/>
       </defs>
       <use xlink:href="#DejaVuSans-32"/>
       <use xlink:href="#DejaVuSans-30" x="63.623047"/>
       <use xlink:href="#DejaVuSans-32" x="127.246094"/>
       <use xlink:href="#DejaVuSans-31" x="190.869141"/>
       <use xlink:href="#DejaVuSans-2d" x="254.492188"/>
       <use xlink:href="#DejaVuSans-30" x="290.576172"/>
       <use xlink:href="#DejaVuSans-37" x="354.199219"/>
      </g>
     </g>
    </g>
    <g id="xtick_2">
     <g id="line2d_3">
      <path d="M 183.648615 320.4 
L 183.648615 43.2 
" clip-path="url(#pb3341d9510)" style="fill: none; stroke-dasharray: 5.12,1.28,0.8,1.28; stroke-dashoffset: 0; stroke: #b0b0b0; stroke-width: 0.8"/>
     </g>
     <g id="line2d_4">
      <g>
       <use xlink:href="#mb838be2171" x="183.648615" y="320.4" style="fill: #a9a9a9; stroke: #a9a9a9; stroke-width: 0.8"/>
      </g>
     </g>
     <g id="text_2">
      <!-- 2021-10 -->
      <g style="fill: #a9a9a9" transform="translate(162.757209 334.998438) scale(0.1 -0.1)">
       <use xlink:href="#DejaVuSans-32"/>
       <use xlink:href="#DejaVuSans-30" x="63.623047"/>
       <use xlink:href="#DejaVuSans-32" x="127.246094"/>
       <use xlink:href="#DejaVuSans-31" x="190.869141"/>
       <use xlink:href="#DejaVuSans-2d" x="254.492188"/>
       <use xlink:href="#DejaVuSans-31" x="290.576172"/>
       <use xlink:href="#DejaVuSans-30" x="354.199219"/>
      </g>
     </g>
    </g>
    <g id="xtick_3">
     <g id="line2d_5">
      <path d="M 243.931618 320.4 
L 243.931618 43.2 
" clip-path="url(#pb3341d9510)" style="fill: none; stroke-dasharray: 5.12,1.28,0.8,1.28; stroke-dashoffset: 0; stroke: #b0b0b0; stroke-width: 0.8"/>
     </g>
     <g id="line2d_6">
      <g>
       <use xlink:href="#mb838be2171" x="243.931618" y="320.4" style="fill: #a9a9a9; stroke: #a9a9a9; stroke-width: 0.8"/>
      </g>
     </g>
     <g id="text_3">
      <!-- 2022-01 -->
      <g style="fill: #a9a9a9" transform="translate(223.040211 334.998438) scale(0.1 -0.1)">
       <use xlink:href="#DejaVuSans-32"/>
       <use xlink:href="#DejaVuSans-30" x="63.623047"/>
       <use xlink:href="#DejaVuSans-32" x="127.246094"/>
       <use xlink:href="#DejaVuSans-32" x="190.869141"/>
       <use xlink:href="#DejaVuSans-2d" x="254.492188"/>
       <use xlink:href="#DejaVuSans-30" x="290.576172"/>
       <use xlink:href="#DejaVuSans-31" x="354.199219"/>
      </g>
     </g>
    </g>
    <g id="xtick_4">
     <g id="line2d_7">
      <path d="M 302.90412 320.4 
L 302.90412 43.2 
" clip-path="url(#pb3341d9510)" style="fill: none; stroke-dasharray: 5.12,1.28,0.8,1.28; stroke-dashoffset: 0; stroke: #b0b0b0; stroke-width: 0.8"/>
     </g>
     <g id="line2d_8">
      <g>
       <use xlink:href="#mb838be2171" x="302.90412" y="320.4" style="fill: #a9a9a9; stroke: #a9a9a9; stroke-width: 0.8"/>
      </g>
     </g>
     <g id="text_4">
      <!-- 2022-04 -->
      <g style="fill: #a9a9a9" transform="translate(282.012714 334.998438) scale(0.1 -0.1)">
       <defs>
        <path id="DejaVuSans-34" d="M 2419 4116 
L 825 1625 
L 2419 1625 
L 2419 4116 
z
M 2253 4666 
L 3047 4666 
L 3047 1625 
L 3713 1625 
L 3713 1100 
L 3047 1100 
L 3047 0 
L 2419 0 
L 2419 1100 
L 313 1100 
L 313 1709 
L 2253 4666 
z
" transform="scale(0.015625)"/>
       </defs>
       <use xlink:href="#DejaVuSans-32"/>
       <use xlink:href="#DejaVuSans-30" x="63.623047"/>
       <use xlink:href="#DejaVuSans-32" x="127.246094"/>
       <use xlink:href="#DejaVuSans-32" x="190.869141"/>
       <use xlink:href="#DejaVuSans-2d" x="254.492188"/>
       <use xlink:href="#DejaVuSans-30" x="290.576172"/>
       <use xlink:href="#DejaVuSans-34" x="354.199219"/>
      </g>
     </g>
    </g>
    <g id="xtick_5">
     <g id="line2d_9">
      <path d="M 362.531872 320.4 
L 362.531872 43.2 
" clip-path="url(#pb3341d9510)" style="fill: none; stroke-dasharray: 5.12,1.28,0.8,1.28; stroke-dashoffset: 0; stroke: #b0b0b0; stroke-width: 0.8"/>
     </g>
     <g id="line2d_10">
      <g>
       <use xlink:href="#mb838be2171" x="362.531872" y="320.4" style="fill: #a9a9a9; stroke: #a9a9a9; stroke-width: 0.8"/>
      </g>
     </g>
     <g id="text_5">
      <!-- 2022-07 -->
      <g style="fill: #a9a9a9" transform="translate(341.640466 334.998438) scale(0.1 -0.1)">
       <use xlink:href="#DejaVuSans-32"/>
       <use xlink:href="#DejaVuSans-30" x="63.623047"/>
       <use xlink:href="#DejaVuSans-32" x="127.246094"/>
       <use xlink:href="#DejaVuSans-32" x="190.869141"/>
       <use xlink:href="#DejaVuSans-2d" x="254.492188"/>
       <use xlink:href="#DejaVuSans-30" x="290.576172"/>
       <use xlink:href="#DejaVuSans-37" x="354.199219"/>
      </g>
     </g>
    </g>
    <g id="xtick_6">
     <g id="line2d_11">
      <path d="M 422.814874 320.4 
L 422.814874 43.2 
" clip-path="url(#pb3341d9510)" style="fill: none; stroke-dasharray: 5.12,1.28,0.8,1.28; stroke-dashoffset: 0; stroke: #b0b0b0; stroke-width: 0.8"/>
     </g>
     <g id="line2d_12">
      <g>
       <use xlink:href="#mb838be2171" x="422.814874" y="320.4" style="fill: #a9a9a9; stroke: #a9a9a9; stroke-width: 0.8"/>
      </g>
     </g>
     <g id="text_6">
      <!-- 2022-10 -->
      <g style="fill: #a9a9a9" transform="translate(401.923468 334.998438) scale(0.1 -0.1)">
       <use xlink:href="#DejaVuSans-32"/>
       <use xlink:href="#DejaVuSans-30" x="63.623047"/>
       <use xlink:href="#DejaVuSans-32" x="127.246094"/>
       <use xlink:href="#DejaVuSans-32" x="190.869141"/>
       <use xlink:href="#DejaVuSans-2d" x="254.492188"/>
       <use xlink:href="#DejaVuSans-31" x="290.576172"/>
       <use xlink:href="#DejaVuSans-30" x="354.199219"/>
      </g>
     </g>
    </g>
    <g id="xtick_7">
     <g id="line2d_13">
      <path d="M 483.097877 320.4 
L 483.097877 43.2 
" clip-path="url(#pb3341d9510)" style="fill: none; stroke-dasharray: 5.12,1.28,0.8,1.28; stroke-dashoffset: 0; stroke: #b0b0b0; stroke-width: 0.8"/>
     </g>
     <g id="line2d_14">
      <g>
       <use xlink:href="#mb838be2171" x="483.097877" y="320.4" style="fill: #a9a9a9; stroke: #a9a9a9; stroke-width: 0.8"/>
      </g>
     </g>
     <g id="text_7">
      <!-- 2023-01 -->
      <g style="fill: #a9a9a9" transform="translate(462.20647 334.998438) scale(0.1 -0.1)">
       <defs>
        <path id="DejaVuSans-33" d="M 2597 2516 
Q 3050 2419 3304 2112 
Q 3559 1806 3559 1356 
Q 3559 666 3084 287 
Q 2609 -91 1734 -91 
Q 1441 -91 1130 -33 
Q 819 25 488 141 
L 488 750 
Q 750 597 1062 519 
Q 1375 441 1716 441 
Q 2309 441 2620 675 
Q 2931 909 2931 1356 
Q 2931 1769 2642 2001 
Q 2353 2234 1838 2234 
L 1294 2234 
L 1294 2753 
L 1863 2753 
Q 2328 2753 2575 2939 
Q 2822 3125 2822 3475 
Q 2822 3834 2567 4026 
Q 2313 4219 1838 4219 
Q 1578 4219 1281 4162 
Q 984 4106 628 3988 
L 628 4550 
Q 988 4650 1302 4700 
Q 1616 4750 1894 4750 
Q 2613 4750 3031 4423 
Q 3450 4097 3450 3541 
Q 3450 3153 3228 2886 
Q 3006 2619 2597 2516 
z
" transform="scale(0.015625)"/>
       </defs>
       <use xlink:href="#DejaVuSans-32"/>
       <use xlink:href="#DejaVuSans-30" x="63.623047"/>
       <use xlink:href="#DejaVuSans-32" x="127.246094"/>
       <use xlink:href="#DejaVuSans-33" x="190.869141"/>
       <use xlink:href="#DejaVuSans-2d" x="254.492188"/>
       <use xlink:href="#DejaVuSans-30" x="290.576172"/>
       <use xlink:href="#DejaVuSans-31" x="354.199219"/>
      </g>
     </g>
    </g>
    <g id="xtick_8">
     <g id="line2d_15">
      <path d="M 542.070379 320.4 
L 542.070379 43.2 
" clip-path="url(#pb3341d9510)" style="fill: none; stroke-dasharray: 5.12,1.28,0.8,1.28; stroke-dashoffset: 0; stroke: #b0b0b0; stroke-width: 0.8"/>
     </g>
     <g id="line2d_16">
      <g>
       <use xlink:href="#mb838be2171" x="542.070379" y="320.4" style="fill: #a9a9a9; stroke: #a9a9a9; stroke-width: 0.8"/>
      </g>
     </g>
     <g id="text_8">
      <!-- 2023-04 -->
      <g style="fill: #a9a9a9" transform="translate(521.178972 334.998438) scale(0.1 -0.1)">
       <use xlink:href="#DejaVuSans-32"/>
       <use xlink:href="#DejaVuSans-30" x="63.623047"/>
       <use xlink:href="#DejaVuSans-32" x="127.246094"/>
       <use xlink:href="#DejaVuSans-33" x="190.869141"/>
       <use xlink:href="#DejaVuSans-2d" x="254.492188"/>
       <use xlink:href="#DejaVuSans-30" x="290.576172"/>
       <use xlink:href="#DejaVuSans-34" x="354.199219"/>
      </g>
     </g>
    </g>
    <g id="xtick_9">
     <g id="line2d_17">
      <path d="M 601.698131 320.4 
L 601.698131 43.2 
" clip-path="url(#pb3341d9510)" style="fill: none; stroke-dasharray: 5.12,1.28,0.8,1.28; stroke-dashoffset: 0; stroke: #b0b0b0; stroke-width: 0.8"/>
     </g>
     <g id="line2d_18">
      <g>
       <use xlink:href="#mb838be2171" x="601.698131" y="320.4" style="fill: #a9a9a9; stroke: #a9a9a9; stroke-width: 0.8"/>
      </g>
     </g>
     <g id="text_9">
      <!-- 2023-07 -->
      <g style="fill: #a9a9a9" transform="translate(580.806725 334.998438) scale(0.1 -0.1)">
       <use xlink:href="#DejaVuSans-32"/>
       <use xlink:href="#DejaVuSans-30" x="63.623047"/>
       <use xlink:href="#DejaVuSans-32" x="127.246094"/>
       <use xlink:href="#DejaVuSans-33" x="190.869141"/>
       <use xlink:href="#DejaVuSans-2d" x="254.492188"/>
       <use xlink:href="#DejaVuSans-30" x="290.576172"/>
       <use xlink:href="#DejaVuSans-37" x="354.199219"/>
      </g>
     </g>
    </g>
    <g id="xtick_10">
     <g id="line2d_19">
      <path d="M 661.981133 320.4 
L 661.981133 43.2 
" clip-path="url(#pb3341d9510)" style="fill: none; stroke-dasharray: 5.12,1.28,0.8,1.28; stroke-dashoffset: 0; stroke: #b0b0b0; stroke-width: 0.8"/>
     </g>
     <g id="line2d_20">
      <g>
       <use xlink:href="#mb838be2171" x="661.981133" y="320.4" style="fill: #a9a9a9; stroke: #a9a9a9; stroke-width: 0.8"/>
      </g>
     </g>
     <g id="text_10">
      <!-- 2023-10 -->
      <g style="fill: #a9a9a9" transform="translate(641.089727 334.998438) scale(0.1 -0.1)">
       <use xlink:href="#DejaVuSans-32"/>
       <use xlink:href="#DejaVuSans-30" x="63.623047"/>
       <use xlink:href="#DejaVuSans-32" x="127.246094"/>
       <use xlink:href="#DejaVuSans-33" x="190.869141"/>
       <use xlink:href="#DejaVuSans-2d" x="254.492188"/>
       <use xlink:href="#DejaVuSans-31" x="290.576172"/>
       <use xlink:href="#DejaVuSans-30" x="354.199219"/>
      </g>
     </g>
    </g>
    <g id="xtick_11">
     <g id="line2d_21">
      <path d="M 722.264135 320.4 
L 722.264135 43.2 
" clip-path="url(#pb3341d9510)" style="fill: none; stroke-dasharray: 5.12,1.28,0.8,1.28; stroke-dashoffset: 0; stroke: #b0b0b0; stroke-width: 0.8"/>
     </g>
     <g id="line2d_22">
      <g>
       <use xlink:href="#mb838be2171" x="722.264135" y="320.4" style="fill: #a9a9a9; stroke: #a9a9a9; stroke-width: 0.8"/>
      </g>
     </g>
     <g id="text_11">
      <!-- 2024-01 -->
      <g style="fill: #a9a9a9" transform="translate(701.372729 334.998438) scale(0.1 -0.1)">
       <use xlink:href="#DejaVuSans-32"/>
       <use xlink:href="#DejaVuSans-30" x="63.623047"/>
       <use xlink:href="#DejaVuSans-32" x="127.246094"/>
       <use xlink:href="#DejaVuSans-34" x="190.869141"/>
       <use xlink:href="#DejaVuSans-2d" x="254.492188"/>
       <use xlink:href="#DejaVuSans-30" x="290.576172"/>
       <use xlink:href="#DejaVuSans-31" x="354.199219"/>
      </g>
     </g>
    </g>
   </g>
   <g id="matplotlib.axis_2">
    <g id="ytick_1">
     <g id="line2d_23">
      <path d="M 108 307.845129 
L 777.6 307.845129 
" clip-path="url(#pb3341d9510)" style="fill: none; stroke-dasharray: 5.12,1.28,0.8,1.28; stroke-dashoffset: 0; stroke: #b0b0b0; stroke-width: 0.8"/>
     </g>
     <g id="line2d_24">
      <defs>
       <path id="mb4d8c87f75" d="M 0 0 
L -3.5 0 
" style="stroke: #a9a9a9; stroke-width: 0.8"/>
      </defs>
      <g>
       <use xlink:href="#mb4d8c87f75" x="108" y="307.845129" style="fill: #a9a9a9; stroke: #a9a9a9; stroke-width: 0.8"/>
      </g>
     </g>
     <g id="text_12">
      <!-- 0 -->
      <g style="fill: #a9a9a9" transform="translate(94.6375 311.644348) scale(0.1 -0.1)">
       <use xlink:href="#DejaVuSans-30"/>
      </g>
     </g>
    </g>
    <g id="ytick_2">
     <g id="line2d_25">
      <path d="M 108 271.741977 
L 777.6 271.741977 
" clip-path="url(#pb3341d9510)" style="fill: none; stroke-dasharray: 5.12,1.28,0.8,1.28; stroke-dashoffset: 0; stroke: #b0b0b0; stroke-width: 0.8"/>
     </g>
     <g id="line2d_26">
      <g>
       <use xlink:href="#mb4d8c87f75" x="108" y="271.741977" style="fill: #a9a9a9; stroke: #a9a9a9; stroke-width: 0.8"/>
      </g>
     </g>
     <g id="text_13">
      <!-- 800 -->
      <g style="fill: #a9a9a9" transform="translate(81.9125 275.541196) scale(0.1 -0.1)">
       <defs>
        <path id="DejaVuSans-38" d="M 2034 2216 
Q 1584 2216 1326 1975 
Q 1069 1734 1069 1313 
Q 1069 891 1326 650 
Q 1584 409 2034 409 
Q 2484 409 2743 651 
Q 3003 894 3003 1313 
Q 3003 1734 2745 1975 
Q 2488 2216 2034 2216 
z
M 1403 2484 
Q 997 2584 770 2862 
Q 544 3141 544 3541 
Q 544 4100 942 4425 
Q 1341 4750 2034 4750 
Q 2731 4750 3128 4425 
Q 3525 4100 3525 3541 
Q 3525 3141 3298 2862 
Q 3072 2584 2669 2484 
Q 3125 2378 3379 2068 
Q 3634 1759 3634 1313 
Q 3634 634 3220 271 
Q 2806 -91 2034 -91 
Q 1263 -91 848 271 
Q 434 634 434 1313 
Q 434 1759 690 2068 
Q 947 2378 1403 2484 
z
M 1172 3481 
Q 1172 3119 1398 2916 
Q 1625 2713 2034 2713 
Q 2441 2713 2670 2916 
Q 2900 3119 2900 3481 
Q 2900 3844 2670 4047 
Q 2441 4250 2034 4250 
Q 1625 4250 1398 4047 
Q 1172 3844 1172 3481 
z
" transform="scale(0.015625)"/>
       </defs>
       <use xlink:href="#DejaVuSans-38"/>
       <use xlink:href="#DejaVuSans-30" x="63.623047"/>
       <use xlink:href="#DejaVuSans-30" x="127.246094"/>
      </g>
     </g>
    </g>
    <g id="ytick_3">
     <g id="line2d_27">
      <path d="M 108 235.638825 
L 777.6 235.638825 
" clip-path="url(#pb3341d9510)" style="fill: none; stroke-dasharray: 5.12,1.28,0.8,1.28; stroke-dashoffset: 0; stroke: #b0b0b0; stroke-width: 0.8"/>
     </g>
     <g id="line2d_28">
      <g>
       <use xlink:href="#mb4d8c87f75" x="108" y="235.638825" style="fill: #a9a9a9; stroke: #a9a9a9; stroke-width: 0.8"/>
      </g>
     </g>
     <g id="text_14">
      <!-- 1600 -->
      <g style="fill: #a9a9a9" transform="translate(75.55 239.438044) scale(0.1 -0.1)">
       <defs>
        <path id="DejaVuSans-36" d="M 2113 2584 
Q 1688 2584 1439 2293 
Q 1191 2003 1191 1497 
Q 1191 994 1439 701 
Q 1688 409 2113 409 
Q 2538 409 2786 701 
Q 3034 994 3034 1497 
Q 3034 2003 2786 2293 
Q 2538 2584 2113 2584 
z
M 3366 4563 
L 3366 3988 
Q 3128 4100 2886 4159 
Q 2644 4219 2406 4219 
Q 1781 4219 1451 3797 
Q 1122 3375 1075 2522 
Q 1259 2794 1537 2939 
Q 1816 3084 2150 3084 
Q 2853 3084 3261 2657 
Q 3669 2231 3669 1497 
Q 3669 778 3244 343 
Q 2819 -91 2113 -91 
Q 1303 -91 875 529 
Q 447 1150 447 2328 
Q 447 3434 972 4092 
Q 1497 4750 2381 4750 
Q 2619 4750 2861 4703 
Q 3103 4656 3366 4563 
z
" transform="scale(0.015625)"/>
       </defs>
       <use xlink:href="#DejaVuSans-31"/>
       <use xlink:href="#DejaVuSans-36" x="63.623047"/>
       <use xlink:href="#DejaVuSans-30" x="127.246094"/>
       <use xlink:href="#DejaVuSans-30" x="190.869141"/>
      </g>
     </g>
    </g>
    <g id="ytick_4">
     <g id="line2d_29">
      <path d="M 108 199.535673 
L 777.6 199.535673 
" clip-path="url(#pb3341d9510)" style="fill: none; stroke-dasharray: 5.12,1.28,0.8,1.28; stroke-dashoffset: 0; stroke: #b0b0b0; stroke-width: 0.8"/>
     </g>
     <g id="line2d_30">
      <g>
       <use xlink:href="#mb4d8c87f75" x="108" y="199.535673" style="fill: #a9a9a9; stroke: #a9a9a9; stroke-width: 0.8"/>
      </g>
     </g>
     <g id="text_15">
      <!-- 2400 -->
      <g style="fill: #a9a9a9" transform="translate(75.55 203.334892) scale(0.1 -0.1)">
       <use xlink:href="#DejaVuSans-32"/>
       <use xlink:href="#DejaVuSans-34" x="63.623047"/>
       <use xlink:href="#DejaVuSans-30" x="127.246094"/>
       <use xlink:href="#DejaVuSans-30" x="190.869141"/>
      </g>
     </g>
    </g>
    <g id="ytick_5">
     <g id="line2d_31">
      <path d="M 108 163.432521 
L 777.6 163.432521 
" clip-path="url(#pb3341d9510)" style="fill: none; stroke-dasharray: 5.12,1.28,0.8,1.28; stroke-dashoffset: 0; stroke: #b0b0b0; stroke-width: 0.8"/>
     </g>
     <g id="line2d_32">
      <g>
       <use xlink:href="#mb4d8c87f75" x="108" y="163.432521" style="fill: #a9a9a9; stroke: #a9a9a9; stroke-width: 0.8"/>
      </g>
     </g>
     <g id="text_16">
      <!-- 3200 -->
      <g style="fill: #a9a9a9" transform="translate(75.55 167.23174) scale(0.1 -0.1)">
       <use xlink:href="#DejaVuSans-33"/>
       <use xlink:href="#DejaVuSans-32" x="63.623047"/>
       <use xlink:href="#DejaVuSans-30" x="127.246094"/>
       <use xlink:href="#DejaVuSans-30" x="190.869141"/>
      </g>
     </g>
    </g>
    <g id="ytick_6">
     <g id="line2d_33">
      <path d="M 108 127.32937 
L 777.6 127.32937 
" clip-path="url(#pb3341d9510)" style="fill: none; stroke-dasharray: 5.12,1.28,0.8,1.28; stroke-dashoffset: 0; stroke: #b0b0b0; stroke-width: 0.8"/>
     </g>
     <g id="line2d_34">
      <g>
       <use xlink:href="#mb4d8c87f75" x="108" y="127.32937" style="fill: #a9a9a9; stroke: #a9a9a9; stroke-width: 0.8"/>
      </g>
     </g>
     <g id="text_17">
      <!-- 4000 -->
      <g style="fill: #a9a9a9" transform="translate(75.55 131.128588) scale(0.1 -0.1)">
       <use xlink:href="#DejaVuSans-34"/>
       <use xlink:href="#DejaVuSans-30" x="63.623047"/>
       <use xlink:href="#DejaVuSans-30" x="127.246094"/>
       <use xlink:href="#DejaVuSans-30" x="190.869141"/>
      </g>
     </g>
    </g>
    <g id="ytick_7">
     <g id="line2d_35">
      <path d="M 108 91.226218 
L 777.6 91.226218 
" clip-path="url(#pb3341d9510)" style="fill: none; stroke-dasharray: 5.12,1.28,0.8,1.28; stroke-dashoffset: 0; stroke: #b0b0b0; stroke-width: 0.8"/>
     </g>
     <g id="line2d_36">
      <g>
       <use xlink:href="#mb4d8c87f75" x="108" y="91.226218" style="fill: #a9a9a9; stroke: #a9a9a9; stroke-width: 0.8"/>
      </g>
     </g>
     <g id="text_18">
      <!-- 4800 -->
      <g style="fill: #a9a9a9" transform="translate(75.55 95.025437) scale(0.1 -0.1)">
       <use xlink:href="#DejaVuSans-34"/>
       <use xlink:href="#DejaVuSans-38" x="63.623047"/>
       <use xlink:href="#DejaVuSans-30" x="127.246094"/>
       <use xlink:href="#DejaVuSans-30" x="190.869141"/>
      </g>
     </g>
    </g>
    <g id="ytick_8">
     <g id="line2d_37">
      <path d="M 108 55.123066 
L 777.6 55.123066 
" clip-path="url(#pb3341d9510)" style="fill: none; stroke-dasharray: 5.12,1.28,0.8,1.28; stroke-dashoffset: 0; stroke: #b0b0b0; stroke-width: 0.8"/>
     </g>
     <g id="line2d_38">
      <g>
       <use xlink:href="#mb4d8c87f75" x="108" y="55.123066" style="fill: #a9a9a9; stroke: #a9a9a9; stroke-width: 0.8"/>
      </g>
     </g>
     <g id="text_19">
      <!-- 5600 -->
      <g style="fill: #a9a9a9" transform="translate(75.55 58.922285) scale(0.1 -0.1)">
       <defs>
        <path id="DejaVuSans-35" d="M 691 4666 
L 3169 4666 
L 3169 4134 
L 1269 4134 
L 1269 2991 
Q 1406 3038 1543 3061 
Q 1681 3084 1819 3084 
Q 2600 3084 3056 2656 
Q 3513 2228 3513 1497 
Q 3513 744 3044 326 
Q 2575 -91 1722 -91 
Q 1428 -91 1123 -41 
Q 819 9 494 109 
L 494 744 
Q 775 591 1075 516 
Q 1375 441 1709 441 
Q 2250 441 2565 725 
Q 2881 1009 2881 1497 
Q 2881 1984 2565 2268 
Q 2250 2553 1709 2553 
Q 1456 2553 1204 2497 
Q 953 2441 691 2322 
L 691 4666 
z
" transform="scale(0.015625)"/>
       </defs>
       <use xlink:href="#DejaVuSans-35"/>
       <use xlink:href="#DejaVuSans-36" x="63.623047"/>
       <use xlink:href="#DejaVuSans-30" x="127.246094"/>
       <use xlink:href="#DejaVuSans-30" x="190.869141"/>
      </g>
     </g>
    </g>
   </g>
   <g id="line2d_39">
    <path d="M 138.436364 307.709742 
L 142.367864 307.39384 
L 143.023114 307.123066 
L 144.988864 306.897421 
L 149.575614 306.039971 
L 152.851864 305.724069 
L 153.507114 305.408166 
L 154.162364 305.22765 
L 154.817614 304.41533 
L 155.472864 303.96404 
L 156.128114 302.565043 
L 156.783364 302.474785 
L 157.438614 301.978367 
L 158.749114 301.346562 
L 161.370114 299.360888 
L 162.680615 298.819341 
L 163.335865 298.368052 
L 165.956865 297.239828 
L 166.612115 296.201862 
L 167.922615 295.254155 
L 168.577865 294.938252 
L 175.130365 294.035673 
L 175.785615 293.719771 
L 180.372365 293.358739 
L 182.338115 292.862321 
L 188.235365 292.095129 
L 188.890616 291.734097 
L 189.545866 291.64384 
L 190.201116 291.373066 
L 191.511616 291.147421 
L 192.166866 291.102292 
L 192.822116 290.876648 
L 195.443116 290.470487 
L 196.753616 290.109456 
L 198.719366 289.92894 
L 200.029866 289.793553 
L 200.685116 289.613037 
L 201.340366 289.567908 
L 203.306116 288.981232 
L 207.237616 288.394556 
L 207.892866 288.21404 
L 208.548116 287.311461 
L 210.513866 286.589398 
L 212.479616 286.047851 
L 213.134866 285.731948 
L 213.790116 285.686819 
L 217.066367 284.784241 
L 218.376867 284.693983 
L 219.032117 284.603725 
L 220.997867 284.017049 
L 223.618867 283.385244 
L 224.274117 283.11447 
L 224.929367 283.024212 
L 225.584617 282.708309 
L 232.137117 281.715473 
L 235.413367 280.812894 
L 236.068617 280.406734 
L 238.689617 279.729799 
L 240.000117 278.962607 
L 240.655367 278.511318 
L 242.621118 278.150287 
L 246.552618 276.976934 
L 247.863118 276.570774 
L 248.518368 276.480516 
L 249.828868 276.119484 
L 251.139368 275.803582 
L 251.794618 275.713324 
L 253.105118 275.171777 
L 253.760368 275.03639 
L 254.415618 274.765616 
L 255.070868 274.675358 
L 255.726118 274.359456 
L 256.381368 274.17894 
L 257.691868 274.088682 
L 259.002368 273.637393 
L 260.312868 273.547135 
L 260.968118 273.231232 
L 263.589118 272.779943 
L 266.210118 272.554298 
L 266.865368 272.418911 
L 268.175868 271.787106 
L 275.383619 268.763467 
L 276.038869 268.402436 
L 276.694119 267.680372 
L 277.349369 266.597278 
L 278.004619 265.739828 
L 278.659869 265.559312 
L 279.315119 265.559312 
L 280.625619 264.611605 
L 281.280869 264.431089 
L 281.936119 264.070057 
L 282.591369 263.93467 
L 283.246619 263.347994 
L 283.901869 263.167479 
L 285.867619 262.219771 
L 286.522869 261.40745 
L 287.178119 260.414613 
L 287.833369 260.008453 
L 288.488619 258.925358 
L 289.143869 258.248424 
L 289.799119 257.932521 
L 290.454369 257.752006 
L 293.075369 256.217622 
L 294.385869 255.179656 
L 295.041119 254.773496 
L 295.69637 253.825788 
L 296.35162 252.336533 
L 297.00687 251.388825 
L 297.66212 250.892407 
L 298.31737 250.621633 
L 300.93837 248.365186 
L 301.59362 247.913897 
L 302.90412 246.785673 
L 303.55937 245.883095 
L 304.86987 244.754871 
L 307.49087 243.0851 
L 308.14612 242.498424 
L 308.80137 242.363037 
L 310.76712 241.325072 
L 312.73287 240.332235 
L 314.04337 239.113754 
L 314.69862 238.346562 
L 316.00912 237.443983 
L 316.66437 237.263467 
L 317.31962 236.947564 
L 318.63012 236.090115 
L 319.28537 235.729083 
L 319.94062 235.638825 
L 321.25112 234.916762 
L 321.90637 234.555731 
L 322.561621 233.878797 
L 323.216871 233.472636 
L 323.872121 233.246991 
L 324.527371 232.795702 
L 327.148371 231.441834 
L 327.803621 230.855158 
L 330.424621 229.997708 
L 331.079871 229.546418 
L 331.735121 229.411032 
L 333.045621 228.959742 
L 335.011371 228.19255 
L 336.977121 227.470487 
L 338.287621 227.244842 
L 339.598121 226.116619 
L 340.908621 225.484814 
L 342.874371 224.35659 
L 344.184871 223.995559 
L 344.840121 223.589398 
L 345.495371 223.408883 
L 346.805871 222.551433 
L 347.461121 222.190401 
L 350.737372 221.423209 
L 352.703122 220.294986 
L 353.358372 220.204728 
L 354.013622 219.979083 
L 355.324122 219.708309 
L 357.289872 218.264183 
L 359.255622 217.812894 
L 359.910872 217.587249 
L 360.566122 217.090831 
L 364.497622 215.827221 
L 365.152872 215.782092 
L 369.739622 214.15745 
L 370.394872 213.841547 
L 372.360622 213.390258 
L 373.671122 213.074355 
L 374.326372 212.758453 
L 374.981622 212.623066 
L 376.947373 211.720487 
L 378.913123 210.772779 
L 379.568373 210.32149 
L 380.223623 210.140974 
L 382.189373 209.103009 
L 383.499873 208.787106 
L 384.810373 208.110172 
L 386.120873 207.74914 
L 386.776123 207.658883 
L 387.431373 207.207593 
L 388.086623 206.891691 
L 388.741873 206.756304 
L 390.052373 206.214756 
L 390.707623 206.07937 
L 391.362873 205.718338 
L 393.983873 205.312178 
L 395.294373 204.680372 
L 395.949623 204.138825 
L 396.604873 203.010602 
L 397.915373 202.739828 
L 398.570623 202.604441 
L 401.191623 201.250573 
L 401.846873 201.115186 
L 407.088874 198.633095 
L 409.054624 198.226934 
L 409.709874 197.865903 
L 413.641374 196.512034 
L 414.951874 195.699713 
L 415.607124 195.248424 
L 416.262374 194.932521 
L 416.917624 194.842264 
L 417.572874 194.616619 
L 418.228124 194.57149 
L 421.504374 193.71404 
L 422.159624 193.217622 
L 423.470124 192.766332 
L 425.435874 192.134527 
L 426.091124 191.728367 
L 426.746374 191.547851 
L 427.401624 191.096562 
L 428.056874 190.825788 
L 428.712124 190.419628 
L 429.367374 190.148854 
L 430.677875 189.832951 
L 432.643625 189.065759 
L 434.609375 187.576504 
L 435.264625 187.441117 
L 436.575125 186.448281 
L 437.230375 186.312894 
L 437.885625 185.320057 
L 438.540875 185.049284 
L 439.196125 184.552865 
L 439.851375 184.462607 
L 440.506625 184.011318 
L 441.161875 183.695415 
L 441.817125 183.560029 
L 442.472375 183.289255 
L 443.127625 182.792837 
L 443.782875 182.567192 
L 445.748625 181.258453 
L 448.369625 179.949713 
L 449.024875 179.859456 
L 450.335375 179.272779 
L 450.990625 178.911748 
L 451.645875 177.828653 
L 452.301125 177.241977 
L 452.956375 176.880946 
L 453.611625 176.745559 
L 454.922125 175.933238 
L 455.577375 175.797851 
L 456.887876 175.166046 
L 458.853626 174.353725 
L 460.164126 173.451146 
L 461.474626 172.097278 
L 462.785126 171.284957 
L 463.440376 170.878797 
L 464.095626 170.201862 
L 464.750876 169.750573 
L 466.061376 168.667479 
L 466.716626 168.396705 
L 467.371876 167.674642 
L 468.027126 167.178223 
L 469.337626 166.726934 
L 469.992876 166.185387 
L 471.303376 165.508453 
L 471.958626 165.327937 
L 472.613876 164.876648 
L 473.269126 164.741261 
L 475.234876 163.703295 
L 475.890126 163.252006 
L 477.200626 162.710458 
L 477.855876 162.575072 
L 478.511126 162.168911 
L 481.787376 161.130946 
L 482.442626 160.95043 
L 483.097877 160.634527 
L 483.753127 160.047851 
L 485.718877 159.325788 
L 487.029377 158.919628 
L 487.684627 158.423209 
L 490.305627 157.069341 
L 490.960877 156.708309 
L 492.271377 154.13596 
L 493.581877 152.601576 
L 494.237127 152.150287 
L 496.202877 151.292837 
L 496.858127 151.067192 
L 497.513377 150.976934 
L 498.168627 150.615903 
L 500.134377 150.029226 
L 502.755377 148.855874 
L 503.410627 148.449713 
L 504.721127 147.998424 
L 508.652627 145.741977 
L 509.307877 145.065043 
L 510.618378 144.34298 
L 511.273628 143.981948 
L 511.928878 143.756304 
L 512.584128 143.305014 
L 513.894628 142.673209 
L 515.860378 141.635244 
L 516.515628 141.454728 
L 517.170878 140.958309 
L 517.826128 140.687536 
L 518.481378 140.552149 
L 519.791878 140.10086 
L 521.757628 139.378797 
L 522.412878 138.882378 
L 523.723378 138.521347 
L 525.033878 138.024928 
L 525.689128 137.483381 
L 526.999628 137.077221 
L 527.654878 136.761318 
L 528.310128 136.580802 
L 529.620628 135.678223 
L 530.931128 135.091547 
L 532.241628 134.098711 
L 533.552128 133.647421 
L 534.207378 133.105874 
L 534.862628 133.015616 
L 536.173128 132.067908 
L 537.483629 131.436103 
L 538.138879 131.16533 
L 538.794129 130.488395 
L 542.725629 129.089398 
L 544.691379 128.231948 
L 546.657129 127.645272 
L 547.967629 127.464756 
L 548.622879 127.193983 
L 549.278129 127.103725 
L 550.588629 126.562178 
L 551.243879 126.517049 
L 553.864879 125.569341 
L 555.830629 124.215473 
L 559.762129 122.274928 
L 561.072629 121.462607 
L 561.727879 121.056447 
L 563.038379 120.740544 
L 564.34888 119.837966 
L 566.96988 119.025645 
L 567.62513 118.754871 
L 568.93563 118.438968 
L 572.21188 117.355874 
L 574.17763 116.994842 
L 574.83288 116.814327 
L 575.48813 116.498424 
L 576.14338 116.408166 
L 577.45388 115.866619 
L 578.10913 115.776361 
L 578.76438 115.460458 
L 580.07488 115.189685 
L 580.73013 114.873782 
L 582.69588 114.422493 
L 584.00638 114.151719 
L 587.93788 113.429656 
L 589.24838 113.158883 
L 589.90363 113.023496 
L 590.558881 112.752722 
L 591.214131 112.707593 
L 593.179881 112.166046 
L 593.835131 111.805014 
L 597.111381 110.992693 
L 597.766631 110.857307 
L 599.077131 110.406017 
L 601.042881 109.729083 
L 601.698131 109.638825 
L 603.663881 108.961891 
L 604.319131 108.961891 
L 605.629631 108.510602 
L 606.284881 107.878797 
L 606.940131 107.562894 
L 608.250631 107.156734 
L 610.871631 106.163897 
L 611.526881 106.02851 
L 612.182131 105.62235 
L 612.837381 105.486963 
L 613.492631 105.080802 
L 616.768881 104.133095 
L 617.424132 103.726934 
L 618.079382 103.546418 
L 618.734632 103.004871 
L 620.700382 102.64384 
L 622.010882 101.921777 
L 622.666132 101.199713 
L 623.976632 100.92894 
L 628.563382 99.890974 
L 629.218632 99.710458 
L 630.529132 99.66533 
L 631.184382 99.349427 
L 633.805382 98.898138 
L 634.460632 98.582235 
L 636.426382 98.311461 
L 639.047382 97.49914 
L 641.013132 97.047851 
L 642.978882 96.551433 
L 645.599883 95.739112 
L 646.255133 95.603725 
L 646.910383 95.287822 
L 647.565633 95.197564 
L 648.220883 94.97192 
L 648.876133 94.565759 
L 650.841883 93.843696 
L 651.497133 93.347278 
L 652.807633 92.986246 
L 653.462883 92.715473 
L 654.773383 92.354441 
L 657.394383 91.181089 
L 659.360133 91.045702 
L 661.981133 90.233381 
L 662.636383 89.827221 
L 663.946883 89.42106 
L 665.912633 88.428223 
L 666.567883 88.292837 
L 667.223133 87.976934 
L 667.878383 87.886676 
L 675.086134 85.494842 
L 677.707134 84.863037 
L 678.362384 84.682521 
L 679.672884 84.050716 
L 680.328134 83.960458 
L 681.638634 83.599427 
L 682.293884 83.103009 
L 682.949134 82.787106 
L 683.604384 82.019914 
L 684.259634 81.568625 
L 685.570134 81.162464 
L 686.225384 80.620917 
L 693.433134 77.687536 
L 694.743634 77.371633 
L 696.054134 76.784957 
L 698.019885 75.611605 
L 698.675135 75.476218 
L 699.330385 74.979799 
L 700.640885 74.347994 
L 701.951385 73.535673 
L 703.917135 72.633095 
L 704.572385 72.181805 
L 705.882885 71.685387 
L 706.538135 71.234097 
L 707.848635 70.602292 
L 708.503885 70.151003 
L 709.814385 69.699713 
L 710.469635 69.564327 
L 713.090635 68.390974 
L 716.366885 67.262751 
L 717.022135 67.217622 
L 717.677385 67.037106 
L 718.332635 66.630946 
L 718.987885 66.540688 
L 719.643135 66.269914 
L 721.608885 65.863754 
L 724.885136 64.193983 
L 726.195636 63.47192 
L 726.850886 63.381662 
L 728.816636 62.298567 
L 730.782386 61.576504 
L 732.748136 60.719054 
L 735.369136 59.681089 
L 736.024386 59.500573 
L 736.679636 59.094413 
L 737.334886 59.049284 
L 737.990136 58.868768 
L 738.645386 58.417479 
L 739.300636 58.37235 
L 740.611136 57.966189 
L 741.921636 57.334384 
L 742.576886 57.244126 
L 743.232136 56.973352 
L 743.887386 56.837966 
L 745.853136 55.980516 
L 746.508386 55.8 
L 747.163636 55.8 
L 747.163636 55.8 
" clip-path="url(#pb3341d9510)" style="fill: none; stroke: #1f77b4; stroke-width: 1.5; stroke-linecap: square"/>
   </g>
   <g id="line2d_40">
    <path d="M 139.091614 307.8 
L 141.057364 307.709742 
L 143.023114 307.664613 
L 146.954614 307.574355 
L 150.230864 307.438968 
L 152.851864 307.438968 
L 153.507114 307.258453 
L 156.128114 307.168195 
L 158.093864 306.94255 
L 160.059614 306.762034 
L 163.991115 306.581519 
L 164.646365 306.581519 
L 165.301615 306.446132 
L 167.922615 306.355874 
L 169.233115 306.265616 
L 174.475115 306.175358 
L 177.751365 306.039971 
L 185.614365 305.949713 
L 188.890616 305.814327 
L 192.822116 305.724069 
L 195.443116 305.633811 
L 201.340366 305.543553 
L 203.306116 305.498424 
L 205.271866 305.453295 
L 207.237616 305.22765 
L 211.169116 305.182521 
L 212.479616 305.092264 
L 217.066367 305.002006 
L 224.274117 304.595845 
L 228.860867 304.505587 
L 230.171367 304.41533 
L 232.137117 304.325072 
L 236.068617 304.144556 
L 238.689617 304.099427 
L 240.655367 303.918911 
L 251.139368 303.287106 
L 253.760368 303.196848 
L 258.347118 302.971203 
L 260.312868 302.880946 
L 266.865368 302.519914 
L 274.073119 302.429656 
L 276.694119 302.158883 
L 278.004619 302.068625 
L 286.522869 301.391691 
L 290.454369 300.895272 
L 293.075369 300.805014 
L 298.31737 300.12808 
L 301.59362 300.037822 
L 310.11187 299.360888 
L 314.04337 298.909599 
L 316.00912 298.86447 
L 317.31962 298.774212 
L 319.94062 298.683954 
L 321.25112 298.593696 
L 324.527371 298.277794 
L 325.182621 298.097278 
L 329.114121 297.916762 
L 332.390371 297.826504 
L 340.908621 297.330086 
L 342.874371 297.239828 
L 351.392622 296.74341 
L 355.979372 296.653152 
L 356.634622 296.517765 
L 361.876622 296.427507 
L 366.463372 296.201862 
L 373.671122 296.111605 
L 378.257873 295.88596 
L 383.499873 295.795702 
L 388.741873 295.524928 
L 393.328623 295.43467 
L 405.778374 294.667479 
L 411.020374 294.577221 
L 428.056874 293.494126 
L 431.988375 293.403868 
L 433.954125 293.358739 
L 435.919875 293.31361 
L 437.885625 293.133095 
L 443.127625 293.042837 
L 444.438125 292.817192 
L 445.748625 292.726934 
L 449.024875 292.591547 
L 450.335375 292.501289 
L 451.645875 292.411032 
L 457.543126 292.320774 
L 458.853626 292.185387 
L 461.474626 292.140258 
L 462.129876 292.004871 
L 463.440376 291.914613 
L 464.095626 291.779226 
L 466.061376 291.688968 
L 477.200626 291.012034 
L 479.166376 290.921777 
L 482.442626 290.78639 
L 491.616127 290.696132 
L 496.202877 290.470487 
L 501.444877 290.380229 
L 504.065877 290.289971 
L 506.686877 290.244842 
L 507.997377 290.109456 
L 510.618378 290.019198 
L 517.170878 289.658166 
L 521.102378 289.613037 
L 523.068128 289.432521 
L 525.033878 289.387393 
L 529.620628 289.297135 
L 532.241628 289.206877 
L 538.138879 289.116619 
L 540.759879 289.026361 
L 544.691379 288.936103 
L 551.243879 288.575072 
L 554.520129 288.484814 
L 555.830629 288.349427 
L 563.69363 288.259169 
L 566.31463 288.168911 
L 575.48813 288.078653 
L 577.45388 288.033524 
L 581.38538 287.943266 
L 583.35113 287.898138 
L 591.869381 287.80788 
L 593.179881 287.717622 
L 600.387631 287.627364 
L 603.008631 287.537106 
L 610.871631 287.491977 
L 612.182131 287.401719 
L 622.010882 287.35659 
L 623.976632 287.176074 
L 635.115882 287.085817 
L 637.081632 287.040688 
L 654.118133 286.95043 
L 656.739133 286.860172 
L 668.533633 286.769914 
L 671.154634 286.679656 
L 675.741384 286.589398 
L 680.983384 286.318625 
L 683.604384 286.228367 
L 686.225384 286.138109 
L 690.156884 286.047851 
L 692.122634 286.002722 
L 694.743634 285.912464 
L 696.709384 285.867335 
L 699.985635 285.777077 
L 701.296135 285.641691 
L 705.227635 285.551433 
L 712.435385 285.145272 
L 715.711635 285.055014 
L 718.332635 284.964756 
L 722.919385 284.874499 
L 725.540386 284.784241 
L 730.782386 284.693983 
L 732.748136 284.648854 
L 736.024386 284.558596 
L 739.955886 284.37808 
L 745.197886 284.287822 
L 746.508386 284.197564 
L 747.163636 284.197564 
L 747.163636 284.197564 
" clip-path="url(#pb3341d9510)" style="fill: none; stroke: #ff7f0e; stroke-width: 1.5; stroke-linecap: square"/>
   </g>
   <g id="patch_3">
    <path d="M 108 320.4 
L 108 43.2 
" style="fill: none; stroke: #a9a9a9; stroke-width: 0.8; stroke-linejoin: miter; stroke-linecap: square"/>
   </g>
   <g id="patch_4">
    <path d="M 777.6 320.4 
L 777.6 43.2 
" style="fill: none"/>
   </g>
   <g id="patch_5">
    <path d="M 108 320.4 
L 777.6 320.4 
" style="fill: none; stroke: #a9a9a9; stroke-width: 0.8; stroke-linejoin: miter; stroke-linecap: square"/>
   </g>
   <g id="patch_6">
    <path d="M 108 43.2 
L 777.6 43.2 
" style="fill: none"/>
   </g>
   <g id="text_20">
    <!-- get_subscribe history -->
    <g style="fill: #a9a9a9" transform="translate(378.6075 37.2) scale(0.12 -0.12)">
     <defs>
      <path id="DejaVuSans-67" d="M 2906 1791 
Q 2906 2416 2648 2759 
Q 2391 3103 1925 3103 
Q 1463 3103 1205 2759 
Q 947 2416 947 1791 
Q 947 1169 1205 825 
Q 1463 481 1925 481 
Q 2391 481 2648 825 
Q 2906 1169 2906 1791 
z
M 3481 434 
Q 3481 -459 3084 -895 
Q 2688 -1331 1869 -1331 
Q 1566 -1331 1297 -1286 
Q 1028 -1241 775 -1147 
L 775 -588 
Q 1028 -725 1275 -790 
Q 1522 -856 1778 -856 
Q 2344 -856 2625 -561 
Q 2906 -266 2906 331 
L 2906 616 
Q 2728 306 2450 153 
Q 2172 0 1784 0 
Q 1141 0 747 490 
Q 353 981 353 1791 
Q 353 2603 747 3093 
Q 1141 3584 1784 3584 
Q 2172 3584 2450 3431 
Q 2728 3278 2906 2969 
L 2906 3500 
L 3481 3500 
L 3481 434 
z
" transform="scale(0.015625)"/>
      <path id="DejaVuSans-65" d="M 3597 1894 
L 3597 1613 
L 953 1613 
Q 991 1019 1311 708 
Q 1631 397 2203 397 
Q 2534 397 2845 478 
Q 3156 559 3463 722 
L 3463 178 
Q 3153 47 2828 -22 
Q 2503 -91 2169 -91 
Q 1331 -91 842 396 
Q 353 884 353 1716 
Q 353 2575 817 3079 
Q 1281 3584 2069 3584 
Q 2775 3584 3186 3129 
Q 3597 2675 3597 1894 
z
M 3022 2063 
Q 3016 2534 2758 2815 
Q 2500 3097 2075 3097 
Q 1594 3097 1305 2825 
Q 1016 2553 972 2059 
L 3022 2063 
z
" transform="scale(0.015625)"/>
      <path id="DejaVuSans-74" d="M 1172 4494 
L 1172 3500 
L 2356 3500 
L 2356 3053 
L 1172 3053 
L 1172 1153 
Q 1172 725 1289 603 
Q 1406 481 1766 481 
L 2356 481 
L 2356 0 
L 1766 0 
Q 1100 0 847 248 
Q 594 497 594 1153 
L 594 3053 
L 172 3053 
L 172 3500 
L 594 3500 
L 594 4494 
L 1172 4494 
z
" transform="scale(0.015625)"/>
      <path id="DejaVuSans-5f" d="M 3263 -1063 
L 3263 -1509 
L -63 -1509 
L -63 -1063 
L 3263 -1063 
z
" transform="scale(0.015625)"/>
      <path id="DejaVuSans-73" d="M 2834 3397 
L 2834 2853 
Q 2591 2978 2328 3040 
Q 2066 3103 1784 3103 
Q 1356 3103 1142 2972 
Q 928 2841 928 2578 
Q 928 2378 1081 2264 
Q 1234 2150 1697 2047 
L 1894 2003 
Q 2506 1872 2764 1633 
Q 3022 1394 3022 966 
Q 3022 478 2636 193 
Q 2250 -91 1575 -91 
Q 1294 -91 989 -36 
Q 684 19 347 128 
L 347 722 
Q 666 556 975 473 
Q 1284 391 1588 391 
Q 1994 391 2212 530 
Q 2431 669 2431 922 
Q 2431 1156 2273 1281 
Q 2116 1406 1581 1522 
L 1381 1569 
Q 847 1681 609 1914 
Q 372 2147 372 2553 
Q 372 3047 722 3315 
Q 1072 3584 1716 3584 
Q 2034 3584 2315 3537 
Q 2597 3491 2834 3397 
z
" transform="scale(0.015625)"/>
      <path id="DejaVuSans-75" d="M 544 1381 
L 544 3500 
L 1119 3500 
L 1119 1403 
Q 1119 906 1312 657 
Q 1506 409 1894 409 
Q 2359 409 2629 706 
Q 2900 1003 2900 1516 
L 2900 3500 
L 3475 3500 
L 3475 0 
L 2900 0 
L 2900 538 
Q 2691 219 2414 64 
Q 2138 -91 1772 -91 
Q 1169 -91 856 284 
Q 544 659 544 1381 
z
M 1991 3584 
L 1991 3584 
z
" transform="scale(0.015625)"/>
      <path id="DejaVuSans-62" d="M 3116 1747 
Q 3116 2381 2855 2742 
Q 2594 3103 2138 3103 
Q 1681 3103 1420 2742 
Q 1159 2381 1159 1747 
Q 1159 1113 1420 752 
Q 1681 391 2138 391 
Q 2594 391 2855 752 
Q 3116 1113 3116 1747 
z
M 1159 2969 
Q 1341 3281 1617 3432 
Q 1894 3584 2278 3584 
Q 2916 3584 3314 3078 
Q 3713 2572 3713 1747 
Q 3713 922 3314 415 
Q 2916 -91 2278 -91 
Q 1894 -91 1617 61 
Q 1341 213 1159 525 
L 1159 0 
L 581 0 
L 581 4863 
L 1159 4863 
L 1159 2969 
z
" transform="scale(0.015625)"/>
      <path id="DejaVuSans-63" d="M 3122 3366 
L 3122 2828 
Q 2878 2963 2633 3030 
Q 2388 3097 2138 3097 
Q 1578 3097 1268 2742 
Q 959 2388 959 1747 
Q 959 1106 1268 751 
Q 1578 397 2138 397 
Q 2388 397 2633 464 
Q 2878 531 3122 666 
L 3122 134 
Q 2881 22 2623 -34 
Q 2366 -91 2075 -91 
Q 1284 -91 818 406 
Q 353 903 353 1747 
Q 353 2603 823 3093 
Q 1294 3584 2113 3584 
Q 2378 3584 2631 3529 
Q 2884 3475 3122 3366 
z
" transform="scale(0.015625)"/>
      <path id="DejaVuSans-72" d="M 2631 2963 
Q 2534 3019 2420 3045 
Q 2306 3072 2169 3072 
Q 1681 3072 1420 2755 
Q 1159 2438 1159 1844 
L 1159 0 
L 581 0 
L 581 3500 
L 1159 3500 
L 1159 2956 
Q 1341 3275 1631 3429 
Q 1922 3584 2338 3584 
Q 2397 3584 2469 3576 
Q 2541 3569 2628 3553 
L 2631 2963 
z
" transform="scale(0.015625)"/>
      <path id="DejaVuSans-69" d="M 603 3500 
L 1178 3500 
L 1178 0 
L 603 0 
L 603 3500 
z
M 603 4863 
L 1178 4863 
L 1178 4134 
L 603 4134 
L 603 4863 
z
" transform="scale(0.015625)"/>
      <path id="DejaVuSans-20" transform="scale(0.015625)"/>
      <path id="DejaVuSans-68" d="M 3513 2113 
L 3513 0 
L 2938 0 
L 2938 2094 
Q 2938 2591 2744 2837 
Q 2550 3084 2163 3084 
Q 1697 3084 1428 2787 
Q 1159 2491 1159 1978 
L 1159 0 
L 581 0 
L 581 4863 
L 1159 4863 
L 1159 2956 
Q 1366 3272 1645 3428 
Q 1925 3584 2291 3584 
Q 2894 3584 3203 3211 
Q 3513 2838 3513 2113 
z
" transform="scale(0.015625)"/>
      <path id="DejaVuSans-6f" d="M 1959 3097 
Q 1497 3097 1228 2736 
Q 959 2375 959 1747 
Q 959 1119 1226 758 
Q 1494 397 1959 397 
Q 2419 397 2687 759 
Q 2956 1122 2956 1747 
Q 2956 2369 2687 2733 
Q 2419 3097 1959 3097 
z
M 1959 3584 
Q 2709 3584 3137 3096 
Q 3566 2609 3566 1747 
Q 3566 888 3137 398 
Q 2709 -91 1959 -91 
Q 1206 -91 779 398 
Q 353 888 353 1747 
Q 353 2609 779 3096 
Q 1206 3584 1959 3584 
z
" transform="scale(0.015625)"/>
      <path id="DejaVuSans-79" d="M 2059 -325 
Q 1816 -950 1584 -1140 
Q 1353 -1331 966 -1331 
L 506 -1331 
L 506 -850 
L 844 -850 
Q 1081 -850 1212 -737 
Q 1344 -625 1503 -206 
L 1606 56 
L 191 3500 
L 800 3500 
L 1894 763 
L 2988 3500 
L 3597 3500 
L 2059 -325 
z
" transform="scale(0.015625)"/>
     </defs>
     <use xlink:href="#DejaVuSans-67"/>
     <use xlink:href="#DejaVuSans-65" x="63.476562"/>
     <use xlink:href="#DejaVuSans-74" x="125"/>
     <use xlink:href="#DejaVuSans-5f" x="164.208984"/>
     <use xlink:href="#DejaVuSans-73" x="214.208984"/>
     <use xlink:href="#DejaVuSans-75" x="266.308594"/>
     <use xlink:href="#DejaVuSans-62" x="329.6875"/>
     <use xlink:href="#DejaVuSans-73" x="393.164062"/>
     <use xlink:href="#DejaVuSans-63" x="445.263672"/>
     <use xlink:href="#DejaVuSans-72" x="500.244141"/>
     <use xlink:href="#DejaVuSans-69" x="541.357422"/>
     <use xlink:href="#DejaVuSans-62" x="569.140625"/>
     <use xlink:href="#DejaVuSans-65" x="632.617188"/>
     <use xlink:href="#DejaVuSans-20" x="694.140625"/>
     <use xlink:href="#DejaVuSans-68" x="725.927734"/>
     <use xlink:href="#DejaVuSans-69" x="789.306641"/>
     <use xlink:href="#DejaVuSans-73" x="817.089844"/>
     <use xlink:href="#DejaVuSans-74" x="869.189453"/>
     <use xlink:href="#DejaVuSans-6f" x="908.398438"/>
     <use xlink:href="#DejaVuSans-72" x="969.580078"/>
     <use xlink:href="#DejaVuSans-79" x="1010.693359"/>
    </g>
   </g>
   <g id="legend_1">
    <g id="line2d_41">
     <path d="M 815.08 328.498438 
L 825.08 328.498438 
L 835.08 328.498438 
" style="fill: none; stroke: #1f77b4; stroke-width: 1.5; stroke-linecap: square"/>
    </g>
    <g id="text_21">
     <!-- star -->
     <g style="fill: #a9a9a9" transform="translate(843.08 331.998438) scale(0.1 -0.1)">
      <defs>
       <path id="DejaVuSans-61" d="M 2194 1759 
Q 1497 1759 1228 1600 
Q 959 1441 959 1056 
Q 959 750 1161 570 
Q 1363 391 1709 391 
Q 2188 391 2477 730 
Q 2766 1069 2766 1631 
L 2766 1759 
L 2194 1759 
z
M 3341 1997 
L 3341 0 
L 2766 0 
L 2766 531 
Q 2569 213 2275 61 
Q 1981 -91 1556 -91 
Q 1019 -91 701 211 
Q 384 513 384 1019 
Q 384 1609 779 1909 
Q 1175 2209 1959 2209 
L 2766 2209 
L 2766 2266 
Q 2766 2663 2505 2880 
Q 2244 3097 1772 3097 
Q 1472 3097 1187 3025 
Q 903 2953 641 2809 
L 641 3341 
Q 956 3463 1253 3523 
Q 1550 3584 1831 3584 
Q 2591 3584 2966 3190 
Q 3341 2797 3341 1997 
z
" transform="scale(0.015625)"/>
      </defs>
      <use xlink:href="#DejaVuSans-73"/>
      <use xlink:href="#DejaVuSans-74" x="52.099609"/>
      <use xlink:href="#DejaVuSans-61" x="91.308594"/>
      <use xlink:href="#DejaVuSans-72" x="152.587891"/>
     </g>
    </g>
    <g id="line2d_42">
     <path d="M 815.08 343.176562 
L 825.08 343.176562 
L 835.08 343.176562 
" style="fill: none; stroke: #ff7f0e; stroke-width: 1.5; stroke-linecap: square"/>
    </g>
    <g id="text_22">
     <!-- fork -->
     <g style="fill: #a9a9a9" transform="translate(843.08 346.676562) scale(0.1 -0.1)">
      <defs>
       <path id="DejaVuSans-66" d="M 2375 4863 
L 2375 4384 
L 1825 4384 
Q 1516 4384 1395 4259 
Q 1275 4134 1275 3809 
L 1275 3500 
L 2222 3500 
L 2222 3053 
L 1275 3053 
L 1275 0 
L 697 0 
L 697 3053 
L 147 3053 
L 147 3500 
L 697 3500 
L 697 3744 
Q 697 4328 969 4595 
Q 1241 4863 1831 4863 
L 2375 4863 
z
" transform="scale(0.015625)"/>
       <path id="DejaVuSans-6b" d="M 581 4863 
L 1159 4863 
L 1159 1991 
L 2875 3500 
L 3609 3500 
L 1753 1863 
L 3688 0 
L 2938 0 
L 1159 1709 
L 1159 0 
L 581 0 
L 581 4863 
z
" transform="scale(0.015625)"/>
      </defs>
      <use xlink:href="#DejaVuSans-66"/>
      <use xlink:href="#DejaVuSans-6f" x="35.205078"/>
      <use xlink:href="#DejaVuSans-72" x="96.386719"/>
      <use xlink:href="#DejaVuSans-6b" x="137.5"/>
     </g>
    </g>
   </g>
  </g>
 </g>
 <defs>
  <clipPath id="pb3341d9510">
   <rect x="108" y="43.2" width="669.6" height="277.2"/>
  </clipPath>
 </defs>
</svg>
