<?xml version="1.0" encoding="utf-8" standalone="no"?>
<!DOCTYPE svg PUBLIC "-//W3C//DTD SVG 1.1//EN"
  "http://www.w3.org/Graphics/SVG/1.1/DTD/svg11.dtd">
<svg xmlns:xlink="http://www.w3.org/1999/xlink" width="864pt" height="360pt" viewBox="0 0 864 360" xmlns="http://www.w3.org/2000/svg" version="1.1">
 <metadata>
  <rdf:RDF xmlns:dc="http://purl.org/dc/elements/1.1/" xmlns:cc="http://creativecommons.org/ns#" xmlns:rdf="http://www.w3.org/1999/02/22-rdf-syntax-ns#">
   <cc:Work>
    <dc:type rdf:resource="http://purl.org/dc/dcmitype/StillImage"/>
    <dc:date>2024-02-05T20:05:17.176910</dc:date>
    <dc:format>image/svg+xml</dc:format>
    <dc:creator>
     <cc:Agent>
      <dc:title>Matplotlib v3.8.2, https://matplotlib.org/</dc:title>
     </cc:Agent>
    </dc:creator>
   </cc:Work>
  </rdf:RDF>
 </metadata>
 <defs>
  <style type="text/css">*{stroke-linejoin: round; stroke-linecap: butt}</style>
 </defs>
 <g id="figure_1">
  <g id="patch_1">
   <path d="M 0 360 
L 864 360 
L 864 0 
L 0 0 
L 0 360 
z
" style="fill: none; opacity: 0"/>
  </g>
  <g id="axes_1">
   <g id="patch_2">
    <path d="M 108 320.4 
L 777.6 320.4 
L 777.6 43.2 
L 108 43.2 
L 108 320.4 
z
" style="fill: none; opacity: 0"/>
   </g>
   <g id="matplotlib.axis_1">
    <g id="xtick_1">
     <g id="line2d_1">
      <path d="M 123.316788 320.4 
L 123.316788 43.2 
" clip-path="url(#pf7262b4e79)" style="fill: none; stroke-dasharray: 5.12,1.28,0.8,1.28; stroke-dashoffset: 0; stroke: #b0b0b0; stroke-width: 0.8"/>
     </g>
     <g id="line2d_2">
      <defs>
       <path id="m549cf2c7a9" d="M 0 0 
L 0 3.5 
" style="stroke: #a9a9a9; stroke-width: 0.8"/>
      </defs>
      <g>
       <use xlink:href="#m549cf2c7a9" x="123.316788" y="320.4" style="fill: #a9a9a9; stroke: #a9a9a9; stroke-width: 0.8"/>
      </g>
     </g>
     <g id="text_1">
      <!-- 2021-07 -->
      <g style="fill: #a9a9a9" transform="translate(102.425381 334.998438) scale(0.1 -0.1)">
       <defs>
        <path id="DejaVuSans-32" d="M 1228 531 
L 3431 531 
L 3431 0 
L 469 0 
L 469 531 
Q 828 903 1448 1529 
Q 2069 2156 2228 2338 
Q 2531 2678 2651 2914 
Q 2772 3150 2772 3378 
Q 2772 3750 2511 3984 
Q 2250 4219 1831 4219 
Q 1534 4219 1204 4116 
Q 875 4013 500 3803 
L 500 4441 
Q 881 4594 1212 4672 
Q 1544 4750 1819 4750 
Q 2544 4750 2975 4387 
Q 3406 4025 3406 3419 
Q 3406 3131 3298 2873 
Q 3191 2616 2906 2266 
Q 2828 2175 2409 1742 
Q 1991 1309 1228 531 
z
" transform="scale(0.015625)"/>
        <path id="DejaVuSans-30" d="M 2034 4250 
Q 1547 4250 1301 3770 
Q 1056 3291 1056 2328 
Q 1056 1369 1301 889 
Q 1547 409 2034 409 
Q 2525 409 2770 889 
Q 3016 1369 3016 2328 
Q 3016 3291 2770 3770 
Q 2525 4250 2034 4250 
z
M 2034 4750 
Q 2819 4750 3233 4129 
Q 3647 3509 3647 2328 
Q 3647 1150 3233 529 
Q 2819 -91 2034 -91 
Q 1250 -91 836 529 
Q 422 1150 422 2328 
Q 422 3509 836 4129 
Q 1250 4750 2034 4750 
z
" transform="scale(0.015625)"/>
        <path id="DejaVuSans-31" d="M 794 531 
L 1825 531 
L 1825 4091 
L 703 3866 
L 703 4441 
L 1819 4666 
L 2450 4666 
L 2450 531 
L 3481 531 
L 3481 0 
L 794 0 
L 794 531 
z
" transform="scale(0.015625)"/>
        <path id="DejaVuSans-2d" d="M 313 2009 
L 1997 2009 
L 1997 1497 
L 313 1497 
L 313 2009 
z
" transform="scale(0.015625)"/>
        <path id="DejaVuSans-37" d="M 525 4666 
L 3525 4666 
L 3525 4397 
L 1831 0 
L 1172 0 
L 2766 4134 
L 525 4134 
L 525 4666 
z
" transform="scale(0.015625)"/>
       </defs>
       <use xlink:href="#DejaVuSans-32"/>
       <use xlink:href="#DejaVuSans-30" x="63.623047"/>
       <use xlink:href="#DejaVuSans-32" x="127.246094"/>
       <use xlink:href="#DejaVuSans-31" x="190.869141"/>
       <use xlink:href="#DejaVuSans-2d" x="254.492188"/>
       <use xlink:href="#DejaVuSans-30" x="290.576172"/>
       <use xlink:href="#DejaVuSans-37" x="354.199219"/>
      </g>
     </g>
    </g>
    <g id="xtick_2">
     <g id="line2d_3">
      <path d="M 183.795091 320.4 
L 183.795091 43.2 
" clip-path="url(#pf7262b4e79)" style="fill: none; stroke-dasharray: 5.12,1.28,0.8,1.28; stroke-dashoffset: 0; stroke: #b0b0b0; stroke-width: 0.8"/>
     </g>
     <g id="line2d_4">
      <g>
       <use xlink:href="#m549cf2c7a9" x="183.795091" y="320.4" style="fill: #a9a9a9; stroke: #a9a9a9; stroke-width: 0.8"/>
      </g>
     </g>
     <g id="text_2">
      <!-- 2021-10 -->
      <g style="fill: #a9a9a9" transform="translate(162.903685 334.998438) scale(0.1 -0.1)">
       <use xlink:href="#DejaVuSans-32"/>
       <use xlink:href="#DejaVuSans-30" x="63.623047"/>
       <use xlink:href="#DejaVuSans-32" x="127.246094"/>
       <use xlink:href="#DejaVuSans-31" x="190.869141"/>
       <use xlink:href="#DejaVuSans-2d" x="254.492188"/>
       <use xlink:href="#DejaVuSans-31" x="290.576172"/>
       <use xlink:href="#DejaVuSans-30" x="354.199219"/>
      </g>
     </g>
    </g>
    <g id="xtick_3">
     <g id="line2d_5">
      <path d="M 244.273395 320.4 
L 244.273395 43.2 
" clip-path="url(#pf7262b4e79)" style="fill: none; stroke-dasharray: 5.12,1.28,0.8,1.28; stroke-dashoffset: 0; stroke: #b0b0b0; stroke-width: 0.8"/>
     </g>
     <g id="line2d_6">
      <g>
       <use xlink:href="#m549cf2c7a9" x="244.273395" y="320.4" style="fill: #a9a9a9; stroke: #a9a9a9; stroke-width: 0.8"/>
      </g>
     </g>
     <g id="text_3">
      <!-- 2022-01 -->
      <g style="fill: #a9a9a9" transform="translate(223.381989 334.998438) scale(0.1 -0.1)">
       <use xlink:href="#DejaVuSans-32"/>
       <use xlink:href="#DejaVuSans-30" x="63.623047"/>
       <use xlink:href="#DejaVuSans-32" x="127.246094"/>
       <use xlink:href="#DejaVuSans-32" x="190.869141"/>
       <use xlink:href="#DejaVuSans-2d" x="254.492188"/>
       <use xlink:href="#DejaVuSans-30" x="290.576172"/>
       <use xlink:href="#DejaVuSans-31" x="354.199219"/>
      </g>
     </g>
    </g>
    <g id="xtick_4">
     <g id="line2d_7">
      <path d="M 303.436953 320.4 
L 303.436953 43.2 
" clip-path="url(#pf7262b4e79)" style="fill: none; stroke-dasharray: 5.12,1.28,0.8,1.28; stroke-dashoffset: 0; stroke: #b0b0b0; stroke-width: 0.8"/>
     </g>
     <g id="line2d_8">
      <g>
       <use xlink:href="#m549cf2c7a9" x="303.436953" y="320.4" style="fill: #a9a9a9; stroke: #a9a9a9; stroke-width: 0.8"/>
      </g>
     </g>
     <g id="text_4">
      <!-- 2022-04 -->
      <g style="fill: #a9a9a9" transform="translate(282.545546 334.998438) scale(0.1 -0.1)">
       <defs>
        <path id="DejaVuSans-34" d="M 2419 4116 
L 825 1625 
L 2419 1625 
L 2419 4116 
z
M 2253 4666 
L 3047 4666 
L 3047 1625 
L 3713 1625 
L 3713 1100 
L 3047 1100 
L 3047 0 
L 2419 0 
L 2419 1100 
L 313 1100 
L 313 1709 
L 2253 4666 
z
" transform="scale(0.015625)"/>
       </defs>
       <use xlink:href="#DejaVuSans-32"/>
       <use xlink:href="#DejaVuSans-30" x="63.623047"/>
       <use xlink:href="#DejaVuSans-32" x="127.246094"/>
       <use xlink:href="#DejaVuSans-32" x="190.869141"/>
       <use xlink:href="#DejaVuSans-2d" x="254.492188"/>
       <use xlink:href="#DejaVuSans-30" x="290.576172"/>
       <use xlink:href="#DejaVuSans-34" x="354.199219"/>
      </g>
     </g>
    </g>
    <g id="xtick_5">
     <g id="line2d_9">
      <path d="M 363.257883 320.4 
L 363.257883 43.2 
" clip-path="url(#pf7262b4e79)" style="fill: none; stroke-dasharray: 5.12,1.28,0.8,1.28; stroke-dashoffset: 0; stroke: #b0b0b0; stroke-width: 0.8"/>
     </g>
     <g id="line2d_10">
      <g>
       <use xlink:href="#m549cf2c7a9" x="363.257883" y="320.4" style="fill: #a9a9a9; stroke: #a9a9a9; stroke-width: 0.8"/>
      </g>
     </g>
     <g id="text_5">
      <!-- 2022-07 -->
      <g style="fill: #a9a9a9" transform="translate(342.366477 334.998438) scale(0.1 -0.1)">
       <use xlink:href="#DejaVuSans-32"/>
       <use xlink:href="#DejaVuSans-30" x="63.623047"/>
       <use xlink:href="#DejaVuSans-32" x="127.246094"/>
       <use xlink:href="#DejaVuSans-32" x="190.869141"/>
       <use xlink:href="#DejaVuSans-2d" x="254.492188"/>
       <use xlink:href="#DejaVuSans-30" x="290.576172"/>
       <use xlink:href="#DejaVuSans-37" x="354.199219"/>
      </g>
     </g>
    </g>
    <g id="xtick_6">
     <g id="line2d_11">
      <path d="M 423.736187 320.4 
L 423.736187 43.2 
" clip-path="url(#pf7262b4e79)" style="fill: none; stroke-dasharray: 5.12,1.28,0.8,1.28; stroke-dashoffset: 0; stroke: #b0b0b0; stroke-width: 0.8"/>
     </g>
     <g id="line2d_12">
      <g>
       <use xlink:href="#m549cf2c7a9" x="423.736187" y="320.4" style="fill: #a9a9a9; stroke: #a9a9a9; stroke-width: 0.8"/>
      </g>
     </g>
     <g id="text_6">
      <!-- 2022-10 -->
      <g style="fill: #a9a9a9" transform="translate(402.844781 334.998438) scale(0.1 -0.1)">
       <use xlink:href="#DejaVuSans-32"/>
       <use xlink:href="#DejaVuSans-30" x="63.623047"/>
       <use xlink:href="#DejaVuSans-32" x="127.246094"/>
       <use xlink:href="#DejaVuSans-32" x="190.869141"/>
       <use xlink:href="#DejaVuSans-2d" x="254.492188"/>
       <use xlink:href="#DejaVuSans-31" x="290.576172"/>
       <use xlink:href="#DejaVuSans-30" x="354.199219"/>
      </g>
     </g>
    </g>
    <g id="xtick_7">
     <g id="line2d_13">
      <path d="M 484.21449 320.4 
L 484.21449 43.2 
" clip-path="url(#pf7262b4e79)" style="fill: none; stroke-dasharray: 5.12,1.28,0.8,1.28; stroke-dashoffset: 0; stroke: #b0b0b0; stroke-width: 0.8"/>
     </g>
     <g id="line2d_14">
      <g>
       <use xlink:href="#m549cf2c7a9" x="484.21449" y="320.4" style="fill: #a9a9a9; stroke: #a9a9a9; stroke-width: 0.8"/>
      </g>
     </g>
     <g id="text_7">
      <!-- 2023-01 -->
      <g style="fill: #a9a9a9" transform="translate(463.323084 334.998438) scale(0.1 -0.1)">
       <defs>
        <path id="DejaVuSans-33" d="M 2597 2516 
Q 3050 2419 3304 2112 
Q 3559 1806 3559 1356 
Q 3559 666 3084 287 
Q 2609 -91 1734 -91 
Q 1441 -91 1130 -33 
Q 819 25 488 141 
L 488 750 
Q 750 597 1062 519 
Q 1375 441 1716 441 
Q 2309 441 2620 675 
Q 2931 909 2931 1356 
Q 2931 1769 2642 2001 
Q 2353 2234 1838 2234 
L 1294 2234 
L 1294 2753 
L 1863 2753 
Q 2328 2753 2575 2939 
Q 2822 3125 2822 3475 
Q 2822 3834 2567 4026 
Q 2313 4219 1838 4219 
Q 1578 4219 1281 4162 
Q 984 4106 628 3988 
L 628 4550 
Q 988 4650 1302 4700 
Q 1616 4750 1894 4750 
Q 2613 4750 3031 4423 
Q 3450 4097 3450 3541 
Q 3450 3153 3228 2886 
Q 3006 2619 2597 2516 
z
" transform="scale(0.015625)"/>
       </defs>
       <use xlink:href="#DejaVuSans-32"/>
       <use xlink:href="#DejaVuSans-30" x="63.623047"/>
       <use xlink:href="#DejaVuSans-32" x="127.246094"/>
       <use xlink:href="#DejaVuSans-33" x="190.869141"/>
       <use xlink:href="#DejaVuSans-2d" x="254.492188"/>
       <use xlink:href="#DejaVuSans-30" x="290.576172"/>
       <use xlink:href="#DejaVuSans-31" x="354.199219"/>
      </g>
     </g>
    </g>
    <g id="xtick_8">
     <g id="line2d_15">
      <path d="M 543.378048 320.4 
L 543.378048 43.2 
" clip-path="url(#pf7262b4e79)" style="fill: none; stroke-dasharray: 5.12,1.28,0.8,1.28; stroke-dashoffset: 0; stroke: #b0b0b0; stroke-width: 0.8"/>
     </g>
     <g id="line2d_16">
      <g>
       <use xlink:href="#m549cf2c7a9" x="543.378048" y="320.4" style="fill: #a9a9a9; stroke: #a9a9a9; stroke-width: 0.8"/>
      </g>
     </g>
     <g id="text_8">
      <!-- 2023-04 -->
      <g style="fill: #a9a9a9" transform="translate(522.486642 334.998438) scale(0.1 -0.1)">
       <use xlink:href="#DejaVuSans-32"/>
       <use xlink:href="#DejaVuSans-30" x="63.623047"/>
       <use xlink:href="#DejaVuSans-32" x="127.246094"/>
       <use xlink:href="#DejaVuSans-33" x="190.869141"/>
       <use xlink:href="#DejaVuSans-2d" x="254.492188"/>
       <use xlink:href="#DejaVuSans-30" x="290.576172"/>
       <use xlink:href="#DejaVuSans-34" x="354.199219"/>
      </g>
     </g>
    </g>
    <g id="xtick_9">
     <g id="line2d_17">
      <path d="M 603.198979 320.4 
L 603.198979 43.2 
" clip-path="url(#pf7262b4e79)" style="fill: none; stroke-dasharray: 5.12,1.28,0.8,1.28; stroke-dashoffset: 0; stroke: #b0b0b0; stroke-width: 0.8"/>
     </g>
     <g id="line2d_18">
      <g>
       <use xlink:href="#m549cf2c7a9" x="603.198979" y="320.4" style="fill: #a9a9a9; stroke: #a9a9a9; stroke-width: 0.8"/>
      </g>
     </g>
     <g id="text_9">
      <!-- 2023-07 -->
      <g style="fill: #a9a9a9" transform="translate(582.307573 334.998438) scale(0.1 -0.1)">
       <use xlink:href="#DejaVuSans-32"/>
       <use xlink:href="#DejaVuSans-30" x="63.623047"/>
       <use xlink:href="#DejaVuSans-32" x="127.246094"/>
       <use xlink:href="#DejaVuSans-33" x="190.869141"/>
       <use xlink:href="#DejaVuSans-2d" x="254.492188"/>
       <use xlink:href="#DejaVuSans-30" x="290.576172"/>
       <use xlink:href="#DejaVuSans-37" x="354.199219"/>
      </g>
     </g>
    </g>
    <g id="xtick_10">
     <g id="line2d_19">
      <path d="M 663.677283 320.4 
L 663.677283 43.2 
" clip-path="url(#pf7262b4e79)" style="fill: none; stroke-dasharray: 5.12,1.28,0.8,1.28; stroke-dashoffset: 0; stroke: #b0b0b0; stroke-width: 0.8"/>
     </g>
     <g id="line2d_20">
      <g>
       <use xlink:href="#m549cf2c7a9" x="663.677283" y="320.4" style="fill: #a9a9a9; stroke: #a9a9a9; stroke-width: 0.8"/>
      </g>
     </g>
     <g id="text_10">
      <!-- 2023-10 -->
      <g style="fill: #a9a9a9" transform="translate(642.785876 334.998438) scale(0.1 -0.1)">
       <use xlink:href="#DejaVuSans-32"/>
       <use xlink:href="#DejaVuSans-30" x="63.623047"/>
       <use xlink:href="#DejaVuSans-32" x="127.246094"/>
       <use xlink:href="#DejaVuSans-33" x="190.869141"/>
       <use xlink:href="#DejaVuSans-2d" x="254.492188"/>
       <use xlink:href="#DejaVuSans-31" x="290.576172"/>
       <use xlink:href="#DejaVuSans-30" x="354.199219"/>
      </g>
     </g>
    </g>
    <g id="xtick_11">
     <g id="line2d_21">
      <path d="M 724.155586 320.4 
L 724.155586 43.2 
" clip-path="url(#pf7262b4e79)" style="fill: none; stroke-dasharray: 5.12,1.28,0.8,1.28; stroke-dashoffset: 0; stroke: #b0b0b0; stroke-width: 0.8"/>
     </g>
     <g id="line2d_22">
      <g>
       <use xlink:href="#m549cf2c7a9" x="724.155586" y="320.4" style="fill: #a9a9a9; stroke: #a9a9a9; stroke-width: 0.8"/>
      </g>
     </g>
     <g id="text_11">
      <!-- 2024-01 -->
      <g style="fill: #a9a9a9" transform="translate(703.26418 334.998438) scale(0.1 -0.1)">
       <use xlink:href="#DejaVuSans-32"/>
       <use xlink:href="#DejaVuSans-30" x="63.623047"/>
       <use xlink:href="#DejaVuSans-32" x="127.246094"/>
       <use xlink:href="#DejaVuSans-34" x="190.869141"/>
       <use xlink:href="#DejaVuSans-2d" x="254.492188"/>
       <use xlink:href="#DejaVuSans-30" x="290.576172"/>
       <use xlink:href="#DejaVuSans-31" x="354.199219"/>
      </g>
     </g>
    </g>
   </g>
   <g id="matplotlib.axis_2">
    <g id="ytick_1">
     <g id="line2d_23">
      <path d="M 108 307.845202 
L 777.6 307.845202 
" clip-path="url(#pf7262b4e79)" style="fill: none; stroke-dasharray: 5.12,1.28,0.8,1.28; stroke-dashoffset: 0; stroke: #b0b0b0; stroke-width: 0.8"/>
     </g>
     <g id="line2d_24">
      <defs>
       <path id="m423cbda82f" d="M 0 0 
L -3.5 0 
" style="stroke: #a9a9a9; stroke-width: 0.8"/>
      </defs>
      <g>
       <use xlink:href="#m423cbda82f" x="108" y="307.845202" style="fill: #a9a9a9; stroke: #a9a9a9; stroke-width: 0.8"/>
      </g>
     </g>
     <g id="text_12">
      <!-- 0 -->
      <g style="fill: #a9a9a9" transform="translate(94.6375 311.644421) scale(0.1 -0.1)">
       <use xlink:href="#DejaVuSans-30"/>
      </g>
     </g>
    </g>
    <g id="ytick_2">
     <g id="line2d_25">
      <path d="M 108 271.683767 
L 777.6 271.683767 
" clip-path="url(#pf7262b4e79)" style="fill: none; stroke-dasharray: 5.12,1.28,0.8,1.28; stroke-dashoffset: 0; stroke: #b0b0b0; stroke-width: 0.8"/>
     </g>
     <g id="line2d_26">
      <g>
       <use xlink:href="#m423cbda82f" x="108" y="271.683767" style="fill: #a9a9a9; stroke: #a9a9a9; stroke-width: 0.8"/>
      </g>
     </g>
     <g id="text_13">
      <!-- 800 -->
      <g style="fill: #a9a9a9" transform="translate(81.9125 275.482986) scale(0.1 -0.1)">
       <defs>
        <path id="DejaVuSans-38" d="M 2034 2216 
Q 1584 2216 1326 1975 
Q 1069 1734 1069 1313 
Q 1069 891 1326 650 
Q 1584 409 2034 409 
Q 2484 409 2743 651 
Q 3003 894 3003 1313 
Q 3003 1734 2745 1975 
Q 2488 2216 2034 2216 
z
M 1403 2484 
Q 997 2584 770 2862 
Q 544 3141 544 3541 
Q 544 4100 942 4425 
Q 1341 4750 2034 4750 
Q 2731 4750 3128 4425 
Q 3525 4100 3525 3541 
Q 3525 3141 3298 2862 
Q 3072 2584 2669 2484 
Q 3125 2378 3379 2068 
Q 3634 1759 3634 1313 
Q 3634 634 3220 271 
Q 2806 -91 2034 -91 
Q 1263 -91 848 271 
Q 434 634 434 1313 
Q 434 1759 690 2068 
Q 947 2378 1403 2484 
z
M 1172 3481 
Q 1172 3119 1398 2916 
Q 1625 2713 2034 2713 
Q 2441 2713 2670 2916 
Q 2900 3119 2900 3481 
Q 2900 3844 2670 4047 
Q 2441 4250 2034 4250 
Q 1625 4250 1398 4047 
Q 1172 3844 1172 3481 
z
" transform="scale(0.015625)"/>
       </defs>
       <use xlink:href="#DejaVuSans-38"/>
       <use xlink:href="#DejaVuSans-30" x="63.623047"/>
       <use xlink:href="#DejaVuSans-30" x="127.246094"/>
      </g>
     </g>
    </g>
    <g id="ytick_3">
     <g id="line2d_27">
      <path d="M 108 235.522332 
L 777.6 235.522332 
" clip-path="url(#pf7262b4e79)" style="fill: none; stroke-dasharray: 5.12,1.28,0.8,1.28; stroke-dashoffset: 0; stroke: #b0b0b0; stroke-width: 0.8"/>
     </g>
     <g id="line2d_28">
      <g>
       <use xlink:href="#m423cbda82f" x="108" y="235.522332" style="fill: #a9a9a9; stroke: #a9a9a9; stroke-width: 0.8"/>
      </g>
     </g>
     <g id="text_14">
      <!-- 1600 -->
      <g style="fill: #a9a9a9" transform="translate(75.55 239.321551) scale(0.1 -0.1)">
       <defs>
        <path id="DejaVuSans-36" d="M 2113 2584 
Q 1688 2584 1439 2293 
Q 1191 2003 1191 1497 
Q 1191 994 1439 701 
Q 1688 409 2113 409 
Q 2538 409 2786 701 
Q 3034 994 3034 1497 
Q 3034 2003 2786 2293 
Q 2538 2584 2113 2584 
z
M 3366 4563 
L 3366 3988 
Q 3128 4100 2886 4159 
Q 2644 4219 2406 4219 
Q 1781 4219 1451 3797 
Q 1122 3375 1075 2522 
Q 1259 2794 1537 2939 
Q 1816 3084 2150 3084 
Q 2853 3084 3261 2657 
Q 3669 2231 3669 1497 
Q 3669 778 3244 343 
Q 2819 -91 2113 -91 
Q 1303 -91 875 529 
Q 447 1150 447 2328 
Q 447 3434 972 4092 
Q 1497 4750 2381 4750 
Q 2619 4750 2861 4703 
Q 3103 4656 3366 4563 
z
" transform="scale(0.015625)"/>
       </defs>
       <use xlink:href="#DejaVuSans-31"/>
       <use xlink:href="#DejaVuSans-36" x="63.623047"/>
       <use xlink:href="#DejaVuSans-30" x="127.246094"/>
       <use xlink:href="#DejaVuSans-30" x="190.869141"/>
      </g>
     </g>
    </g>
    <g id="ytick_4">
     <g id="line2d_29">
      <path d="M 108 199.360897 
L 777.6 199.360897 
" clip-path="url(#pf7262b4e79)" style="fill: none; stroke-dasharray: 5.12,1.28,0.8,1.28; stroke-dashoffset: 0; stroke: #b0b0b0; stroke-width: 0.8"/>
     </g>
     <g id="line2d_30">
      <g>
       <use xlink:href="#m423cbda82f" x="108" y="199.360897" style="fill: #a9a9a9; stroke: #a9a9a9; stroke-width: 0.8"/>
      </g>
     </g>
     <g id="text_15">
      <!-- 2400 -->
      <g style="fill: #a9a9a9" transform="translate(75.55 203.160116) scale(0.1 -0.1)">
       <use xlink:href="#DejaVuSans-32"/>
       <use xlink:href="#DejaVuSans-34" x="63.623047"/>
       <use xlink:href="#DejaVuSans-30" x="127.246094"/>
       <use xlink:href="#DejaVuSans-30" x="190.869141"/>
      </g>
     </g>
    </g>
    <g id="ytick_5">
     <g id="line2d_31">
      <path d="M 108 163.199462 
L 777.6 163.199462 
" clip-path="url(#pf7262b4e79)" style="fill: none; stroke-dasharray: 5.12,1.28,0.8,1.28; stroke-dashoffset: 0; stroke: #b0b0b0; stroke-width: 0.8"/>
     </g>
     <g id="line2d_32">
      <g>
       <use xlink:href="#m423cbda82f" x="108" y="163.199462" style="fill: #a9a9a9; stroke: #a9a9a9; stroke-width: 0.8"/>
      </g>
     </g>
     <g id="text_16">
      <!-- 3200 -->
      <g style="fill: #a9a9a9" transform="translate(75.55 166.998681) scale(0.1 -0.1)">
       <use xlink:href="#DejaVuSans-33"/>
       <use xlink:href="#DejaVuSans-32" x="63.623047"/>
       <use xlink:href="#DejaVuSans-30" x="127.246094"/>
       <use xlink:href="#DejaVuSans-30" x="190.869141"/>
      </g>
     </g>
    </g>
    <g id="ytick_6">
     <g id="line2d_33">
      <path d="M 108 127.038027 
L 777.6 127.038027 
" clip-path="url(#pf7262b4e79)" style="fill: none; stroke-dasharray: 5.12,1.28,0.8,1.28; stroke-dashoffset: 0; stroke: #b0b0b0; stroke-width: 0.8"/>
     </g>
     <g id="line2d_34">
      <g>
       <use xlink:href="#m423cbda82f" x="108" y="127.038027" style="fill: #a9a9a9; stroke: #a9a9a9; stroke-width: 0.8"/>
      </g>
     </g>
     <g id="text_17">
      <!-- 4000 -->
      <g style="fill: #a9a9a9" transform="translate(75.55 130.837246) scale(0.1 -0.1)">
       <use xlink:href="#DejaVuSans-34"/>
       <use xlink:href="#DejaVuSans-30" x="63.623047"/>
       <use xlink:href="#DejaVuSans-30" x="127.246094"/>
       <use xlink:href="#DejaVuSans-30" x="190.869141"/>
      </g>
     </g>
    </g>
    <g id="ytick_7">
     <g id="line2d_35">
      <path d="M 108 90.876592 
L 777.6 90.876592 
" clip-path="url(#pf7262b4e79)" style="fill: none; stroke-dasharray: 5.12,1.28,0.8,1.28; stroke-dashoffset: 0; stroke: #b0b0b0; stroke-width: 0.8"/>
     </g>
     <g id="line2d_36">
      <g>
       <use xlink:href="#m423cbda82f" x="108" y="90.876592" style="fill: #a9a9a9; stroke: #a9a9a9; stroke-width: 0.8"/>
      </g>
     </g>
     <g id="text_18">
      <!-- 4800 -->
      <g style="fill: #a9a9a9" transform="translate(75.55 94.675811) scale(0.1 -0.1)">
       <use xlink:href="#DejaVuSans-34"/>
       <use xlink:href="#DejaVuSans-38" x="63.623047"/>
       <use xlink:href="#DejaVuSans-30" x="127.246094"/>
       <use xlink:href="#DejaVuSans-30" x="190.869141"/>
      </g>
     </g>
    </g>
    <g id="ytick_8">
     <g id="line2d_37">
      <path d="M 108 54.715157 
L 777.6 54.715157 
" clip-path="url(#pf7262b4e79)" style="fill: none; stroke-dasharray: 5.12,1.28,0.8,1.28; stroke-dashoffset: 0; stroke: #b0b0b0; stroke-width: 0.8"/>
     </g>
     <g id="line2d_38">
      <g>
       <use xlink:href="#m423cbda82f" x="108" y="54.715157" style="fill: #a9a9a9; stroke: #a9a9a9; stroke-width: 0.8"/>
      </g>
     </g>
     <g id="text_19">
      <!-- 5600 -->
      <g style="fill: #a9a9a9" transform="translate(75.55 58.514376) scale(0.1 -0.1)">
       <defs>
        <path id="DejaVuSans-35" d="M 691 4666 
L 3169 4666 
L 3169 4134 
L 1269 4134 
L 1269 2991 
Q 1406 3038 1543 3061 
Q 1681 3084 1819 3084 
Q 2600 3084 3056 2656 
Q 3513 2228 3513 1497 
Q 3513 744 3044 326 
Q 2575 -91 1722 -91 
Q 1428 -91 1123 -41 
Q 819 9 494 109 
L 494 744 
Q 775 591 1075 516 
Q 1375 441 1709 441 
Q 2250 441 2565 725 
Q 2881 1009 2881 1497 
Q 2881 1984 2565 2268 
Q 2250 2553 1709 2553 
Q 1456 2553 1204 2497 
Q 953 2441 691 2322 
L 691 4666 
z
" transform="scale(0.015625)"/>
       </defs>
       <use xlink:href="#DejaVuSans-35"/>
       <use xlink:href="#DejaVuSans-36" x="63.623047"/>
       <use xlink:href="#DejaVuSans-30" x="127.246094"/>
       <use xlink:href="#DejaVuSans-30" x="190.869141"/>
      </g>
     </g>
    </g>
   </g>
   <g id="line2d_39">
    <path d="M 138.436364 307.709596 
L 142.380601 307.393184 
L 143.037974 307.121973 
L 145.010092 306.895964 
L 149.611702 306.03713 
L 152.898567 305.720717 
L 153.55594 305.404305 
L 154.213312 305.223498 
L 154.870685 304.409865 
L 155.528058 303.957848 
L 156.185431 302.556592 
L 156.842804 302.466188 
L 157.500177 301.968969 
L 158.814922 301.336143 
L 161.444414 299.347265 
L 162.75916 298.804843 
L 163.416532 298.352825 
L 166.046024 297.22278 
L 166.703397 296.183139 
L 168.018143 295.233901 
L 168.675515 294.917489 
L 175.249244 294.013453 
L 175.906617 293.69704 
L 180.508227 293.335426 
L 182.480346 292.838206 
L 188.396701 292.069776 
L 189.054074 291.708161 
L 189.711447 291.617758 
L 190.36882 291.346547 
L 191.683566 291.120538 
L 192.340939 291.075336 
L 192.998311 290.849327 
L 195.627803 290.442511 
L 196.942549 290.080897 
L 198.914667 289.90009 
L 200.229413 289.764484 
L 200.886786 289.583677 
L 201.544159 289.538475 
L 203.516277 288.950852 
L 207.460514 288.363229 
L 208.117887 288.182422 
L 208.77526 287.278386 
L 210.747379 286.555157 
L 212.719497 286.012735 
L 213.37687 285.696323 
L 214.034243 285.651121 
L 217.321107 284.747085 
L 218.635853 284.656682 
L 219.293226 284.566278 
L 221.265345 283.978655 
L 223.894836 283.34583 
L 224.552209 283.074619 
L 225.209582 282.984215 
L 225.866955 282.667803 
L 232.440683 281.673363 
L 235.727548 280.769327 
L 236.38492 280.362511 
L 239.014412 279.684484 
L 240.329158 278.916054 
L 240.986531 278.464036 
L 242.958649 278.102422 
L 246.902886 276.927175 
L 248.217632 276.520359 
L 248.875005 276.429955 
L 250.189751 276.068341 
L 251.504496 275.751928 
L 252.161869 275.661525 
L 253.476615 275.119103 
L 254.133988 274.983498 
L 254.791361 274.712287 
L 255.448734 274.621883 
L 256.106106 274.305471 
L 256.763479 274.124664 
L 258.078225 274.03426 
L 259.392971 273.582242 
L 260.707716 273.491839 
L 261.365089 273.175426 
L 263.994581 272.723408 
L 266.624072 272.497399 
L 267.281445 272.361794 
L 268.596191 271.728969 
L 275.827292 268.700448 
L 276.484665 268.338834 
L 277.142038 267.615605 
L 277.799411 266.530762 
L 278.456784 265.671928 
L 279.114157 265.491121 
L 279.77153 265.491121 
L 281.086275 264.541883 
L 281.743648 264.361076 
L 282.401021 263.999462 
L 283.058394 263.863857 
L 283.715767 263.276233 
L 284.37314 263.095426 
L 286.345258 262.146188 
L 287.002631 261.332556 
L 287.660004 260.338117 
L 288.317377 259.9313 
L 288.97475 258.846457 
L 289.632123 258.16843 
L 290.289495 257.852018 
L 290.946868 257.671211 
L 293.57636 256.13435 
L 294.891105 255.094709 
L 295.548478 254.687892 
L 296.205851 253.738655 
L 296.863224 252.246996 
L 297.520597 251.297758 
L 298.17797 250.800538 
L 298.835343 250.529327 
L 301.464834 248.269238 
L 302.122207 247.81722 
L 303.436953 246.687175 
L 304.094326 245.783139 
L 305.409071 244.653094 
L 308.038563 242.980628 
L 308.695936 242.393004 
L 309.353308 242.257399 
L 311.325427 241.217758 
L 313.297546 240.223318 
L 314.612291 239.00287 
L 315.269664 238.234439 
L 316.58441 237.330404 
L 317.241783 237.149596 
L 317.899156 236.833184 
L 319.213901 235.97435 
L 319.871274 235.612735 
L 320.528647 235.522332 
L 321.843393 234.799103 
L 322.500766 234.437489 
L 323.158139 233.759462 
L 323.815511 233.352646 
L 324.472884 233.126637 
L 325.130257 232.674619 
L 327.759749 231.318565 
L 328.417122 230.730942 
L 331.046613 229.872108 
L 331.703986 229.42009 
L 332.361359 229.284484 
L 333.676104 228.832466 
L 335.648223 228.064036 
L 337.620342 227.340807 
L 338.935087 227.114798 
L 340.249833 225.984753 
L 341.564579 225.351928 
L 343.536697 224.221883 
L 344.851443 223.860269 
L 345.508816 223.453453 
L 346.166189 223.272646 
L 347.480935 222.413812 
L 348.138307 222.052197 
L 351.425172 221.283767 
L 353.39729 220.153722 
L 354.054663 220.063318 
L 354.712036 219.837309 
L 356.026782 219.566099 
L 357.9989 218.119641 
L 359.971019 217.667623 
L 360.628392 217.441614 
L 361.285765 216.944395 
L 365.230002 215.678744 
L 365.887375 215.633543 
L 370.488985 214.006278 
L 371.146358 213.689865 
L 373.118476 213.237848 
L 374.433222 212.921435 
L 375.090595 212.605022 
L 375.747968 212.469417 
L 377.720086 211.565381 
L 379.692205 210.616143 
L 380.349578 210.164126 
L 381.006951 209.983318 
L 382.979069 208.943677 
L 384.293815 208.627265 
L 385.608561 207.949238 
L 386.923306 207.587623 
L 387.580679 207.49722 
L 388.238052 207.045202 
L 388.895425 206.728789 
L 389.552798 206.593184 
L 390.867544 206.050762 
L 391.524917 205.915157 
L 392.182289 205.553543 
L 394.811781 205.146726 
L 396.126527 204.513901 
L 396.783899 203.97148 
L 397.441272 202.841435 
L 398.756018 202.570224 
L 399.413391 202.434619 
L 402.042882 201.078565 
L 402.700255 200.94296 
L 407.959238 198.456861 
L 409.931357 198.050045 
L 410.58873 197.68843 
L 414.532967 196.332377 
L 415.847713 195.518744 
L 416.505085 195.066726 
L 417.162458 194.750314 
L 417.819831 194.65991 
L 418.477204 194.433901 
L 419.134577 194.3887 
L 422.421441 193.529865 
L 423.078814 193.032646 
L 424.39356 192.580628 
L 426.365678 191.947803 
L 427.023051 191.540987 
L 427.680424 191.360179 
L 428.337797 190.908161 
L 428.99517 190.636951 
L 429.652543 190.230135 
L 430.309916 189.958924 
L 431.624661 189.642511 
L 433.59678 188.874081 
L 435.568898 187.382422 
L 436.226271 187.246816 
L 437.541017 186.252377 
L 438.19839 186.116771 
L 438.855763 185.122332 
L 439.513136 184.851121 
L 440.170509 184.353901 
L 440.827881 184.263498 
L 441.485254 183.81148 
L 442.142627 183.495067 
L 442.8 183.359462 
L 443.457373 183.088251 
L 444.114746 182.591031 
L 444.772119 182.365022 
L 446.744237 181.05417 
L 449.373729 179.743318 
L 450.031102 179.652915 
L 451.345847 179.065291 
L 452.00322 178.703677 
L 452.660593 177.618834 
L 453.317966 177.031211 
L 453.975339 176.669596 
L 454.632712 176.533991 
L 455.947457 175.720359 
L 456.60483 175.584753 
L 457.919576 174.951928 
L 459.891694 174.138296 
L 461.20644 173.23426 
L 462.521186 171.878206 
L 463.835932 171.064574 
L 464.493305 170.657758 
L 465.150677 169.979731 
L 465.80805 169.527713 
L 467.122796 168.44287 
L 467.780169 168.171659 
L 468.437542 167.44843 
L 469.094915 166.951211 
L 470.40966 166.499193 
L 471.067033 165.956771 
L 472.381779 165.278744 
L 473.039152 165.097937 
L 473.696525 164.645919 
L 474.353898 164.510314 
L 476.326016 163.470673 
L 476.983389 163.018655 
L 478.298135 162.476233 
L 478.955508 162.340628 
L 479.61288 161.933812 
L 482.899745 160.89417 
L 483.557118 160.713363 
L 484.21449 160.396951 
L 484.871863 159.809327 
L 486.843982 159.086099 
L 488.158728 158.679283 
L 488.816101 158.182063 
L 491.445592 156.826009 
L 492.102965 156.464395 
L 493.417711 153.887892 
L 494.732456 152.351031 
L 495.389829 151.899013 
L 497.361948 151.040179 
L 498.019321 150.81417 
L 498.676694 150.723767 
L 499.334066 150.362152 
L 501.306185 149.774529 
L 503.935676 148.599283 
L 504.593049 148.192466 
L 505.907795 147.740448 
L 509.852032 145.480359 
L 510.509405 144.802332 
L 511.824151 144.079103 
L 512.481524 143.717489 
L 513.138897 143.49148 
L 513.796269 143.039462 
L 515.111015 142.406637 
L 517.083134 141.366996 
L 517.740507 141.186188 
L 518.397879 140.688969 
L 519.055252 140.417758 
L 519.712625 140.282152 
L 521.027371 139.830135 
L 522.999489 139.106906 
L 523.656862 138.609686 
L 524.971608 138.248072 
L 526.286354 137.750852 
L 526.943727 137.20843 
L 528.258472 136.801614 
L 528.915845 136.485202 
L 529.573218 136.304395 
L 530.887964 135.400359 
L 532.20271 134.812735 
L 533.517455 133.818296 
L 534.832201 133.366278 
L 535.489574 132.823857 
L 536.146947 132.733453 
L 537.461693 131.784215 
L 538.776438 131.15139 
L 539.433811 130.880179 
L 540.091184 130.202152 
L 544.035421 128.800897 
L 546.00754 127.942063 
L 547.979658 127.354439 
L 549.294404 127.173632 
L 549.951777 126.902422 
L 550.60915 126.812018 
L 551.923896 126.269596 
L 552.581268 126.224395 
L 555.21076 125.275157 
L 557.182878 123.919103 
L 561.127116 121.975426 
L 562.441861 121.161794 
L 563.099234 120.754978 
L 564.41398 120.438565 
L 565.728726 119.534529 
L 568.358217 118.720897 
L 569.01559 118.449686 
L 570.330336 118.133274 
L 573.6172 117.04843 
L 575.589319 116.686816 
L 576.246692 116.506009 
L 576.904064 116.189596 
L 577.561437 116.099193 
L 578.876183 115.556771 
L 579.533556 115.466368 
L 580.190929 115.149955 
L 581.505674 114.878744 
L 582.163047 114.562332 
L 584.135166 114.110314 
L 585.449912 113.839103 
L 589.394149 113.115874 
L 590.708895 112.844664 
L 591.366267 112.709058 
L 592.02364 112.437848 
L 592.681013 112.392646 
L 594.653132 111.850224 
L 595.310505 111.48861 
L 598.597369 110.674978 
L 599.254742 110.539372 
L 600.569488 110.087354 
L 602.541606 109.409327 
L 603.198979 109.318924 
L 605.171098 108.640897 
L 605.82847 108.640897 
L 607.143216 108.188879 
L 607.800589 107.556054 
L 608.457962 107.239641 
L 609.772708 106.832825 
L 612.402199 105.838386 
L 613.059572 105.70278 
L 613.716945 105.295964 
L 614.374318 105.160359 
L 615.031691 104.753543 
L 618.318555 103.804305 
L 618.975928 103.397489 
L 619.633301 103.216682 
L 620.290673 102.67426 
L 622.262792 102.312646 
L 623.577538 101.589417 
L 624.234911 100.866188 
L 625.549656 100.594978 
L 630.151266 99.555336 
L 630.808639 99.374529 
L 632.123385 99.329327 
L 632.780758 99.012915 
L 635.410249 98.560897 
L 636.067622 98.244484 
L 638.039741 97.973274 
L 640.669232 97.159641 
L 642.641351 96.707623 
L 644.613469 96.210404 
L 647.242961 95.396771 
L 647.900334 95.261166 
L 648.557707 94.944753 
L 649.21508 94.85435 
L 649.872452 94.628341 
L 650.529825 94.221525 
L 652.501944 93.498296 
L 653.159317 93.001076 
L 654.474062 92.639462 
L 655.131435 92.368251 
L 656.446181 92.006637 
L 659.075672 90.83139 
L 661.047791 90.695785 
L 663.677283 89.882152 
L 664.334655 89.475336 
L 665.649401 89.06852 
L 667.62152 88.074081 
L 668.278893 87.938475 
L 668.936265 87.622063 
L 669.593638 87.531659 
L 676.82474 85.135964 
L 679.454231 84.503139 
L 680.111604 84.322332 
L 681.42635 83.689507 
L 682.083723 83.599103 
L 683.398468 83.237489 
L 684.055841 82.740269 
L 684.713214 82.423857 
L 685.370587 81.655426 
L 686.02796 81.158206 
L 687.342706 80.75139 
L 688.000079 80.208969 
L 695.23118 77.270852 
L 696.545926 76.954439 
L 697.860672 76.366816 
L 699.83279 75.19157 
L 700.490163 75.055964 
L 701.147536 74.558744 
L 702.462282 73.925919 
L 703.777027 73.112287 
L 705.749146 72.208251 
L 706.406519 71.756233 
L 707.721264 71.259013 
L 708.378637 70.806996 
L 709.693383 70.17417 
L 710.350756 69.722152 
L 711.665502 69.270135 
L 712.322875 69.134529 
L 714.952366 67.959283 
L 718.23923 66.829238 
L 718.896603 66.784036 
L 719.553976 66.603229 
L 720.211349 66.196413 
L 720.868722 66.106009 
L 721.526095 65.834798 
L 723.498213 65.427982 
L 726.785078 63.755516 
L 728.099823 63.032287 
L 728.757196 62.941883 
L 730.729315 61.85704 
L 732.701433 61.133812 
L 734.673552 60.274978 
L 737.303043 59.235336 
L 737.960416 59.054529 
L 738.617789 58.647713 
L 739.275162 58.602511 
L 739.932535 58.421704 
L 740.589908 57.969686 
L 741.247281 57.924484 
L 742.562026 57.517668 
L 743.876772 56.884843 
L 744.534145 56.794439 
L 745.191518 56.523229 
L 745.848891 56.387623 
L 747.163636 55.8 
L 747.163636 55.8 
" clip-path="url(#pf7262b4e79)" style="fill: none; stroke: #1f77b4; stroke-width: 1.5; stroke-linecap: square"/>
   </g>
   <g id="line2d_40">
    <path d="M 139.093737 307.8 
L 141.065855 307.709596 
L 143.037974 307.664395 
L 146.982211 307.573991 
L 150.269075 307.438386 
L 152.898567 307.438386 
L 153.55594 307.257578 
L 156.185431 307.167175 
L 158.15755 306.941166 
L 160.129668 306.760359 
L 164.073905 306.579552 
L 164.731278 306.579552 
L 165.388651 306.443946 
L 168.018143 306.353543 
L 169.332888 306.263139 
L 174.591871 306.172735 
L 177.878736 306.03713 
L 185.76721 305.946726 
L 189.054074 305.811121 
L 192.998311 305.720717 
L 195.627803 305.630314 
L 201.544159 305.53991 
L 203.516277 305.494709 
L 205.488396 305.449507 
L 207.460514 305.223498 
L 211.404752 305.178296 
L 212.719497 305.087892 
L 217.321107 304.997489 
L 224.552209 304.590673 
L 229.153819 304.500269 
L 230.468565 304.409865 
L 232.440683 304.319462 
L 236.38492 304.138655 
L 239.014412 304.093453 
L 240.986531 303.912646 
L 251.504496 303.279821 
L 254.133988 303.189417 
L 258.735598 302.963408 
L 260.707716 302.873004 
L 267.281445 302.51139 
L 274.512547 302.420987 
L 277.142038 302.149776 
L 278.456784 302.059372 
L 287.002631 301.381345 
L 290.946868 300.884126 
L 293.57636 300.793722 
L 298.835343 300.115695 
L 302.122207 300.025291 
L 310.668054 299.347265 
L 314.612291 298.895247 
L 316.58441 298.850045 
L 317.899156 298.759641 
L 320.528647 298.669238 
L 321.843393 298.578834 
L 325.130257 298.262422 
L 325.78763 298.081614 
L 329.731867 297.900807 
L 333.018732 297.810404 
L 341.564579 297.313184 
L 343.536697 297.22278 
L 352.082545 296.725561 
L 356.684155 296.635157 
L 357.341528 296.499552 
L 362.600511 296.409148 
L 367.202121 296.183139 
L 374.433222 296.092735 
L 379.034832 295.866726 
L 384.293815 295.776323 
L 389.552798 295.505112 
L 394.154408 295.414709 
L 406.644492 294.646278 
L 411.903475 294.555874 
L 428.99517 293.471031 
L 432.939407 293.380628 
L 434.911526 293.335426 
L 436.883644 293.290224 
L 438.855763 293.109417 
L 444.114746 293.019013 
L 445.429491 292.793004 
L 446.744237 292.702601 
L 450.031102 292.566996 
L 451.345847 292.476592 
L 452.660593 292.386188 
L 458.576949 292.295785 
L 459.891694 292.160179 
L 462.521186 292.114978 
L 463.178559 291.979372 
L 464.493305 291.888969 
L 465.150677 291.753363 
L 467.122796 291.66296 
L 478.298135 290.984933 
L 480.270253 290.894529 
L 483.557118 290.758924 
L 492.760338 290.66852 
L 497.361948 290.442511 
L 502.620931 290.352108 
L 505.250422 290.261704 
L 507.879914 290.216502 
L 509.194659 290.080897 
L 511.824151 289.990493 
L 518.397879 289.628879 
L 522.342117 289.583677 
L 524.314235 289.40287 
L 526.286354 289.357668 
L 530.887964 289.267265 
L 533.517455 289.176861 
L 539.433811 289.086457 
L 542.063303 288.996054 
L 546.00754 288.90565 
L 552.581268 288.544036 
L 555.868133 288.453632 
L 557.182878 288.318027 
L 565.071353 288.227623 
L 567.700844 288.13722 
L 576.904064 288.046816 
L 578.876183 288.001614 
L 582.82042 287.911211 
L 584.792539 287.866009 
L 593.338386 287.775605 
L 594.653132 287.685202 
L 601.884233 287.594798 
L 604.513725 287.504395 
L 612.402199 287.459193 
L 613.716945 287.368789 
L 623.577538 287.323587 
L 625.549656 287.14278 
L 636.724995 287.052377 
L 638.697114 287.007175 
L 655.788808 286.916771 
L 658.4183 286.826368 
L 670.251011 286.735964 
L 672.880503 286.645561 
L 677.482113 286.555157 
L 682.741096 286.283946 
L 685.370587 286.193543 
L 688.000079 286.103139 
L 691.944316 286.012735 
L 693.916434 285.967534 
L 696.545926 285.87713 
L 698.518044 285.831928 
L 701.804909 285.741525 
L 703.119654 285.605919 
L 707.063892 285.515516 
L 714.294993 285.1087 
L 717.581857 285.018296 
L 720.211349 284.927892 
L 724.812959 284.837489 
L 727.44245 284.747085 
L 732.701433 284.656682 
L 734.673552 284.61148 
L 737.960416 284.521076 
L 741.904653 284.340269 
L 747.163636 284.249865 
L 747.163636 284.249865 
" clip-path="url(#pf7262b4e79)" style="fill: none; stroke: #ff7f0e; stroke-width: 1.5; stroke-linecap: square"/>
   </g>
   <g id="patch_3">
    <path d="M 108 320.4 
L 108 43.2 
" style="fill: none; stroke: #a9a9a9; stroke-width: 0.8; stroke-linejoin: miter; stroke-linecap: square"/>
   </g>
   <g id="patch_4">
    <path d="M 777.6 320.4 
L 777.6 43.2 
" style="fill: none"/>
   </g>
   <g id="patch_5">
    <path d="M 108 320.4 
L 777.6 320.4 
" style="fill: none; stroke: #a9a9a9; stroke-width: 0.8; stroke-linejoin: miter; stroke-linecap: square"/>
   </g>
   <g id="patch_6">
    <path d="M 108 43.2 
L 777.6 43.2 
" style="fill: none"/>
   </g>
   <g id="text_20">
    <!-- get_subscribe history -->
    <g style="fill: #a9a9a9" transform="translate(378.6075 37.2) scale(0.12 -0.12)">
     <defs>
      <path id="DejaVuSans-67" d="M 2906 1791 
Q 2906 2416 2648 2759 
Q 2391 3103 1925 3103 
Q 1463 3103 1205 2759 
Q 947 2416 947 1791 
Q 947 1169 1205 825 
Q 1463 481 1925 481 
Q 2391 481 2648 825 
Q 2906 1169 2906 1791 
z
M 3481 434 
Q 3481 -459 3084 -895 
Q 2688 -1331 1869 -1331 
Q 1566 -1331 1297 -1286 
Q 1028 -1241 775 -1147 
L 775 -588 
Q 1028 -725 1275 -790 
Q 1522 -856 1778 -856 
Q 2344 -856 2625 -561 
Q 2906 -266 2906 331 
L 2906 616 
Q 2728 306 2450 153 
Q 2172 0 1784 0 
Q 1141 0 747 490 
Q 353 981 353 1791 
Q 353 2603 747 3093 
Q 1141 3584 1784 3584 
Q 2172 3584 2450 3431 
Q 2728 3278 2906 2969 
L 2906 3500 
L 3481 3500 
L 3481 434 
z
" transform="scale(0.015625)"/>
      <path id="DejaVuSans-65" d="M 3597 1894 
L 3597 1613 
L 953 1613 
Q 991 1019 1311 708 
Q 1631 397 2203 397 
Q 2534 397 2845 478 
Q 3156 559 3463 722 
L 3463 178 
Q 3153 47 2828 -22 
Q 2503 -91 2169 -91 
Q 1331 -91 842 396 
Q 353 884 353 1716 
Q 353 2575 817 3079 
Q 1281 3584 2069 3584 
Q 2775 3584 3186 3129 
Q 3597 2675 3597 1894 
z
M 3022 2063 
Q 3016 2534 2758 2815 
Q 2500 3097 2075 3097 
Q 1594 3097 1305 2825 
Q 1016 2553 972 2059 
L 3022 2063 
z
" transform="scale(0.015625)"/>
      <path id="DejaVuSans-74" d="M 1172 4494 
L 1172 3500 
L 2356 3500 
L 2356 3053 
L 1172 3053 
L 1172 1153 
Q 1172 725 1289 603 
Q 1406 481 1766 481 
L 2356 481 
L 2356 0 
L 1766 0 
Q 1100 0 847 248 
Q 594 497 594 1153 
L 594 3053 
L 172 3053 
L 172 3500 
L 594 3500 
L 594 4494 
L 1172 4494 
z
" transform="scale(0.015625)"/>
      <path id="DejaVuSans-5f" d="M 3263 -1063 
L 3263 -1509 
L -63 -1509 
L -63 -1063 
L 3263 -1063 
z
" transform="scale(0.015625)"/>
      <path id="DejaVuSans-73" d="M 2834 3397 
L 2834 2853 
Q 2591 2978 2328 3040 
Q 2066 3103 1784 3103 
Q 1356 3103 1142 2972 
Q 928 2841 928 2578 
Q 928 2378 1081 2264 
Q 1234 2150 1697 2047 
L 1894 2003 
Q 2506 1872 2764 1633 
Q 3022 1394 3022 966 
Q 3022 478 2636 193 
Q 2250 -91 1575 -91 
Q 1294 -91 989 -36 
Q 684 19 347 128 
L 347 722 
Q 666 556 975 473 
Q 1284 391 1588 391 
Q 1994 391 2212 530 
Q 2431 669 2431 922 
Q 2431 1156 2273 1281 
Q 2116 1406 1581 1522 
L 1381 1569 
Q 847 1681 609 1914 
Q 372 2147 372 2553 
Q 372 3047 722 3315 
Q 1072 3584 1716 3584 
Q 2034 3584 2315 3537 
Q 2597 3491 2834 3397 
z
" transform="scale(0.015625)"/>
      <path id="DejaVuSans-75" d="M 544 1381 
L 544 3500 
L 1119 3500 
L 1119 1403 
Q 1119 906 1312 657 
Q 1506 409 1894 409 
Q 2359 409 2629 706 
Q 2900 1003 2900 1516 
L 2900 3500 
L 3475 3500 
L 3475 0 
L 2900 0 
L 2900 538 
Q 2691 219 2414 64 
Q 2138 -91 1772 -91 
Q 1169 -91 856 284 
Q 544 659 544 1381 
z
M 1991 3584 
L 1991 3584 
z
" transform="scale(0.015625)"/>
      <path id="DejaVuSans-62" d="M 3116 1747 
Q 3116 2381 2855 2742 
Q 2594 3103 2138 3103 
Q 1681 3103 1420 2742 
Q 1159 2381 1159 1747 
Q 1159 1113 1420 752 
Q 1681 391 2138 391 
Q 2594 391 2855 752 
Q 3116 1113 3116 1747 
z
M 1159 2969 
Q 1341 3281 1617 3432 
Q 1894 3584 2278 3584 
Q 2916 3584 3314 3078 
Q 3713 2572 3713 1747 
Q 3713 922 3314 415 
Q 2916 -91 2278 -91 
Q 1894 -91 1617 61 
Q 1341 213 1159 525 
L 1159 0 
L 581 0 
L 581 4863 
L 1159 4863 
L 1159 2969 
z
" transform="scale(0.015625)"/>
      <path id="DejaVuSans-63" d="M 3122 3366 
L 3122 2828 
Q 2878 2963 2633 3030 
Q 2388 3097 2138 3097 
Q 1578 3097 1268 2742 
Q 959 2388 959 1747 
Q 959 1106 1268 751 
Q 1578 397 2138 397 
Q 2388 397 2633 464 
Q 2878 531 3122 666 
L 3122 134 
Q 2881 22 2623 -34 
Q 2366 -91 2075 -91 
Q 1284 -91 818 406 
Q 353 903 353 1747 
Q 353 2603 823 3093 
Q 1294 3584 2113 3584 
Q 2378 3584 2631 3529 
Q 2884 3475 3122 3366 
z
" transform="scale(0.015625)"/>
      <path id="DejaVuSans-72" d="M 2631 2963 
Q 2534 3019 2420 3045 
Q 2306 3072 2169 3072 
Q 1681 3072 1420 2755 
Q 1159 2438 1159 1844 
L 1159 0 
L 581 0 
L 581 3500 
L 1159 3500 
L 1159 2956 
Q 1341 3275 1631 3429 
Q 1922 3584 2338 3584 
Q 2397 3584 2469 3576 
Q 2541 3569 2628 3553 
L 2631 2963 
z
" transform="scale(0.015625)"/>
      <path id="DejaVuSans-69" d="M 603 3500 
L 1178 3500 
L 1178 0 
L 603 0 
L 603 3500 
z
M 603 4863 
L 1178 4863 
L 1178 4134 
L 603 4134 
L 603 4863 
z
" transform="scale(0.015625)"/>
      <path id="DejaVuSans-20" transform="scale(0.015625)"/>
      <path id="DejaVuSans-68" d="M 3513 2113 
L 3513 0 
L 2938 0 
L 2938 2094 
Q 2938 2591 2744 2837 
Q 2550 3084 2163 3084 
Q 1697 3084 1428 2787 
Q 1159 2491 1159 1978 
L 1159 0 
L 581 0 
L 581 4863 
L 1159 4863 
L 1159 2956 
Q 1366 3272 1645 3428 
Q 1925 3584 2291 3584 
Q 2894 3584 3203 3211 
Q 3513 2838 3513 2113 
z
" transform="scale(0.015625)"/>
      <path id="DejaVuSans-6f" d="M 1959 3097 
Q 1497 3097 1228 2736 
Q 959 2375 959 1747 
Q 959 1119 1226 758 
Q 1494 397 1959 397 
Q 2419 397 2687 759 
Q 2956 1122 2956 1747 
Q 2956 2369 2687 2733 
Q 2419 3097 1959 3097 
z
M 1959 3584 
Q 2709 3584 3137 3096 
Q 3566 2609 3566 1747 
Q 3566 888 3137 398 
Q 2709 -91 1959 -91 
Q 1206 -91 779 398 
Q 353 888 353 1747 
Q 353 2609 779 3096 
Q 1206 3584 1959 3584 
z
" transform="scale(0.015625)"/>
      <path id="DejaVuSans-79" d="M 2059 -325 
Q 1816 -950 1584 -1140 
Q 1353 -1331 966 -1331 
L 506 -1331 
L 506 -850 
L 844 -850 
Q 1081 -850 1212 -737 
Q 1344 -625 1503 -206 
L 1606 56 
L 191 3500 
L 800 3500 
L 1894 763 
L 2988 3500 
L 3597 3500 
L 2059 -325 
z
" transform="scale(0.015625)"/>
     </defs>
     <use xlink:href="#DejaVuSans-67"/>
     <use xlink:href="#DejaVuSans-65" x="63.476562"/>
     <use xlink:href="#DejaVuSans-74" x="125"/>
     <use xlink:href="#DejaVuSans-5f" x="164.208984"/>
     <use xlink:href="#DejaVuSans-73" x="214.208984"/>
     <use xlink:href="#DejaVuSans-75" x="266.308594"/>
     <use xlink:href="#DejaVuSans-62" x="329.6875"/>
     <use xlink:href="#DejaVuSans-73" x="393.164062"/>
     <use xlink:href="#DejaVuSans-63" x="445.263672"/>
     <use xlink:href="#DejaVuSans-72" x="500.244141"/>
     <use xlink:href="#DejaVuSans-69" x="541.357422"/>
     <use xlink:href="#DejaVuSans-62" x="569.140625"/>
     <use xlink:href="#DejaVuSans-65" x="632.617188"/>
     <use xlink:href="#DejaVuSans-20" x="694.140625"/>
     <use xlink:href="#DejaVuSans-68" x="725.927734"/>
     <use xlink:href="#DejaVuSans-69" x="789.306641"/>
     <use xlink:href="#DejaVuSans-73" x="817.089844"/>
     <use xlink:href="#DejaVuSans-74" x="869.189453"/>
     <use xlink:href="#DejaVuSans-6f" x="908.398438"/>
     <use xlink:href="#DejaVuSans-72" x="969.580078"/>
     <use xlink:href="#DejaVuSans-79" x="1010.693359"/>
    </g>
   </g>
   <g id="legend_1">
    <g id="line2d_41">
     <path d="M 815.08 328.498438 
L 825.08 328.498438 
L 835.08 328.498438 
" style="fill: none; stroke: #1f77b4; stroke-width: 1.5; stroke-linecap: square"/>
    </g>
    <g id="text_21">
     <!-- star -->
     <g style="fill: #a9a9a9" transform="translate(843.08 331.998438) scale(0.1 -0.1)">
      <defs>
       <path id="DejaVuSans-61" d="M 2194 1759 
Q 1497 1759 1228 1600 
Q 959 1441 959 1056 
Q 959 750 1161 570 
Q 1363 391 1709 391 
Q 2188 391 2477 730 
Q 2766 1069 2766 1631 
L 2766 1759 
L 2194 1759 
z
M 3341 1997 
L 3341 0 
L 2766 0 
L 2766 531 
Q 2569 213 2275 61 
Q 1981 -91 1556 -91 
Q 1019 -91 701 211 
Q 384 513 384 1019 
Q 384 1609 779 1909 
Q 1175 2209 1959 2209 
L 2766 2209 
L 2766 2266 
Q 2766 2663 2505 2880 
Q 2244 3097 1772 3097 
Q 1472 3097 1187 3025 
Q 903 2953 641 2809 
L 641 3341 
Q 956 3463 1253 3523 
Q 1550 3584 1831 3584 
Q 2591 3584 2966 3190 
Q 3341 2797 3341 1997 
z
" transform="scale(0.015625)"/>
      </defs>
      <use xlink:href="#DejaVuSans-73"/>
      <use xlink:href="#DejaVuSans-74" x="52.099609"/>
      <use xlink:href="#DejaVuSans-61" x="91.308594"/>
      <use xlink:href="#DejaVuSans-72" x="152.587891"/>
     </g>
    </g>
    <g id="line2d_42">
     <path d="M 815.08 343.176562 
L 825.08 343.176562 
L 835.08 343.176562 
" style="fill: none; stroke: #ff7f0e; stroke-width: 1.5; stroke-linecap: square"/>
    </g>
    <g id="text_22">
     <!-- fork -->
     <g style="fill: #a9a9a9" transform="translate(843.08 346.676562) scale(0.1 -0.1)">
      <defs>
       <path id="DejaVuSans-66" d="M 2375 4863 
L 2375 4384 
L 1825 4384 
Q 1516 4384 1395 4259 
Q 1275 4134 1275 3809 
L 1275 3500 
L 2222 3500 
L 2222 3053 
L 1275 3053 
L 1275 0 
L 697 0 
L 697 3053 
L 147 3053 
L 147 3500 
L 697 3500 
L 697 3744 
Q 697 4328 969 4595 
Q 1241 4863 1831 4863 
L 2375 4863 
z
" transform="scale(0.015625)"/>
       <path id="DejaVuSans-6b" d="M 581 4863 
L 1159 4863 
L 1159 1991 
L 2875 3500 
L 3609 3500 
L 1753 1863 
L 3688 0 
L 2938 0 
L 1159 1709 
L 1159 0 
L 581 0 
L 581 4863 
z
" transform="scale(0.015625)"/>
      </defs>
      <use xlink:href="#DejaVuSans-66"/>
      <use xlink:href="#DejaVuSans-6f" x="35.205078"/>
      <use xlink:href="#DejaVuSans-72" x="96.386719"/>
      <use xlink:href="#DejaVuSans-6b" x="137.5"/>
     </g>
    </g>
   </g>
  </g>
 </g>
 <defs>
  <clipPath id="pf7262b4e79">
   <rect x="108" y="43.2" width="669.6" height="277.2"/>
  </clipPath>
 </defs>
</svg>
