<?xml version="1.0" encoding="utf-8" standalone="no"?>
<!DOCTYPE svg PUBLIC "-//W3C//DTD SVG 1.1//EN"
  "http://www.w3.org/Graphics/SVG/1.1/DTD/svg11.dtd">
<svg xmlns:xlink="http://www.w3.org/1999/xlink" width="864pt" height="360pt" viewBox="0 0 864 360" xmlns="http://www.w3.org/2000/svg" version="1.1">
 <metadata>
  <rdf:RDF xmlns:dc="http://purl.org/dc/elements/1.1/" xmlns:cc="http://creativecommons.org/ns#" xmlns:rdf="http://www.w3.org/1999/02/22-rdf-syntax-ns#">
   <cc:Work>
    <dc:type rdf:resource="http://purl.org/dc/dcmitype/StillImage"/>
    <dc:date>2024-02-07T20:04:55.636011</dc:date>
    <dc:format>image/svg+xml</dc:format>
    <dc:creator>
     <cc:Agent>
      <dc:title>Matplotlib v3.8.2, https://matplotlib.org/</dc:title>
     </cc:Agent>
    </dc:creator>
   </cc:Work>
  </rdf:RDF>
 </metadata>
 <defs>
  <style type="text/css">*{stroke-linejoin: round; stroke-linecap: butt}</style>
 </defs>
 <g id="figure_1">
  <g id="patch_1">
   <path d="M 0 360 
L 864 360 
L 864 0 
L 0 0 
L 0 360 
z
" style="fill: none; opacity: 0"/>
  </g>
  <g id="axes_1">
   <g id="patch_2">
    <path d="M 108 320.4 
L 777.6 320.4 
L 777.6 43.2 
L 108 43.2 
L 108 320.4 
z
" style="fill: none; opacity: 0"/>
   </g>
   <g id="matplotlib.axis_1">
    <g id="xtick_1">
     <g id="line2d_1">
      <path d="M 123.349373 320.4 
L 123.349373 43.2 
" clip-path="url(#p407e7a0a0f)" style="fill: none; stroke-dasharray: 5.12,1.28,0.8,1.28; stroke-dashoffset: 0; stroke: #b0b0b0; stroke-width: 0.8"/>
     </g>
     <g id="line2d_2">
      <defs>
       <path id="m6feaf1278c" d="M 0 0 
L 0 3.5 
" style="stroke: #a9a9a9; stroke-width: 0.8"/>
      </defs>
      <g>
       <use xlink:href="#m6feaf1278c" x="123.349373" y="320.4" style="fill: #a9a9a9; stroke: #a9a9a9; stroke-width: 0.8"/>
      </g>
     </g>
     <g id="text_1">
      <!-- 2021-07 -->
      <g style="fill: #a9a9a9" transform="translate(102.457967 334.998438) scale(0.1 -0.1)">
       <defs>
        <path id="DejaVuSans-32" d="M 1228 531 
L 3431 531 
L 3431 0 
L 469 0 
L 469 531 
Q 828 903 1448 1529 
Q 2069 2156 2228 2338 
Q 2531 2678 2651 2914 
Q 2772 3150 2772 3378 
Q 2772 3750 2511 3984 
Q 2250 4219 1831 4219 
Q 1534 4219 1204 4116 
Q 875 4013 500 3803 
L 500 4441 
Q 881 4594 1212 4672 
Q 1544 4750 1819 4750 
Q 2544 4750 2975 4387 
Q 3406 4025 3406 3419 
Q 3406 3131 3298 2873 
Q 3191 2616 2906 2266 
Q 2828 2175 2409 1742 
Q 1991 1309 1228 531 
z
" transform="scale(0.015625)"/>
        <path id="DejaVuSans-30" d="M 2034 4250 
Q 1547 4250 1301 3770 
Q 1056 3291 1056 2328 
Q 1056 1369 1301 889 
Q 1547 409 2034 409 
Q 2525 409 2770 889 
Q 3016 1369 3016 2328 
Q 3016 3291 2770 3770 
Q 2525 4250 2034 4250 
z
M 2034 4750 
Q 2819 4750 3233 4129 
Q 3647 3509 3647 2328 
Q 3647 1150 3233 529 
Q 2819 -91 2034 -91 
Q 1250 -91 836 529 
Q 422 1150 422 2328 
Q 422 3509 836 4129 
Q 1250 4750 2034 4750 
z
" transform="scale(0.015625)"/>
        <path id="DejaVuSans-31" d="M 794 531 
L 1825 531 
L 1825 4091 
L 703 3866 
L 703 4441 
L 1819 4666 
L 2450 4666 
L 2450 531 
L 3481 531 
L 3481 0 
L 794 0 
L 794 531 
z
" transform="scale(0.015625)"/>
        <path id="DejaVuSans-2d" d="M 313 2009 
L 1997 2009 
L 1997 1497 
L 313 1497 
L 313 2009 
z
" transform="scale(0.015625)"/>
        <path id="DejaVuSans-37" d="M 525 4666 
L 3525 4666 
L 3525 4397 
L 1831 0 
L 1172 0 
L 2766 4134 
L 525 4134 
L 525 4666 
z
" transform="scale(0.015625)"/>
       </defs>
       <use xlink:href="#DejaVuSans-32"/>
       <use xlink:href="#DejaVuSans-30" x="63.623047"/>
       <use xlink:href="#DejaVuSans-32" x="127.246094"/>
       <use xlink:href="#DejaVuSans-31" x="190.869141"/>
       <use xlink:href="#DejaVuSans-2d" x="254.492188"/>
       <use xlink:href="#DejaVuSans-30" x="290.576172"/>
       <use xlink:href="#DejaVuSans-37" x="354.199219"/>
      </g>
     </g>
    </g>
    <g id="xtick_2">
     <g id="line2d_3">
      <path d="M 183.697335 320.4 
L 183.697335 43.2 
" clip-path="url(#p407e7a0a0f)" style="fill: none; stroke-dasharray: 5.12,1.28,0.8,1.28; stroke-dashoffset: 0; stroke: #b0b0b0; stroke-width: 0.8"/>
     </g>
     <g id="line2d_4">
      <g>
       <use xlink:href="#m6feaf1278c" x="183.697335" y="320.4" style="fill: #a9a9a9; stroke: #a9a9a9; stroke-width: 0.8"/>
      </g>
     </g>
     <g id="text_2">
      <!-- 2021-10 -->
      <g style="fill: #a9a9a9" transform="translate(162.805929 334.998438) scale(0.1 -0.1)">
       <use xlink:href="#DejaVuSans-32"/>
       <use xlink:href="#DejaVuSans-30" x="63.623047"/>
       <use xlink:href="#DejaVuSans-32" x="127.246094"/>
       <use xlink:href="#DejaVuSans-31" x="190.869141"/>
       <use xlink:href="#DejaVuSans-2d" x="254.492188"/>
       <use xlink:href="#DejaVuSans-31" x="290.576172"/>
       <use xlink:href="#DejaVuSans-30" x="354.199219"/>
      </g>
     </g>
    </g>
    <g id="xtick_3">
     <g id="line2d_5">
      <path d="M 244.045298 320.4 
L 244.045298 43.2 
" clip-path="url(#p407e7a0a0f)" style="fill: none; stroke-dasharray: 5.12,1.28,0.8,1.28; stroke-dashoffset: 0; stroke: #b0b0b0; stroke-width: 0.8"/>
     </g>
     <g id="line2d_6">
      <g>
       <use xlink:href="#m6feaf1278c" x="244.045298" y="320.4" style="fill: #a9a9a9; stroke: #a9a9a9; stroke-width: 0.8"/>
      </g>
     </g>
     <g id="text_3">
      <!-- 2022-01 -->
      <g style="fill: #a9a9a9" transform="translate(223.153892 334.998438) scale(0.1 -0.1)">
       <use xlink:href="#DejaVuSans-32"/>
       <use xlink:href="#DejaVuSans-30" x="63.623047"/>
       <use xlink:href="#DejaVuSans-32" x="127.246094"/>
       <use xlink:href="#DejaVuSans-32" x="190.869141"/>
       <use xlink:href="#DejaVuSans-2d" x="254.492188"/>
       <use xlink:href="#DejaVuSans-30" x="290.576172"/>
       <use xlink:href="#DejaVuSans-31" x="354.199219"/>
      </g>
     </g>
    </g>
    <g id="xtick_4">
     <g id="line2d_7">
      <path d="M 303.081348 320.4 
L 303.081348 43.2 
" clip-path="url(#p407e7a0a0f)" style="fill: none; stroke-dasharray: 5.12,1.28,0.8,1.28; stroke-dashoffset: 0; stroke: #b0b0b0; stroke-width: 0.8"/>
     </g>
     <g id="line2d_8">
      <g>
       <use xlink:href="#m6feaf1278c" x="303.081348" y="320.4" style="fill: #a9a9a9; stroke: #a9a9a9; stroke-width: 0.8"/>
      </g>
     </g>
     <g id="text_4">
      <!-- 2022-04 -->
      <g style="fill: #a9a9a9" transform="translate(282.189942 334.998438) scale(0.1 -0.1)">
       <defs>
        <path id="DejaVuSans-34" d="M 2419 4116 
L 825 1625 
L 2419 1625 
L 2419 4116 
z
M 2253 4666 
L 3047 4666 
L 3047 1625 
L 3713 1625 
L 3713 1100 
L 3047 1100 
L 3047 0 
L 2419 0 
L 2419 1100 
L 313 1100 
L 313 1709 
L 2253 4666 
z
" transform="scale(0.015625)"/>
       </defs>
       <use xlink:href="#DejaVuSans-32"/>
       <use xlink:href="#DejaVuSans-30" x="63.623047"/>
       <use xlink:href="#DejaVuSans-32" x="127.246094"/>
       <use xlink:href="#DejaVuSans-32" x="190.869141"/>
       <use xlink:href="#DejaVuSans-2d" x="254.492188"/>
       <use xlink:href="#DejaVuSans-30" x="290.576172"/>
       <use xlink:href="#DejaVuSans-34" x="354.199219"/>
      </g>
     </g>
    </g>
    <g id="xtick_5">
     <g id="line2d_9">
      <path d="M 362.773354 320.4 
L 362.773354 43.2 
" clip-path="url(#p407e7a0a0f)" style="fill: none; stroke-dasharray: 5.12,1.28,0.8,1.28; stroke-dashoffset: 0; stroke: #b0b0b0; stroke-width: 0.8"/>
     </g>
     <g id="line2d_10">
      <g>
       <use xlink:href="#m6feaf1278c" x="362.773354" y="320.4" style="fill: #a9a9a9; stroke: #a9a9a9; stroke-width: 0.8"/>
      </g>
     </g>
     <g id="text_5">
      <!-- 2022-07 -->
      <g style="fill: #a9a9a9" transform="translate(341.881948 334.998438) scale(0.1 -0.1)">
       <use xlink:href="#DejaVuSans-32"/>
       <use xlink:href="#DejaVuSans-30" x="63.623047"/>
       <use xlink:href="#DejaVuSans-32" x="127.246094"/>
       <use xlink:href="#DejaVuSans-32" x="190.869141"/>
       <use xlink:href="#DejaVuSans-2d" x="254.492188"/>
       <use xlink:href="#DejaVuSans-30" x="290.576172"/>
       <use xlink:href="#DejaVuSans-37" x="354.199219"/>
      </g>
     </g>
    </g>
    <g id="xtick_6">
     <g id="line2d_11">
      <path d="M 423.121317 320.4 
L 423.121317 43.2 
" clip-path="url(#p407e7a0a0f)" style="fill: none; stroke-dasharray: 5.12,1.28,0.8,1.28; stroke-dashoffset: 0; stroke: #b0b0b0; stroke-width: 0.8"/>
     </g>
     <g id="line2d_12">
      <g>
       <use xlink:href="#m6feaf1278c" x="423.121317" y="320.4" style="fill: #a9a9a9; stroke: #a9a9a9; stroke-width: 0.8"/>
      </g>
     </g>
     <g id="text_6">
      <!-- 2022-10 -->
      <g style="fill: #a9a9a9" transform="translate(402.22991 334.998438) scale(0.1 -0.1)">
       <use xlink:href="#DejaVuSans-32"/>
       <use xlink:href="#DejaVuSans-30" x="63.623047"/>
       <use xlink:href="#DejaVuSans-32" x="127.246094"/>
       <use xlink:href="#DejaVuSans-32" x="190.869141"/>
       <use xlink:href="#DejaVuSans-2d" x="254.492188"/>
       <use xlink:href="#DejaVuSans-31" x="290.576172"/>
       <use xlink:href="#DejaVuSans-30" x="354.199219"/>
      </g>
     </g>
    </g>
    <g id="xtick_7">
     <g id="line2d_13">
      <path d="M 483.469279 320.4 
L 483.469279 43.2 
" clip-path="url(#p407e7a0a0f)" style="fill: none; stroke-dasharray: 5.12,1.28,0.8,1.28; stroke-dashoffset: 0; stroke: #b0b0b0; stroke-width: 0.8"/>
     </g>
     <g id="line2d_14">
      <g>
       <use xlink:href="#m6feaf1278c" x="483.469279" y="320.4" style="fill: #a9a9a9; stroke: #a9a9a9; stroke-width: 0.8"/>
      </g>
     </g>
     <g id="text_7">
      <!-- 2023-01 -->
      <g style="fill: #a9a9a9" transform="translate(462.577873 334.998438) scale(0.1 -0.1)">
       <defs>
        <path id="DejaVuSans-33" d="M 2597 2516 
Q 3050 2419 3304 2112 
Q 3559 1806 3559 1356 
Q 3559 666 3084 287 
Q 2609 -91 1734 -91 
Q 1441 -91 1130 -33 
Q 819 25 488 141 
L 488 750 
Q 750 597 1062 519 
Q 1375 441 1716 441 
Q 2309 441 2620 675 
Q 2931 909 2931 1356 
Q 2931 1769 2642 2001 
Q 2353 2234 1838 2234 
L 1294 2234 
L 1294 2753 
L 1863 2753 
Q 2328 2753 2575 2939 
Q 2822 3125 2822 3475 
Q 2822 3834 2567 4026 
Q 2313 4219 1838 4219 
Q 1578 4219 1281 4162 
Q 984 4106 628 3988 
L 628 4550 
Q 988 4650 1302 4700 
Q 1616 4750 1894 4750 
Q 2613 4750 3031 4423 
Q 3450 4097 3450 3541 
Q 3450 3153 3228 2886 
Q 3006 2619 2597 2516 
z
" transform="scale(0.015625)"/>
       </defs>
       <use xlink:href="#DejaVuSans-32"/>
       <use xlink:href="#DejaVuSans-30" x="63.623047"/>
       <use xlink:href="#DejaVuSans-32" x="127.246094"/>
       <use xlink:href="#DejaVuSans-33" x="190.869141"/>
       <use xlink:href="#DejaVuSans-2d" x="254.492188"/>
       <use xlink:href="#DejaVuSans-30" x="290.576172"/>
       <use xlink:href="#DejaVuSans-31" x="354.199219"/>
      </g>
     </g>
    </g>
    <g id="xtick_8">
     <g id="line2d_15">
      <path d="M 542.505329 320.4 
L 542.505329 43.2 
" clip-path="url(#p407e7a0a0f)" style="fill: none; stroke-dasharray: 5.12,1.28,0.8,1.28; stroke-dashoffset: 0; stroke: #b0b0b0; stroke-width: 0.8"/>
     </g>
     <g id="line2d_16">
      <g>
       <use xlink:href="#m6feaf1278c" x="542.505329" y="320.4" style="fill: #a9a9a9; stroke: #a9a9a9; stroke-width: 0.8"/>
      </g>
     </g>
     <g id="text_8">
      <!-- 2023-04 -->
      <g style="fill: #a9a9a9" transform="translate(521.613923 334.998438) scale(0.1 -0.1)">
       <use xlink:href="#DejaVuSans-32"/>
       <use xlink:href="#DejaVuSans-30" x="63.623047"/>
       <use xlink:href="#DejaVuSans-32" x="127.246094"/>
       <use xlink:href="#DejaVuSans-33" x="190.869141"/>
       <use xlink:href="#DejaVuSans-2d" x="254.492188"/>
       <use xlink:href="#DejaVuSans-30" x="290.576172"/>
       <use xlink:href="#DejaVuSans-34" x="354.199219"/>
      </g>
     </g>
    </g>
    <g id="xtick_9">
     <g id="line2d_17">
      <path d="M 602.197335 320.4 
L 602.197335 43.2 
" clip-path="url(#p407e7a0a0f)" style="fill: none; stroke-dasharray: 5.12,1.28,0.8,1.28; stroke-dashoffset: 0; stroke: #b0b0b0; stroke-width: 0.8"/>
     </g>
     <g id="line2d_18">
      <g>
       <use xlink:href="#m6feaf1278c" x="602.197335" y="320.4" style="fill: #a9a9a9; stroke: #a9a9a9; stroke-width: 0.8"/>
      </g>
     </g>
     <g id="text_9">
      <!-- 2023-07 -->
      <g style="fill: #a9a9a9" transform="translate(581.305929 334.998438) scale(0.1 -0.1)">
       <use xlink:href="#DejaVuSans-32"/>
       <use xlink:href="#DejaVuSans-30" x="63.623047"/>
       <use xlink:href="#DejaVuSans-32" x="127.246094"/>
       <use xlink:href="#DejaVuSans-33" x="190.869141"/>
       <use xlink:href="#DejaVuSans-2d" x="254.492188"/>
       <use xlink:href="#DejaVuSans-30" x="290.576172"/>
       <use xlink:href="#DejaVuSans-37" x="354.199219"/>
      </g>
     </g>
    </g>
    <g id="xtick_10">
     <g id="line2d_19">
      <path d="M 662.545298 320.4 
L 662.545298 43.2 
" clip-path="url(#p407e7a0a0f)" style="fill: none; stroke-dasharray: 5.12,1.28,0.8,1.28; stroke-dashoffset: 0; stroke: #b0b0b0; stroke-width: 0.8"/>
     </g>
     <g id="line2d_20">
      <g>
       <use xlink:href="#m6feaf1278c" x="662.545298" y="320.4" style="fill: #a9a9a9; stroke: #a9a9a9; stroke-width: 0.8"/>
      </g>
     </g>
     <g id="text_10">
      <!-- 2023-10 -->
      <g style="fill: #a9a9a9" transform="translate(641.653892 334.998438) scale(0.1 -0.1)">
       <use xlink:href="#DejaVuSans-32"/>
       <use xlink:href="#DejaVuSans-30" x="63.623047"/>
       <use xlink:href="#DejaVuSans-32" x="127.246094"/>
       <use xlink:href="#DejaVuSans-33" x="190.869141"/>
       <use xlink:href="#DejaVuSans-2d" x="254.492188"/>
       <use xlink:href="#DejaVuSans-31" x="290.576172"/>
       <use xlink:href="#DejaVuSans-30" x="354.199219"/>
      </g>
     </g>
    </g>
    <g id="xtick_11">
     <g id="line2d_21">
      <path d="M 722.89326 320.4 
L 722.89326 43.2 
" clip-path="url(#p407e7a0a0f)" style="fill: none; stroke-dasharray: 5.12,1.28,0.8,1.28; stroke-dashoffset: 0; stroke: #b0b0b0; stroke-width: 0.8"/>
     </g>
     <g id="line2d_22">
      <g>
       <use xlink:href="#m6feaf1278c" x="722.89326" y="320.4" style="fill: #a9a9a9; stroke: #a9a9a9; stroke-width: 0.8"/>
      </g>
     </g>
     <g id="text_11">
      <!-- 2024-01 -->
      <g style="fill: #a9a9a9" transform="translate(702.001854 334.998438) scale(0.1 -0.1)">
       <use xlink:href="#DejaVuSans-32"/>
       <use xlink:href="#DejaVuSans-30" x="63.623047"/>
       <use xlink:href="#DejaVuSans-32" x="127.246094"/>
       <use xlink:href="#DejaVuSans-34" x="190.869141"/>
       <use xlink:href="#DejaVuSans-2d" x="254.492188"/>
       <use xlink:href="#DejaVuSans-30" x="290.576172"/>
       <use xlink:href="#DejaVuSans-31" x="354.199219"/>
      </g>
     </g>
    </g>
   </g>
   <g id="matplotlib.axis_2">
    <g id="ytick_1">
     <g id="line2d_23">
      <path d="M 108 307.845145 
L 777.6 307.845145 
" clip-path="url(#p407e7a0a0f)" style="fill: none; stroke-dasharray: 5.12,1.28,0.8,1.28; stroke-dashoffset: 0; stroke: #b0b0b0; stroke-width: 0.8"/>
     </g>
     <g id="line2d_24">
      <defs>
       <path id="mfe706a31c8" d="M 0 0 
L -3.5 0 
" style="stroke: #a9a9a9; stroke-width: 0.8"/>
      </defs>
      <g>
       <use xlink:href="#mfe706a31c8" x="108" y="307.845145" style="fill: #a9a9a9; stroke: #a9a9a9; stroke-width: 0.8"/>
      </g>
     </g>
     <g id="text_12">
      <!-- 0 -->
      <g style="fill: #a9a9a9" transform="translate(94.6375 311.644364) scale(0.1 -0.1)">
       <use xlink:href="#DejaVuSans-30"/>
      </g>
     </g>
    </g>
    <g id="ytick_2">
     <g id="line2d_25">
      <path d="M 108 271.729058 
L 777.6 271.729058 
" clip-path="url(#p407e7a0a0f)" style="fill: none; stroke-dasharray: 5.12,1.28,0.8,1.28; stroke-dashoffset: 0; stroke: #b0b0b0; stroke-width: 0.8"/>
     </g>
     <g id="line2d_26">
      <g>
       <use xlink:href="#mfe706a31c8" x="108" y="271.729058" style="fill: #a9a9a9; stroke: #a9a9a9; stroke-width: 0.8"/>
      </g>
     </g>
     <g id="text_13">
      <!-- 800 -->
      <g style="fill: #a9a9a9" transform="translate(81.9125 275.528276) scale(0.1 -0.1)">
       <defs>
        <path id="DejaVuSans-38" d="M 2034 2216 
Q 1584 2216 1326 1975 
Q 1069 1734 1069 1313 
Q 1069 891 1326 650 
Q 1584 409 2034 409 
Q 2484 409 2743 651 
Q 3003 894 3003 1313 
Q 3003 1734 2745 1975 
Q 2488 2216 2034 2216 
z
M 1403 2484 
Q 997 2584 770 2862 
Q 544 3141 544 3541 
Q 544 4100 942 4425 
Q 1341 4750 2034 4750 
Q 2731 4750 3128 4425 
Q 3525 4100 3525 3541 
Q 3525 3141 3298 2862 
Q 3072 2584 2669 2484 
Q 3125 2378 3379 2068 
Q 3634 1759 3634 1313 
Q 3634 634 3220 271 
Q 2806 -91 2034 -91 
Q 1263 -91 848 271 
Q 434 634 434 1313 
Q 434 1759 690 2068 
Q 947 2378 1403 2484 
z
M 1172 3481 
Q 1172 3119 1398 2916 
Q 1625 2713 2034 2713 
Q 2441 2713 2670 2916 
Q 2900 3119 2900 3481 
Q 2900 3844 2670 4047 
Q 2441 4250 2034 4250 
Q 1625 4250 1398 4047 
Q 1172 3844 1172 3481 
z
" transform="scale(0.015625)"/>
       </defs>
       <use xlink:href="#DejaVuSans-38"/>
       <use xlink:href="#DejaVuSans-30" x="63.623047"/>
       <use xlink:href="#DejaVuSans-30" x="127.246094"/>
      </g>
     </g>
    </g>
    <g id="ytick_3">
     <g id="line2d_27">
      <path d="M 108 235.61297 
L 777.6 235.61297 
" clip-path="url(#p407e7a0a0f)" style="fill: none; stroke-dasharray: 5.12,1.28,0.8,1.28; stroke-dashoffset: 0; stroke: #b0b0b0; stroke-width: 0.8"/>
     </g>
     <g id="line2d_28">
      <g>
       <use xlink:href="#mfe706a31c8" x="108" y="235.61297" style="fill: #a9a9a9; stroke: #a9a9a9; stroke-width: 0.8"/>
      </g>
     </g>
     <g id="text_14">
      <!-- 1600 -->
      <g style="fill: #a9a9a9" transform="translate(75.55 239.412189) scale(0.1 -0.1)">
       <defs>
        <path id="DejaVuSans-36" d="M 2113 2584 
Q 1688 2584 1439 2293 
Q 1191 2003 1191 1497 
Q 1191 994 1439 701 
Q 1688 409 2113 409 
Q 2538 409 2786 701 
Q 3034 994 3034 1497 
Q 3034 2003 2786 2293 
Q 2538 2584 2113 2584 
z
M 3366 4563 
L 3366 3988 
Q 3128 4100 2886 4159 
Q 2644 4219 2406 4219 
Q 1781 4219 1451 3797 
Q 1122 3375 1075 2522 
Q 1259 2794 1537 2939 
Q 1816 3084 2150 3084 
Q 2853 3084 3261 2657 
Q 3669 2231 3669 1497 
Q 3669 778 3244 343 
Q 2819 -91 2113 -91 
Q 1303 -91 875 529 
Q 447 1150 447 2328 
Q 447 3434 972 4092 
Q 1497 4750 2381 4750 
Q 2619 4750 2861 4703 
Q 3103 4656 3366 4563 
z
" transform="scale(0.015625)"/>
       </defs>
       <use xlink:href="#DejaVuSans-31"/>
       <use xlink:href="#DejaVuSans-36" x="63.623047"/>
       <use xlink:href="#DejaVuSans-30" x="127.246094"/>
       <use xlink:href="#DejaVuSans-30" x="190.869141"/>
      </g>
     </g>
    </g>
    <g id="ytick_4">
     <g id="line2d_29">
      <path d="M 108 199.496883 
L 777.6 199.496883 
" clip-path="url(#p407e7a0a0f)" style="fill: none; stroke-dasharray: 5.12,1.28,0.8,1.28; stroke-dashoffset: 0; stroke: #b0b0b0; stroke-width: 0.8"/>
     </g>
     <g id="line2d_30">
      <g>
       <use xlink:href="#mfe706a31c8" x="108" y="199.496883" style="fill: #a9a9a9; stroke: #a9a9a9; stroke-width: 0.8"/>
      </g>
     </g>
     <g id="text_15">
      <!-- 2400 -->
      <g style="fill: #a9a9a9" transform="translate(75.55 203.296102) scale(0.1 -0.1)">
       <use xlink:href="#DejaVuSans-32"/>
       <use xlink:href="#DejaVuSans-34" x="63.623047"/>
       <use xlink:href="#DejaVuSans-30" x="127.246094"/>
       <use xlink:href="#DejaVuSans-30" x="190.869141"/>
      </g>
     </g>
    </g>
    <g id="ytick_5">
     <g id="line2d_31">
      <path d="M 108 163.380795 
L 777.6 163.380795 
" clip-path="url(#p407e7a0a0f)" style="fill: none; stroke-dasharray: 5.12,1.28,0.8,1.28; stroke-dashoffset: 0; stroke: #b0b0b0; stroke-width: 0.8"/>
     </g>
     <g id="line2d_32">
      <g>
       <use xlink:href="#mfe706a31c8" x="108" y="163.380795" style="fill: #a9a9a9; stroke: #a9a9a9; stroke-width: 0.8"/>
      </g>
     </g>
     <g id="text_16">
      <!-- 3200 -->
      <g style="fill: #a9a9a9" transform="translate(75.55 167.180014) scale(0.1 -0.1)">
       <use xlink:href="#DejaVuSans-33"/>
       <use xlink:href="#DejaVuSans-32" x="63.623047"/>
       <use xlink:href="#DejaVuSans-30" x="127.246094"/>
       <use xlink:href="#DejaVuSans-30" x="190.869141"/>
      </g>
     </g>
    </g>
    <g id="ytick_6">
     <g id="line2d_33">
      <path d="M 108 127.264708 
L 777.6 127.264708 
" clip-path="url(#p407e7a0a0f)" style="fill: none; stroke-dasharray: 5.12,1.28,0.8,1.28; stroke-dashoffset: 0; stroke: #b0b0b0; stroke-width: 0.8"/>
     </g>
     <g id="line2d_34">
      <g>
       <use xlink:href="#mfe706a31c8" x="108" y="127.264708" style="fill: #a9a9a9; stroke: #a9a9a9; stroke-width: 0.8"/>
      </g>
     </g>
     <g id="text_17">
      <!-- 4000 -->
      <g style="fill: #a9a9a9" transform="translate(75.55 131.063927) scale(0.1 -0.1)">
       <use xlink:href="#DejaVuSans-34"/>
       <use xlink:href="#DejaVuSans-30" x="63.623047"/>
       <use xlink:href="#DejaVuSans-30" x="127.246094"/>
       <use xlink:href="#DejaVuSans-30" x="190.869141"/>
      </g>
     </g>
    </g>
    <g id="ytick_7">
     <g id="line2d_35">
      <path d="M 108 91.148621 
L 777.6 91.148621 
" clip-path="url(#p407e7a0a0f)" style="fill: none; stroke-dasharray: 5.12,1.28,0.8,1.28; stroke-dashoffset: 0; stroke: #b0b0b0; stroke-width: 0.8"/>
     </g>
     <g id="line2d_36">
      <g>
       <use xlink:href="#mfe706a31c8" x="108" y="91.148621" style="fill: #a9a9a9; stroke: #a9a9a9; stroke-width: 0.8"/>
      </g>
     </g>
     <g id="text_18">
      <!-- 4800 -->
      <g style="fill: #a9a9a9" transform="translate(75.55 94.947839) scale(0.1 -0.1)">
       <use xlink:href="#DejaVuSans-34"/>
       <use xlink:href="#DejaVuSans-38" x="63.623047"/>
       <use xlink:href="#DejaVuSans-30" x="127.246094"/>
       <use xlink:href="#DejaVuSans-30" x="190.869141"/>
      </g>
     </g>
    </g>
    <g id="ytick_8">
     <g id="line2d_37">
      <path d="M 108 55.032533 
L 777.6 55.032533 
" clip-path="url(#p407e7a0a0f)" style="fill: none; stroke-dasharray: 5.12,1.28,0.8,1.28; stroke-dashoffset: 0; stroke: #b0b0b0; stroke-width: 0.8"/>
     </g>
     <g id="line2d_38">
      <g>
       <use xlink:href="#mfe706a31c8" x="108" y="55.032533" style="fill: #a9a9a9; stroke: #a9a9a9; stroke-width: 0.8"/>
      </g>
     </g>
     <g id="text_19">
      <!-- 5600 -->
      <g style="fill: #a9a9a9" transform="translate(75.55 58.831752) scale(0.1 -0.1)">
       <defs>
        <path id="DejaVuSans-35" d="M 691 4666 
L 3169 4666 
L 3169 4134 
L 1269 4134 
L 1269 2991 
Q 1406 3038 1543 3061 
Q 1681 3084 1819 3084 
Q 2600 3084 3056 2656 
Q 3513 2228 3513 1497 
Q 3513 744 3044 326 
Q 2575 -91 1722 -91 
Q 1428 -91 1123 -41 
Q 819 9 494 109 
L 494 744 
Q 775 591 1075 516 
Q 1375 441 1709 441 
Q 2250 441 2565 725 
Q 2881 1009 2881 1497 
Q 2881 1984 2565 2268 
Q 2250 2553 1709 2553 
Q 1456 2553 1204 2497 
Q 953 2441 691 2322 
L 691 4666 
z
" transform="scale(0.015625)"/>
       </defs>
       <use xlink:href="#DejaVuSans-35"/>
       <use xlink:href="#DejaVuSans-36" x="63.623047"/>
       <use xlink:href="#DejaVuSans-30" x="127.246094"/>
       <use xlink:href="#DejaVuSans-30" x="190.869141"/>
      </g>
     </g>
    </g>
   </g>
   <g id="line2d_39">
    <path d="M 138.436364 307.70971 
L 142.3721 307.393694 
L 143.028056 307.122823 
L 144.995925 306.897098 
L 149.587618 306.039341 
L 152.867398 305.723325 
L 153.523354 305.407309 
L 154.17931 305.226729 
L 154.835266 304.414117 
L 155.491223 303.962666 
L 156.147179 302.563167 
L 156.803135 302.472877 
L 157.459091 301.976281 
L 158.771003 301.344249 
L 161.394828 299.357865 
L 162.70674 298.816123 
L 163.362696 298.364672 
L 165.98652 297.236044 
L 166.642476 296.197707 
L 167.954389 295.24966 
L 168.610345 294.933644 
L 175.169906 294.030742 
L 175.825862 293.714726 
L 180.417555 293.353565 
L 182.385423 292.856969 
L 188.289028 292.089502 
L 188.944984 291.728341 
L 189.60094 291.638051 
L 190.256897 291.36718 
L 191.568809 291.141455 
L 192.224765 291.09631 
L 192.880721 290.870584 
L 195.504545 290.464278 
L 196.816458 290.103117 
L 198.784326 289.922537 
L 200.096238 289.787101 
L 200.752194 289.606521 
L 201.40815 289.561376 
L 203.376019 288.974489 
L 207.311755 288.387603 
L 207.967712 288.207023 
L 208.623668 287.30412 
L 210.591536 286.581799 
L 212.559404 286.040057 
L 213.215361 285.724042 
L 213.871317 285.678896 
L 217.151097 284.775994 
L 218.463009 284.685704 
L 219.118966 284.595414 
L 221.086834 284.008527 
L 223.710658 283.376496 
L 224.366614 283.105625 
L 225.022571 283.015335 
L 225.678527 282.699319 
L 232.238088 281.706127 
L 235.517868 280.803225 
L 236.173824 280.396919 
L 238.797649 279.719742 
L 240.109561 278.952275 
L 240.765517 278.500824 
L 242.733386 278.139663 
L 246.669122 276.96589 
L 247.981034 276.559584 
L 248.636991 276.469294 
L 249.948903 276.108133 
L 251.260815 275.792118 
L 251.916771 275.701827 
L 253.228683 275.160086 
L 253.884639 275.024651 
L 254.540596 274.75378 
L 255.196552 274.66349 
L 255.852508 274.347474 
L 256.508464 274.166894 
L 257.820376 274.076603 
L 259.132288 273.625152 
L 260.444201 273.534862 
L 261.100157 273.218846 
L 263.723981 272.767395 
L 266.347806 272.54167 
L 267.003762 272.406234 
L 268.315674 271.774203 
L 275.531191 268.74948 
L 276.187147 268.38832 
L 276.843103 267.665998 
L 277.49906 266.582515 
L 278.155016 265.724758 
L 278.810972 265.544178 
L 279.466928 265.544178 
L 280.77884 264.59613 
L 281.434796 264.41555 
L 282.090752 264.054389 
L 282.746708 263.918954 
L 283.402665 263.332067 
L 284.058621 263.151487 
L 286.026489 262.20344 
L 286.682445 261.390828 
L 287.338401 260.397635 
L 287.994357 259.991329 
L 288.650313 258.907847 
L 289.30627 258.23067 
L 289.962226 257.914654 
L 290.618182 257.734074 
L 293.242006 256.19914 
L 294.553918 255.160803 
L 295.209875 254.754497 
L 295.865831 253.806449 
L 296.521787 252.316661 
L 297.177743 251.368613 
L 297.833699 250.872017 
L 298.489655 250.601147 
L 301.11348 248.343891 
L 301.769436 247.89244 
L 303.081348 246.763812 
L 303.737304 245.86091 
L 305.049216 244.732282 
L 307.673041 243.061913 
L 308.328997 242.475027 
L 308.984953 242.339592 
L 310.952821 241.301254 
L 312.92069 240.308062 
L 314.232602 239.089144 
L 314.888558 238.321677 
L 316.20047 237.418775 
L 316.856426 237.238194 
L 317.512382 236.922178 
L 318.824295 236.064421 
L 319.480251 235.70326 
L 320.136207 235.61297 
L 321.448119 234.890649 
L 322.104075 234.529488 
L 322.760031 233.852311 
L 323.415987 233.446005 
L 324.071944 233.220279 
L 324.7279 232.768828 
L 327.351724 231.414475 
L 328.00768 230.827589 
L 330.631505 229.969832 
L 331.287461 229.518381 
L 331.943417 229.382945 
L 333.255329 228.931494 
L 335.223197 228.164027 
L 337.191066 227.441705 
L 338.502978 227.21598 
L 339.81489 226.087352 
L 341.126803 225.455321 
L 343.094671 224.326693 
L 344.406583 223.965532 
L 345.062539 223.559226 
L 345.718495 223.378646 
L 347.030408 222.520889 
L 347.686364 222.159728 
L 350.966144 221.392261 
L 352.934013 220.263633 
L 353.589969 220.173343 
L 354.245925 219.947617 
L 355.557837 219.676747 
L 357.525705 218.232103 
L 359.493574 217.780652 
L 360.14953 217.554927 
L 360.805486 217.05833 
L 364.741223 215.794267 
L 365.397179 215.749122 
L 369.988871 214.123898 
L 370.644828 213.807882 
L 372.612696 213.356431 
L 373.924608 213.040416 
L 374.580564 212.7244 
L 375.23652 212.588965 
L 377.204389 211.686062 
L 379.172257 210.738015 
L 379.828213 210.286564 
L 380.484169 210.105984 
L 382.452038 209.067646 
L 383.76395 208.75163 
L 385.075862 208.074454 
L 386.387774 207.713293 
L 387.04373 207.623003 
L 387.699687 207.171551 
L 388.355643 206.855536 
L 389.011599 206.7201 
L 390.323511 206.178359 
L 390.979467 206.042924 
L 391.635423 205.681763 
L 394.259248 205.275457 
L 395.57116 204.643425 
L 396.227116 204.101684 
L 396.883072 202.973056 
L 398.194984 202.702186 
L 398.85094 202.56675 
L 401.474765 201.212397 
L 402.130721 201.076962 
L 407.37837 198.593981 
L 409.346238 198.187675 
L 410.002194 197.826514 
L 413.937931 196.472161 
L 415.249843 195.659549 
L 415.905799 195.208097 
L 416.561755 194.892082 
L 417.217712 194.801791 
L 417.873668 194.576066 
L 418.529624 194.530921 
L 421.809404 193.673164 
L 422.465361 193.176568 
L 423.777273 192.725116 
L 425.745141 192.093085 
L 426.401097 191.686779 
L 427.057053 191.506198 
L 427.713009 191.054747 
L 428.368966 190.783877 
L 429.024922 190.377571 
L 429.680878 190.1067 
L 430.99279 189.790684 
L 432.960658 189.023217 
L 434.928527 187.533429 
L 435.584483 187.397994 
L 436.896395 186.404801 
L 437.552351 186.269366 
L 438.208307 185.276173 
L 438.864263 185.005303 
L 439.520219 184.508707 
L 440.176176 184.418416 
L 440.832132 183.966965 
L 441.488088 183.650949 
L 442.144044 183.515514 
L 442.8 183.244643 
L 443.455956 182.748047 
L 444.111912 182.522322 
L 446.079781 181.213114 
L 448.703605 179.903905 
L 449.359561 179.813615 
L 450.671473 179.226729 
L 451.327429 178.865568 
L 451.983386 177.782085 
L 452.639342 177.195199 
L 453.295298 176.834038 
L 453.951254 176.698603 
L 455.263166 175.885991 
L 455.919122 175.750555 
L 457.231034 175.118524 
L 459.198903 174.305912 
L 460.510815 173.40301 
L 461.822727 172.048656 
L 463.134639 171.236044 
L 463.790596 170.829738 
L 464.446552 170.152562 
L 465.102508 169.701111 
L 466.41442 168.617628 
L 467.070376 168.346757 
L 467.726332 167.624436 
L 468.382288 167.127839 
L 469.694201 166.676388 
L 470.350157 166.134647 
L 471.662069 165.45747 
L 472.318025 165.27689 
L 472.973981 164.825439 
L 473.629937 164.690004 
L 475.597806 163.651666 
L 476.253762 163.200215 
L 477.565674 162.658474 
L 478.22163 162.523038 
L 478.877586 162.116732 
L 482.157367 161.078395 
L 482.813323 160.897814 
L 483.469279 160.581799 
L 484.125235 159.994912 
L 486.093103 159.27259 
L 487.405016 158.866284 
L 488.060972 158.369688 
L 490.684796 157.015335 
L 491.340752 156.654174 
L 492.652665 154.080903 
L 493.964577 152.545969 
L 494.620533 152.094518 
L 496.588401 151.236761 
L 497.244357 151.011035 
L 497.900313 150.920745 
L 498.55627 150.559584 
L 500.524138 149.972698 
L 503.147962 148.798925 
L 503.803918 148.392619 
L 505.115831 147.941168 
L 509.051567 145.683913 
L 509.707524 145.006736 
L 511.019436 144.284414 
L 511.675392 143.923253 
L 512.331348 143.697528 
L 512.987304 143.246077 
L 514.299216 142.614045 
L 516.267085 141.575708 
L 516.923041 141.395127 
L 517.578997 140.898531 
L 518.234953 140.62766 
L 518.890909 140.492225 
L 520.202821 140.040774 
L 522.17069 139.318452 
L 522.826646 138.821856 
L 524.138558 138.460695 
L 525.45047 137.964099 
L 526.106426 137.422358 
L 527.418339 137.016052 
L 528.074295 136.700036 
L 528.730251 136.519455 
L 530.042163 135.616553 
L 531.354075 135.029667 
L 532.665987 134.036474 
L 533.9779 133.585023 
L 534.633856 133.043282 
L 535.289812 132.952992 
L 536.601724 132.004944 
L 537.913636 131.372913 
L 538.569592 131.102042 
L 539.225549 130.424866 
L 543.161285 129.025367 
L 545.129154 128.16761 
L 547.097022 127.580724 
L 548.408934 127.400143 
L 549.06489 127.129273 
L 549.720846 127.038982 
L 551.032759 126.497241 
L 551.688715 126.452096 
L 554.312539 125.504049 
L 556.280408 124.149695 
L 560.216144 122.208456 
L 561.528056 121.395844 
L 562.184013 120.989538 
L 563.495925 120.673522 
L 564.807837 119.77062 
L 567.431661 118.958008 
L 568.087618 118.687137 
L 569.39953 118.371121 
L 572.67931 117.287639 
L 574.647179 116.926478 
L 575.303135 116.745898 
L 575.959091 116.429882 
L 576.615047 116.339592 
L 577.926959 115.79785 
L 578.582915 115.70756 
L 579.238871 115.391544 
L 580.550784 115.120674 
L 581.20674 114.804658 
L 583.174608 114.353207 
L 584.48652 114.082336 
L 588.422257 113.360014 
L 589.734169 113.089144 
L 590.390125 112.953708 
L 591.046082 112.682838 
L 591.702038 112.637693 
L 593.669906 112.095951 
L 594.325862 111.73479 
L 597.605643 110.922178 
L 598.261599 110.786743 
L 599.573511 110.335292 
L 601.541379 109.658115 
L 602.197335 109.567825 
L 604.165204 108.890649 
L 604.82116 108.890649 
L 606.133072 108.439197 
L 606.789028 107.807166 
L 607.444984 107.49115 
L 608.756897 107.084844 
L 611.380721 106.091652 
L 612.036677 105.956216 
L 612.692633 105.54991 
L 613.348589 105.414475 
L 614.004545 105.008169 
L 617.284326 104.060122 
L 617.940282 103.653816 
L 618.596238 103.473235 
L 619.252194 102.931494 
L 621.220063 102.570333 
L 622.531975 101.848011 
L 623.187931 101.12569 
L 624.499843 100.854819 
L 629.091536 99.816482 
L 629.747492 99.635901 
L 631.059404 99.590756 
L 631.715361 99.27474 
L 634.339185 98.823289 
L 634.995141 98.507273 
L 636.963009 98.236403 
L 639.586834 97.423791 
L 641.554702 96.97234 
L 643.522571 96.475743 
L 646.146395 95.663131 
L 646.802351 95.527696 
L 647.458307 95.21168 
L 648.114263 95.12139 
L 648.770219 94.895665 
L 649.426176 94.489359 
L 651.394044 93.767037 
L 652.05 93.270441 
L 653.361912 92.90928 
L 654.017868 92.638409 
L 655.329781 92.277248 
L 657.953605 91.103475 
L 659.921473 90.96804 
L 662.545298 90.155428 
L 663.201254 89.749122 
L 664.513166 89.342816 
L 666.481034 88.349624 
L 667.136991 88.214188 
L 667.792947 87.898173 
L 668.448903 87.807882 
L 675.66442 85.415192 
L 678.288245 84.78316 
L 678.944201 84.60258 
L 680.256113 83.970548 
L 680.912069 83.880258 
L 682.223981 83.519097 
L 682.879937 83.022501 
L 683.535893 82.706485 
L 684.19185 81.939018 
L 684.847806 81.487567 
L 686.159718 81.081261 
L 686.815674 80.53952 
L 694.031191 77.605088 
L 695.343103 77.289072 
L 696.655016 76.702186 
L 698.622884 75.528413 
L 699.27884 75.392977 
L 699.934796 74.896381 
L 701.246708 74.26435 
L 702.558621 73.451738 
L 704.526489 72.548836 
L 705.182445 72.097384 
L 706.494357 71.600788 
L 707.150313 71.149337 
L 708.462226 70.517306 
L 709.118182 70.065855 
L 710.430094 69.614403 
L 711.08605 69.478968 
L 713.709875 68.305195 
L 716.989655 67.176568 
L 717.645611 67.131422 
L 718.301567 66.950842 
L 718.957524 66.544536 
L 719.61348 66.454246 
L 720.269436 66.183375 
L 722.237304 65.777069 
L 725.517085 64.1067 
L 726.828997 63.384378 
L 727.484953 63.294088 
L 729.452821 62.210606 
L 731.42069 61.488284 
L 733.388558 60.630527 
L 736.012382 59.592189 
L 736.668339 59.411609 
L 737.324295 59.005303 
L 737.980251 58.960158 
L 738.636207 58.779577 
L 739.292163 58.328126 
L 739.948119 58.282981 
L 741.260031 57.876675 
L 742.571944 57.244643 
L 743.2279 57.154353 
L 743.883856 56.883483 
L 744.539812 56.748047 
L 746.50768 55.89029 
L 747.163636 55.8 
L 747.163636 55.8 
" clip-path="url(#p407e7a0a0f)" style="fill: none; stroke: #1f77b4; stroke-width: 1.5; stroke-linecap: square"/>
   </g>
   <g id="line2d_40">
    <path d="M 139.09232 307.8 
L 141.060188 307.70971 
L 143.028056 307.664565 
L 146.963793 307.574274 
L 150.243574 307.438839 
L 152.867398 307.438839 
L 153.523354 307.258259 
L 156.147179 307.167968 
L 158.115047 306.942243 
L 160.082915 306.761662 
L 164.018652 306.581082 
L 164.674608 306.581082 
L 165.330564 306.445647 
L 167.954389 306.355357 
L 169.266301 306.265066 
L 174.51395 306.174776 
L 177.79373 306.039341 
L 185.665204 305.949051 
L 188.944984 305.813615 
L 192.880721 305.723325 
L 195.504545 305.633035 
L 201.40815 305.542745 
L 203.376019 305.497599 
L 205.343887 305.452454 
L 207.311755 305.226729 
L 211.247492 305.181584 
L 212.559404 305.091293 
L 217.151097 305.001003 
L 224.366614 304.594697 
L 228.958307 304.504407 
L 230.270219 304.414117 
L 232.238088 304.323827 
L 236.173824 304.143246 
L 238.797649 304.098101 
L 240.765517 303.917521 
L 251.260815 303.285489 
L 253.884639 303.195199 
L 258.476332 302.969473 
L 260.444201 302.879183 
L 267.003762 302.518022 
L 274.219279 302.427732 
L 276.843103 302.156861 
L 278.155016 302.066571 
L 286.682445 301.389394 
L 290.618182 300.892798 
L 293.242006 300.802508 
L 298.489655 300.125331 
L 301.769436 300.035041 
L 310.296865 299.357865 
L 314.232602 298.906413 
L 316.20047 298.861268 
L 317.512382 298.770978 
L 320.136207 298.680688 
L 321.448119 298.590398 
L 324.7279 298.274382 
L 325.383856 298.093802 
L 329.319592 297.913221 
L 332.599373 297.822931 
L 341.126803 297.326335 
L 343.094671 297.236044 
L 351.6221 296.739448 
L 356.213793 296.649158 
L 356.869749 296.513723 
L 362.117398 296.423432 
L 366.709091 296.197707 
L 373.924608 296.107417 
L 378.516301 295.881691 
L 383.76395 295.791401 
L 389.011599 295.52053 
L 393.603292 295.43024 
L 406.066458 294.662773 
L 411.314107 294.572483 
L 428.368966 293.489 
L 432.304702 293.39871 
L 434.272571 293.353565 
L 436.240439 293.30842 
L 438.208307 293.127839 
L 443.455956 293.037549 
L 444.767868 292.811824 
L 446.079781 292.721534 
L 449.359561 292.586098 
L 450.671473 292.495808 
L 451.983386 292.405518 
L 457.886991 292.315228 
L 459.198903 292.179792 
L 461.822727 292.134647 
L 462.478683 291.999212 
L 463.790596 291.908922 
L 464.446552 291.773486 
L 466.41442 291.683196 
L 477.565674 291.006019 
L 479.533542 290.915729 
L 482.813323 290.780294 
L 491.996708 290.690004 
L 496.588401 290.464278 
L 501.83605 290.373988 
L 504.459875 290.283698 
L 507.083699 290.238552 
L 508.395611 290.103117 
L 511.019436 290.012827 
L 517.578997 289.651666 
L 521.514734 289.606521 
L 523.482602 289.425941 
L 525.45047 289.380795 
L 530.042163 289.290505 
L 532.665987 289.200215 
L 538.569592 289.109925 
L 541.193417 289.019635 
L 545.129154 288.929344 
L 551.688715 288.568183 
L 554.968495 288.477893 
L 556.280408 288.342458 
L 564.151881 288.252168 
L 566.775705 288.161877 
L 575.959091 288.071587 
L 577.926959 288.026442 
L 581.862696 287.936152 
L 583.830564 287.891007 
L 592.357994 287.800717 
L 593.669906 287.710426 
L 600.885423 287.620136 
L 603.509248 287.529846 
L 611.380721 287.484701 
L 612.692633 287.394411 
L 622.531975 287.349265 
L 624.499843 287.168685 
L 635.651097 287.078395 
L 637.618966 287.03325 
L 654.673824 286.94296 
L 657.297649 286.852669 
L 669.104859 286.762379 
L 671.728683 286.672089 
L 676.320376 286.581799 
L 681.568025 286.310928 
L 684.19185 286.220638 
L 686.815674 286.130348 
L 690.751411 286.040057 
L 692.719279 285.994912 
L 695.343103 285.904622 
L 697.310972 285.859477 
L 700.590752 285.769187 
L 701.902665 285.633751 
L 705.838401 285.543461 
L 713.053918 285.137155 
L 716.333699 285.046865 
L 718.957524 284.956575 
L 723.549216 284.866284 
L 726.173041 284.775994 
L 731.42069 284.685704 
L 733.388558 284.640559 
L 736.668339 284.550269 
L 740.604075 284.369688 
L 745.851724 284.279398 
L 747.163636 284.189108 
L 747.163636 284.189108 
" clip-path="url(#p407e7a0a0f)" style="fill: none; stroke: #ff7f0e; stroke-width: 1.5; stroke-linecap: square"/>
   </g>
   <g id="patch_3">
    <path d="M 108 320.4 
L 108 43.2 
" style="fill: none; stroke: #a9a9a9; stroke-width: 0.8; stroke-linejoin: miter; stroke-linecap: square"/>
   </g>
   <g id="patch_4">
    <path d="M 777.6 320.4 
L 777.6 43.2 
" style="fill: none"/>
   </g>
   <g id="patch_5">
    <path d="M 108 320.4 
L 777.6 320.4 
" style="fill: none; stroke: #a9a9a9; stroke-width: 0.8; stroke-linejoin: miter; stroke-linecap: square"/>
   </g>
   <g id="patch_6">
    <path d="M 108 43.2 
L 777.6 43.2 
" style="fill: none"/>
   </g>
   <g id="text_20">
    <!-- get_subscribe history -->
    <g style="fill: #a9a9a9" transform="translate(378.6075 37.2) scale(0.12 -0.12)">
     <defs>
      <path id="DejaVuSans-67" d="M 2906 1791 
Q 2906 2416 2648 2759 
Q 2391 3103 1925 3103 
Q 1463 3103 1205 2759 
Q 947 2416 947 1791 
Q 947 1169 1205 825 
Q 1463 481 1925 481 
Q 2391 481 2648 825 
Q 2906 1169 2906 1791 
z
M 3481 434 
Q 3481 -459 3084 -895 
Q 2688 -1331 1869 -1331 
Q 1566 -1331 1297 -1286 
Q 1028 -1241 775 -1147 
L 775 -588 
Q 1028 -725 1275 -790 
Q 1522 -856 1778 -856 
Q 2344 -856 2625 -561 
Q 2906 -266 2906 331 
L 2906 616 
Q 2728 306 2450 153 
Q 2172 0 1784 0 
Q 1141 0 747 490 
Q 353 981 353 1791 
Q 353 2603 747 3093 
Q 1141 3584 1784 3584 
Q 2172 3584 2450 3431 
Q 2728 3278 2906 2969 
L 2906 3500 
L 3481 3500 
L 3481 434 
z
" transform="scale(0.015625)"/>
      <path id="DejaVuSans-65" d="M 3597 1894 
L 3597 1613 
L 953 1613 
Q 991 1019 1311 708 
Q 1631 397 2203 397 
Q 2534 397 2845 478 
Q 3156 559 3463 722 
L 3463 178 
Q 3153 47 2828 -22 
Q 2503 -91 2169 -91 
Q 1331 -91 842 396 
Q 353 884 353 1716 
Q 353 2575 817 3079 
Q 1281 3584 2069 3584 
Q 2775 3584 3186 3129 
Q 3597 2675 3597 1894 
z
M 3022 2063 
Q 3016 2534 2758 2815 
Q 2500 3097 2075 3097 
Q 1594 3097 1305 2825 
Q 1016 2553 972 2059 
L 3022 2063 
z
" transform="scale(0.015625)"/>
      <path id="DejaVuSans-74" d="M 1172 4494 
L 1172 3500 
L 2356 3500 
L 2356 3053 
L 1172 3053 
L 1172 1153 
Q 1172 725 1289 603 
Q 1406 481 1766 481 
L 2356 481 
L 2356 0 
L 1766 0 
Q 1100 0 847 248 
Q 594 497 594 1153 
L 594 3053 
L 172 3053 
L 172 3500 
L 594 3500 
L 594 4494 
L 1172 4494 
z
" transform="scale(0.015625)"/>
      <path id="DejaVuSans-5f" d="M 3263 -1063 
L 3263 -1509 
L -63 -1509 
L -63 -1063 
L 3263 -1063 
z
" transform="scale(0.015625)"/>
      <path id="DejaVuSans-73" d="M 2834 3397 
L 2834 2853 
Q 2591 2978 2328 3040 
Q 2066 3103 1784 3103 
Q 1356 3103 1142 2972 
Q 928 2841 928 2578 
Q 928 2378 1081 2264 
Q 1234 2150 1697 2047 
L 1894 2003 
Q 2506 1872 2764 1633 
Q 3022 1394 3022 966 
Q 3022 478 2636 193 
Q 2250 -91 1575 -91 
Q 1294 -91 989 -36 
Q 684 19 347 128 
L 347 722 
Q 666 556 975 473 
Q 1284 391 1588 391 
Q 1994 391 2212 530 
Q 2431 669 2431 922 
Q 2431 1156 2273 1281 
Q 2116 1406 1581 1522 
L 1381 1569 
Q 847 1681 609 1914 
Q 372 2147 372 2553 
Q 372 3047 722 3315 
Q 1072 3584 1716 3584 
Q 2034 3584 2315 3537 
Q 2597 3491 2834 3397 
z
" transform="scale(0.015625)"/>
      <path id="DejaVuSans-75" d="M 544 1381 
L 544 3500 
L 1119 3500 
L 1119 1403 
Q 1119 906 1312 657 
Q 1506 409 1894 409 
Q 2359 409 2629 706 
Q 2900 1003 2900 1516 
L 2900 3500 
L 3475 3500 
L 3475 0 
L 2900 0 
L 2900 538 
Q 2691 219 2414 64 
Q 2138 -91 1772 -91 
Q 1169 -91 856 284 
Q 544 659 544 1381 
z
M 1991 3584 
L 1991 3584 
z
" transform="scale(0.015625)"/>
      <path id="DejaVuSans-62" d="M 3116 1747 
Q 3116 2381 2855 2742 
Q 2594 3103 2138 3103 
Q 1681 3103 1420 2742 
Q 1159 2381 1159 1747 
Q 1159 1113 1420 752 
Q 1681 391 2138 391 
Q 2594 391 2855 752 
Q 3116 1113 3116 1747 
z
M 1159 2969 
Q 1341 3281 1617 3432 
Q 1894 3584 2278 3584 
Q 2916 3584 3314 3078 
Q 3713 2572 3713 1747 
Q 3713 922 3314 415 
Q 2916 -91 2278 -91 
Q 1894 -91 1617 61 
Q 1341 213 1159 525 
L 1159 0 
L 581 0 
L 581 4863 
L 1159 4863 
L 1159 2969 
z
" transform="scale(0.015625)"/>
      <path id="DejaVuSans-63" d="M 3122 3366 
L 3122 2828 
Q 2878 2963 2633 3030 
Q 2388 3097 2138 3097 
Q 1578 3097 1268 2742 
Q 959 2388 959 1747 
Q 959 1106 1268 751 
Q 1578 397 2138 397 
Q 2388 397 2633 464 
Q 2878 531 3122 666 
L 3122 134 
Q 2881 22 2623 -34 
Q 2366 -91 2075 -91 
Q 1284 -91 818 406 
Q 353 903 353 1747 
Q 353 2603 823 3093 
Q 1294 3584 2113 3584 
Q 2378 3584 2631 3529 
Q 2884 3475 3122 3366 
z
" transform="scale(0.015625)"/>
      <path id="DejaVuSans-72" d="M 2631 2963 
Q 2534 3019 2420 3045 
Q 2306 3072 2169 3072 
Q 1681 3072 1420 2755 
Q 1159 2438 1159 1844 
L 1159 0 
L 581 0 
L 581 3500 
L 1159 3500 
L 1159 2956 
Q 1341 3275 1631 3429 
Q 1922 3584 2338 3584 
Q 2397 3584 2469 3576 
Q 2541 3569 2628 3553 
L 2631 2963 
z
" transform="scale(0.015625)"/>
      <path id="DejaVuSans-69" d="M 603 3500 
L 1178 3500 
L 1178 0 
L 603 0 
L 603 3500 
z
M 603 4863 
L 1178 4863 
L 1178 4134 
L 603 4134 
L 603 4863 
z
" transform="scale(0.015625)"/>
      <path id="DejaVuSans-20" transform="scale(0.015625)"/>
      <path id="DejaVuSans-68" d="M 3513 2113 
L 3513 0 
L 2938 0 
L 2938 2094 
Q 2938 2591 2744 2837 
Q 2550 3084 2163 3084 
Q 1697 3084 1428 2787 
Q 1159 2491 1159 1978 
L 1159 0 
L 581 0 
L 581 4863 
L 1159 4863 
L 1159 2956 
Q 1366 3272 1645 3428 
Q 1925 3584 2291 3584 
Q 2894 3584 3203 3211 
Q 3513 2838 3513 2113 
z
" transform="scale(0.015625)"/>
      <path id="DejaVuSans-6f" d="M 1959 3097 
Q 1497 3097 1228 2736 
Q 959 2375 959 1747 
Q 959 1119 1226 758 
Q 1494 397 1959 397 
Q 2419 397 2687 759 
Q 2956 1122 2956 1747 
Q 2956 2369 2687 2733 
Q 2419 3097 1959 3097 
z
M 1959 3584 
Q 2709 3584 3137 3096 
Q 3566 2609 3566 1747 
Q 3566 888 3137 398 
Q 2709 -91 1959 -91 
Q 1206 -91 779 398 
Q 353 888 353 1747 
Q 353 2609 779 3096 
Q 1206 3584 1959 3584 
z
" transform="scale(0.015625)"/>
      <path id="DejaVuSans-79" d="M 2059 -325 
Q 1816 -950 1584 -1140 
Q 1353 -1331 966 -1331 
L 506 -1331 
L 506 -850 
L 844 -850 
Q 1081 -850 1212 -737 
Q 1344 -625 1503 -206 
L 1606 56 
L 191 3500 
L 800 3500 
L 1894 763 
L 2988 3500 
L 3597 3500 
L 2059 -325 
z
" transform="scale(0.015625)"/>
     </defs>
     <use xlink:href="#DejaVuSans-67"/>
     <use xlink:href="#DejaVuSans-65" x="63.476562"/>
     <use xlink:href="#DejaVuSans-74" x="125"/>
     <use xlink:href="#DejaVuSans-5f" x="164.208984"/>
     <use xlink:href="#DejaVuSans-73" x="214.208984"/>
     <use xlink:href="#DejaVuSans-75" x="266.308594"/>
     <use xlink:href="#DejaVuSans-62" x="329.6875"/>
     <use xlink:href="#DejaVuSans-73" x="393.164062"/>
     <use xlink:href="#DejaVuSans-63" x="445.263672"/>
     <use xlink:href="#DejaVuSans-72" x="500.244141"/>
     <use xlink:href="#DejaVuSans-69" x="541.357422"/>
     <use xlink:href="#DejaVuSans-62" x="569.140625"/>
     <use xlink:href="#DejaVuSans-65" x="632.617188"/>
     <use xlink:href="#DejaVuSans-20" x="694.140625"/>
     <use xlink:href="#DejaVuSans-68" x="725.927734"/>
     <use xlink:href="#DejaVuSans-69" x="789.306641"/>
     <use xlink:href="#DejaVuSans-73" x="817.089844"/>
     <use xlink:href="#DejaVuSans-74" x="869.189453"/>
     <use xlink:href="#DejaVuSans-6f" x="908.398438"/>
     <use xlink:href="#DejaVuSans-72" x="969.580078"/>
     <use xlink:href="#DejaVuSans-79" x="1010.693359"/>
    </g>
   </g>
   <g id="legend_1">
    <g id="line2d_41">
     <path d="M 815.08 328.498438 
L 825.08 328.498438 
L 835.08 328.498438 
" style="fill: none; stroke: #1f77b4; stroke-width: 1.5; stroke-linecap: square"/>
    </g>
    <g id="text_21">
     <!-- star -->
     <g style="fill: #a9a9a9" transform="translate(843.08 331.998438) scale(0.1 -0.1)">
      <defs>
       <path id="DejaVuSans-61" d="M 2194 1759 
Q 1497 1759 1228 1600 
Q 959 1441 959 1056 
Q 959 750 1161 570 
Q 1363 391 1709 391 
Q 2188 391 2477 730 
Q 2766 1069 2766 1631 
L 2766 1759 
L 2194 1759 
z
M 3341 1997 
L 3341 0 
L 2766 0 
L 2766 531 
Q 2569 213 2275 61 
Q 1981 -91 1556 -91 
Q 1019 -91 701 211 
Q 384 513 384 1019 
Q 384 1609 779 1909 
Q 1175 2209 1959 2209 
L 2766 2209 
L 2766 2266 
Q 2766 2663 2505 2880 
Q 2244 3097 1772 3097 
Q 1472 3097 1187 3025 
Q 903 2953 641 2809 
L 641 3341 
Q 956 3463 1253 3523 
Q 1550 3584 1831 3584 
Q 2591 3584 2966 3190 
Q 3341 2797 3341 1997 
z
" transform="scale(0.015625)"/>
      </defs>
      <use xlink:href="#DejaVuSans-73"/>
      <use xlink:href="#DejaVuSans-74" x="52.099609"/>
      <use xlink:href="#DejaVuSans-61" x="91.308594"/>
      <use xlink:href="#DejaVuSans-72" x="152.587891"/>
     </g>
    </g>
    <g id="line2d_42">
     <path d="M 815.08 343.176562 
L 825.08 343.176562 
L 835.08 343.176562 
" style="fill: none; stroke: #ff7f0e; stroke-width: 1.5; stroke-linecap: square"/>
    </g>
    <g id="text_22">
     <!-- fork -->
     <g style="fill: #a9a9a9" transform="translate(843.08 346.676562) scale(0.1 -0.1)">
      <defs>
       <path id="DejaVuSans-66" d="M 2375 4863 
L 2375 4384 
L 1825 4384 
Q 1516 4384 1395 4259 
Q 1275 4134 1275 3809 
L 1275 3500 
L 2222 3500 
L 2222 3053 
L 1275 3053 
L 1275 0 
L 697 0 
L 697 3053 
L 147 3053 
L 147 3500 
L 697 3500 
L 697 3744 
Q 697 4328 969 4595 
Q 1241 4863 1831 4863 
L 2375 4863 
z
" transform="scale(0.015625)"/>
       <path id="DejaVuSans-6b" d="M 581 4863 
L 1159 4863 
L 1159 1991 
L 2875 3500 
L 3609 3500 
L 1753 1863 
L 3688 0 
L 2938 0 
L 1159 1709 
L 1159 0 
L 581 0 
L 581 4863 
z
" transform="scale(0.015625)"/>
      </defs>
      <use xlink:href="#DejaVuSans-66"/>
      <use xlink:href="#DejaVuSans-6f" x="35.205078"/>
      <use xlink:href="#DejaVuSans-72" x="96.386719"/>
      <use xlink:href="#DejaVuSans-6b" x="137.5"/>
     </g>
    </g>
   </g>
  </g>
 </g>
 <defs>
  <clipPath id="p407e7a0a0f">
   <rect x="108" y="43.2" width="669.6" height="277.2"/>
  </clipPath>
 </defs>
</svg>
