<?xml version="1.0" encoding="utf-8" standalone="no"?>
<!DOCTYPE svg PUBLIC "-//W3C//DTD SVG 1.1//EN"
  "http://www.w3.org/Graphics/SVG/1.1/DTD/svg11.dtd">
<svg xmlns:xlink="http://www.w3.org/1999/xlink" width="864pt" height="360pt" viewBox="0 0 864 360" xmlns="http://www.w3.org/2000/svg" version="1.1">
 <metadata>
  <rdf:RDF xmlns:dc="http://purl.org/dc/elements/1.1/" xmlns:cc="http://creativecommons.org/ns#" xmlns:rdf="http://www.w3.org/1999/02/22-rdf-syntax-ns#">
   <cc:Work>
    <dc:type rdf:resource="http://purl.org/dc/dcmitype/StillImage"/>
    <dc:date>2024-02-05T08:11:16.292998</dc:date>
    <dc:format>image/svg+xml</dc:format>
    <dc:creator>
     <cc:Agent>
      <dc:title>Matplotlib v3.8.2, https://matplotlib.org/</dc:title>
     </cc:Agent>
    </dc:creator>
   </cc:Work>
  </rdf:RDF>
 </metadata>
 <defs>
  <style type="text/css">*{stroke-linejoin: round; stroke-linecap: butt}</style>
 </defs>
 <g id="figure_1">
  <g id="patch_1">
   <path d="M 0 360 
L 864 360 
L 864 0 
L 0 0 
L 0 360 
z
" style="fill: none; opacity: 0"/>
  </g>
  <g id="axes_1">
   <g id="patch_2">
    <path d="M 108 320.4 
L 777.6 320.4 
L 777.6 43.2 
L 108 43.2 
L 108 320.4 
z
" style="fill: none; opacity: 0"/>
   </g>
   <g id="matplotlib.axis_1">
    <g id="xtick_1">
     <g id="line2d_1">
      <path d="M 123.316788 320.4 
L 123.316788 43.2 
" clip-path="url(#pff0acab077)" style="fill: none; stroke-dasharray: 5.12,1.28,0.8,1.28; stroke-dashoffset: 0; stroke: #b0b0b0; stroke-width: 0.8"/>
     </g>
     <g id="line2d_2">
      <defs>
       <path id="m618d76ca7b" d="M 0 0 
L 0 3.5 
" style="stroke: #a9a9a9; stroke-width: 0.8"/>
      </defs>
      <g>
       <use xlink:href="#m618d76ca7b" x="123.316788" y="320.4" style="fill: #a9a9a9; stroke: #a9a9a9; stroke-width: 0.8"/>
      </g>
     </g>
     <g id="text_1">
      <!-- 2021-07 -->
      <g style="fill: #a9a9a9" transform="translate(102.425381 334.998438) scale(0.1 -0.1)">
       <defs>
        <path id="DejaVuSans-32" d="M 1228 531 
L 3431 531 
L 3431 0 
L 469 0 
L 469 531 
Q 828 903 1448 1529 
Q 2069 2156 2228 2338 
Q 2531 2678 2651 2914 
Q 2772 3150 2772 3378 
Q 2772 3750 2511 3984 
Q 2250 4219 1831 4219 
Q 1534 4219 1204 4116 
Q 875 4013 500 3803 
L 500 4441 
Q 881 4594 1212 4672 
Q 1544 4750 1819 4750 
Q 2544 4750 2975 4387 
Q 3406 4025 3406 3419 
Q 3406 3131 3298 2873 
Q 3191 2616 2906 2266 
Q 2828 2175 2409 1742 
Q 1991 1309 1228 531 
z
" transform="scale(0.015625)"/>
        <path id="DejaVuSans-30" d="M 2034 4250 
Q 1547 4250 1301 3770 
Q 1056 3291 1056 2328 
Q 1056 1369 1301 889 
Q 1547 409 2034 409 
Q 2525 409 2770 889 
Q 3016 1369 3016 2328 
Q 3016 3291 2770 3770 
Q 2525 4250 2034 4250 
z
M 2034 4750 
Q 2819 4750 3233 4129 
Q 3647 3509 3647 2328 
Q 3647 1150 3233 529 
Q 2819 -91 2034 -91 
Q 1250 -91 836 529 
Q 422 1150 422 2328 
Q 422 3509 836 4129 
Q 1250 4750 2034 4750 
z
" transform="scale(0.015625)"/>
        <path id="DejaVuSans-31" d="M 794 531 
L 1825 531 
L 1825 4091 
L 703 3866 
L 703 4441 
L 1819 4666 
L 2450 4666 
L 2450 531 
L 3481 531 
L 3481 0 
L 794 0 
L 794 531 
z
" transform="scale(0.015625)"/>
        <path id="DejaVuSans-2d" d="M 313 2009 
L 1997 2009 
L 1997 1497 
L 313 1497 
L 313 2009 
z
" transform="scale(0.015625)"/>
        <path id="DejaVuSans-37" d="M 525 4666 
L 3525 4666 
L 3525 4397 
L 1831 0 
L 1172 0 
L 2766 4134 
L 525 4134 
L 525 4666 
z
" transform="scale(0.015625)"/>
       </defs>
       <use xlink:href="#DejaVuSans-32"/>
       <use xlink:href="#DejaVuSans-30" x="63.623047"/>
       <use xlink:href="#DejaVuSans-32" x="127.246094"/>
       <use xlink:href="#DejaVuSans-31" x="190.869141"/>
       <use xlink:href="#DejaVuSans-2d" x="254.492188"/>
       <use xlink:href="#DejaVuSans-30" x="290.576172"/>
       <use xlink:href="#DejaVuSans-37" x="354.199219"/>
      </g>
     </g>
    </g>
    <g id="xtick_2">
     <g id="line2d_3">
      <path d="M 183.795091 320.4 
L 183.795091 43.2 
" clip-path="url(#pff0acab077)" style="fill: none; stroke-dasharray: 5.12,1.28,0.8,1.28; stroke-dashoffset: 0; stroke: #b0b0b0; stroke-width: 0.8"/>
     </g>
     <g id="line2d_4">
      <g>
       <use xlink:href="#m618d76ca7b" x="183.795091" y="320.4" style="fill: #a9a9a9; stroke: #a9a9a9; stroke-width: 0.8"/>
      </g>
     </g>
     <g id="text_2">
      <!-- 2021-10 -->
      <g style="fill: #a9a9a9" transform="translate(162.903685 334.998438) scale(0.1 -0.1)">
       <use xlink:href="#DejaVuSans-32"/>
       <use xlink:href="#DejaVuSans-30" x="63.623047"/>
       <use xlink:href="#DejaVuSans-32" x="127.246094"/>
       <use xlink:href="#DejaVuSans-31" x="190.869141"/>
       <use xlink:href="#DejaVuSans-2d" x="254.492188"/>
       <use xlink:href="#DejaVuSans-31" x="290.576172"/>
       <use xlink:href="#DejaVuSans-30" x="354.199219"/>
      </g>
     </g>
    </g>
    <g id="xtick_3">
     <g id="line2d_5">
      <path d="M 244.273395 320.4 
L 244.273395 43.2 
" clip-path="url(#pff0acab077)" style="fill: none; stroke-dasharray: 5.12,1.28,0.8,1.28; stroke-dashoffset: 0; stroke: #b0b0b0; stroke-width: 0.8"/>
     </g>
     <g id="line2d_6">
      <g>
       <use xlink:href="#m618d76ca7b" x="244.273395" y="320.4" style="fill: #a9a9a9; stroke: #a9a9a9; stroke-width: 0.8"/>
      </g>
     </g>
     <g id="text_3">
      <!-- 2022-01 -->
      <g style="fill: #a9a9a9" transform="translate(223.381989 334.998438) scale(0.1 -0.1)">
       <use xlink:href="#DejaVuSans-32"/>
       <use xlink:href="#DejaVuSans-30" x="63.623047"/>
       <use xlink:href="#DejaVuSans-32" x="127.246094"/>
       <use xlink:href="#DejaVuSans-32" x="190.869141"/>
       <use xlink:href="#DejaVuSans-2d" x="254.492188"/>
       <use xlink:href="#DejaVuSans-30" x="290.576172"/>
       <use xlink:href="#DejaVuSans-31" x="354.199219"/>
      </g>
     </g>
    </g>
    <g id="xtick_4">
     <g id="line2d_7">
      <path d="M 303.436953 320.4 
L 303.436953 43.2 
" clip-path="url(#pff0acab077)" style="fill: none; stroke-dasharray: 5.12,1.28,0.8,1.28; stroke-dashoffset: 0; stroke: #b0b0b0; stroke-width: 0.8"/>
     </g>
     <g id="line2d_8">
      <g>
       <use xlink:href="#m618d76ca7b" x="303.436953" y="320.4" style="fill: #a9a9a9; stroke: #a9a9a9; stroke-width: 0.8"/>
      </g>
     </g>
     <g id="text_4">
      <!-- 2022-04 -->
      <g style="fill: #a9a9a9" transform="translate(282.545546 334.998438) scale(0.1 -0.1)">
       <defs>
        <path id="DejaVuSans-34" d="M 2419 4116 
L 825 1625 
L 2419 1625 
L 2419 4116 
z
M 2253 4666 
L 3047 4666 
L 3047 1625 
L 3713 1625 
L 3713 1100 
L 3047 1100 
L 3047 0 
L 2419 0 
L 2419 1100 
L 313 1100 
L 313 1709 
L 2253 4666 
z
" transform="scale(0.015625)"/>
       </defs>
       <use xlink:href="#DejaVuSans-32"/>
       <use xlink:href="#DejaVuSans-30" x="63.623047"/>
       <use xlink:href="#DejaVuSans-32" x="127.246094"/>
       <use xlink:href="#DejaVuSans-32" x="190.869141"/>
       <use xlink:href="#DejaVuSans-2d" x="254.492188"/>
       <use xlink:href="#DejaVuSans-30" x="290.576172"/>
       <use xlink:href="#DejaVuSans-34" x="354.199219"/>
      </g>
     </g>
    </g>
    <g id="xtick_5">
     <g id="line2d_9">
      <path d="M 363.257883 320.4 
L 363.257883 43.2 
" clip-path="url(#pff0acab077)" style="fill: none; stroke-dasharray: 5.12,1.28,0.8,1.28; stroke-dashoffset: 0; stroke: #b0b0b0; stroke-width: 0.8"/>
     </g>
     <g id="line2d_10">
      <g>
       <use xlink:href="#m618d76ca7b" x="363.257883" y="320.4" style="fill: #a9a9a9; stroke: #a9a9a9; stroke-width: 0.8"/>
      </g>
     </g>
     <g id="text_5">
      <!-- 2022-07 -->
      <g style="fill: #a9a9a9" transform="translate(342.366477 334.998438) scale(0.1 -0.1)">
       <use xlink:href="#DejaVuSans-32"/>
       <use xlink:href="#DejaVuSans-30" x="63.623047"/>
       <use xlink:href="#DejaVuSans-32" x="127.246094"/>
       <use xlink:href="#DejaVuSans-32" x="190.869141"/>
       <use xlink:href="#DejaVuSans-2d" x="254.492188"/>
       <use xlink:href="#DejaVuSans-30" x="290.576172"/>
       <use xlink:href="#DejaVuSans-37" x="354.199219"/>
      </g>
     </g>
    </g>
    <g id="xtick_6">
     <g id="line2d_11">
      <path d="M 423.736187 320.4 
L 423.736187 43.2 
" clip-path="url(#pff0acab077)" style="fill: none; stroke-dasharray: 5.12,1.28,0.8,1.28; stroke-dashoffset: 0; stroke: #b0b0b0; stroke-width: 0.8"/>
     </g>
     <g id="line2d_12">
      <g>
       <use xlink:href="#m618d76ca7b" x="423.736187" y="320.4" style="fill: #a9a9a9; stroke: #a9a9a9; stroke-width: 0.8"/>
      </g>
     </g>
     <g id="text_6">
      <!-- 2022-10 -->
      <g style="fill: #a9a9a9" transform="translate(402.844781 334.998438) scale(0.1 -0.1)">
       <use xlink:href="#DejaVuSans-32"/>
       <use xlink:href="#DejaVuSans-30" x="63.623047"/>
       <use xlink:href="#DejaVuSans-32" x="127.246094"/>
       <use xlink:href="#DejaVuSans-32" x="190.869141"/>
       <use xlink:href="#DejaVuSans-2d" x="254.492188"/>
       <use xlink:href="#DejaVuSans-31" x="290.576172"/>
       <use xlink:href="#DejaVuSans-30" x="354.199219"/>
      </g>
     </g>
    </g>
    <g id="xtick_7">
     <g id="line2d_13">
      <path d="M 484.21449 320.4 
L 484.21449 43.2 
" clip-path="url(#pff0acab077)" style="fill: none; stroke-dasharray: 5.12,1.28,0.8,1.28; stroke-dashoffset: 0; stroke: #b0b0b0; stroke-width: 0.8"/>
     </g>
     <g id="line2d_14">
      <g>
       <use xlink:href="#m618d76ca7b" x="484.21449" y="320.4" style="fill: #a9a9a9; stroke: #a9a9a9; stroke-width: 0.8"/>
      </g>
     </g>
     <g id="text_7">
      <!-- 2023-01 -->
      <g style="fill: #a9a9a9" transform="translate(463.323084 334.998438) scale(0.1 -0.1)">
       <defs>
        <path id="DejaVuSans-33" d="M 2597 2516 
Q 3050 2419 3304 2112 
Q 3559 1806 3559 1356 
Q 3559 666 3084 287 
Q 2609 -91 1734 -91 
Q 1441 -91 1130 -33 
Q 819 25 488 141 
L 488 750 
Q 750 597 1062 519 
Q 1375 441 1716 441 
Q 2309 441 2620 675 
Q 2931 909 2931 1356 
Q 2931 1769 2642 2001 
Q 2353 2234 1838 2234 
L 1294 2234 
L 1294 2753 
L 1863 2753 
Q 2328 2753 2575 2939 
Q 2822 3125 2822 3475 
Q 2822 3834 2567 4026 
Q 2313 4219 1838 4219 
Q 1578 4219 1281 4162 
Q 984 4106 628 3988 
L 628 4550 
Q 988 4650 1302 4700 
Q 1616 4750 1894 4750 
Q 2613 4750 3031 4423 
Q 3450 4097 3450 3541 
Q 3450 3153 3228 2886 
Q 3006 2619 2597 2516 
z
" transform="scale(0.015625)"/>
       </defs>
       <use xlink:href="#DejaVuSans-32"/>
       <use xlink:href="#DejaVuSans-30" x="63.623047"/>
       <use xlink:href="#DejaVuSans-32" x="127.246094"/>
       <use xlink:href="#DejaVuSans-33" x="190.869141"/>
       <use xlink:href="#DejaVuSans-2d" x="254.492188"/>
       <use xlink:href="#DejaVuSans-30" x="290.576172"/>
       <use xlink:href="#DejaVuSans-31" x="354.199219"/>
      </g>
     </g>
    </g>
    <g id="xtick_8">
     <g id="line2d_15">
      <path d="M 543.378048 320.4 
L 543.378048 43.2 
" clip-path="url(#pff0acab077)" style="fill: none; stroke-dasharray: 5.12,1.28,0.8,1.28; stroke-dashoffset: 0; stroke: #b0b0b0; stroke-width: 0.8"/>
     </g>
     <g id="line2d_16">
      <g>
       <use xlink:href="#m618d76ca7b" x="543.378048" y="320.4" style="fill: #a9a9a9; stroke: #a9a9a9; stroke-width: 0.8"/>
      </g>
     </g>
     <g id="text_8">
      <!-- 2023-04 -->
      <g style="fill: #a9a9a9" transform="translate(522.486642 334.998438) scale(0.1 -0.1)">
       <use xlink:href="#DejaVuSans-32"/>
       <use xlink:href="#DejaVuSans-30" x="63.623047"/>
       <use xlink:href="#DejaVuSans-32" x="127.246094"/>
       <use xlink:href="#DejaVuSans-33" x="190.869141"/>
       <use xlink:href="#DejaVuSans-2d" x="254.492188"/>
       <use xlink:href="#DejaVuSans-30" x="290.576172"/>
       <use xlink:href="#DejaVuSans-34" x="354.199219"/>
      </g>
     </g>
    </g>
    <g id="xtick_9">
     <g id="line2d_17">
      <path d="M 603.198979 320.4 
L 603.198979 43.2 
" clip-path="url(#pff0acab077)" style="fill: none; stroke-dasharray: 5.12,1.28,0.8,1.28; stroke-dashoffset: 0; stroke: #b0b0b0; stroke-width: 0.8"/>
     </g>
     <g id="line2d_18">
      <g>
       <use xlink:href="#m618d76ca7b" x="603.198979" y="320.4" style="fill: #a9a9a9; stroke: #a9a9a9; stroke-width: 0.8"/>
      </g>
     </g>
     <g id="text_9">
      <!-- 2023-07 -->
      <g style="fill: #a9a9a9" transform="translate(582.307573 334.998438) scale(0.1 -0.1)">
       <use xlink:href="#DejaVuSans-32"/>
       <use xlink:href="#DejaVuSans-30" x="63.623047"/>
       <use xlink:href="#DejaVuSans-32" x="127.246094"/>
       <use xlink:href="#DejaVuSans-33" x="190.869141"/>
       <use xlink:href="#DejaVuSans-2d" x="254.492188"/>
       <use xlink:href="#DejaVuSans-30" x="290.576172"/>
       <use xlink:href="#DejaVuSans-37" x="354.199219"/>
      </g>
     </g>
    </g>
    <g id="xtick_10">
     <g id="line2d_19">
      <path d="M 663.677283 320.4 
L 663.677283 43.2 
" clip-path="url(#pff0acab077)" style="fill: none; stroke-dasharray: 5.12,1.28,0.8,1.28; stroke-dashoffset: 0; stroke: #b0b0b0; stroke-width: 0.8"/>
     </g>
     <g id="line2d_20">
      <g>
       <use xlink:href="#m618d76ca7b" x="663.677283" y="320.4" style="fill: #a9a9a9; stroke: #a9a9a9; stroke-width: 0.8"/>
      </g>
     </g>
     <g id="text_10">
      <!-- 2023-10 -->
      <g style="fill: #a9a9a9" transform="translate(642.785876 334.998438) scale(0.1 -0.1)">
       <use xlink:href="#DejaVuSans-32"/>
       <use xlink:href="#DejaVuSans-30" x="63.623047"/>
       <use xlink:href="#DejaVuSans-32" x="127.246094"/>
       <use xlink:href="#DejaVuSans-33" x="190.869141"/>
       <use xlink:href="#DejaVuSans-2d" x="254.492188"/>
       <use xlink:href="#DejaVuSans-31" x="290.576172"/>
       <use xlink:href="#DejaVuSans-30" x="354.199219"/>
      </g>
     </g>
    </g>
    <g id="xtick_11">
     <g id="line2d_21">
      <path d="M 724.155586 320.4 
L 724.155586 43.2 
" clip-path="url(#pff0acab077)" style="fill: none; stroke-dasharray: 5.12,1.28,0.8,1.28; stroke-dashoffset: 0; stroke: #b0b0b0; stroke-width: 0.8"/>
     </g>
     <g id="line2d_22">
      <g>
       <use xlink:href="#m618d76ca7b" x="724.155586" y="320.4" style="fill: #a9a9a9; stroke: #a9a9a9; stroke-width: 0.8"/>
      </g>
     </g>
     <g id="text_11">
      <!-- 2024-01 -->
      <g style="fill: #a9a9a9" transform="translate(703.26418 334.998438) scale(0.1 -0.1)">
       <use xlink:href="#DejaVuSans-32"/>
       <use xlink:href="#DejaVuSans-30" x="63.623047"/>
       <use xlink:href="#DejaVuSans-32" x="127.246094"/>
       <use xlink:href="#DejaVuSans-34" x="190.869141"/>
       <use xlink:href="#DejaVuSans-2d" x="254.492188"/>
       <use xlink:href="#DejaVuSans-30" x="290.576172"/>
       <use xlink:href="#DejaVuSans-31" x="354.199219"/>
      </g>
     </g>
    </g>
   </g>
   <g id="matplotlib.axis_2">
    <g id="ytick_1">
     <g id="line2d_23">
      <path d="M 108 307.845242 
L 777.6 307.845242 
" clip-path="url(#pff0acab077)" style="fill: none; stroke-dasharray: 5.12,1.28,0.8,1.28; stroke-dashoffset: 0; stroke: #b0b0b0; stroke-width: 0.8"/>
     </g>
     <g id="line2d_24">
      <defs>
       <path id="m56ca580e4a" d="M 0 0 
L -3.5 0 
" style="stroke: #a9a9a9; stroke-width: 0.8"/>
      </defs>
      <g>
       <use xlink:href="#m56ca580e4a" x="108" y="307.845242" style="fill: #a9a9a9; stroke: #a9a9a9; stroke-width: 0.8"/>
      </g>
     </g>
     <g id="text_12">
      <!-- 0 -->
      <g style="fill: #a9a9a9" transform="translate(94.6375 311.644461) scale(0.1 -0.1)">
       <use xlink:href="#DejaVuSans-30"/>
      </g>
     </g>
    </g>
    <g id="ytick_2">
     <g id="line2d_25">
      <path d="M 108 271.651346 
L 777.6 271.651346 
" clip-path="url(#pff0acab077)" style="fill: none; stroke-dasharray: 5.12,1.28,0.8,1.28; stroke-dashoffset: 0; stroke: #b0b0b0; stroke-width: 0.8"/>
     </g>
     <g id="line2d_26">
      <g>
       <use xlink:href="#m56ca580e4a" x="108" y="271.651346" style="fill: #a9a9a9; stroke: #a9a9a9; stroke-width: 0.8"/>
      </g>
     </g>
     <g id="text_13">
      <!-- 800 -->
      <g style="fill: #a9a9a9" transform="translate(81.9125 275.450565) scale(0.1 -0.1)">
       <defs>
        <path id="DejaVuSans-38" d="M 2034 2216 
Q 1584 2216 1326 1975 
Q 1069 1734 1069 1313 
Q 1069 891 1326 650 
Q 1584 409 2034 409 
Q 2484 409 2743 651 
Q 3003 894 3003 1313 
Q 3003 1734 2745 1975 
Q 2488 2216 2034 2216 
z
M 1403 2484 
Q 997 2584 770 2862 
Q 544 3141 544 3541 
Q 544 4100 942 4425 
Q 1341 4750 2034 4750 
Q 2731 4750 3128 4425 
Q 3525 4100 3525 3541 
Q 3525 3141 3298 2862 
Q 3072 2584 2669 2484 
Q 3125 2378 3379 2068 
Q 3634 1759 3634 1313 
Q 3634 634 3220 271 
Q 2806 -91 2034 -91 
Q 1263 -91 848 271 
Q 434 634 434 1313 
Q 434 1759 690 2068 
Q 947 2378 1403 2484 
z
M 1172 3481 
Q 1172 3119 1398 2916 
Q 1625 2713 2034 2713 
Q 2441 2713 2670 2916 
Q 2900 3119 2900 3481 
Q 2900 3844 2670 4047 
Q 2441 4250 2034 4250 
Q 1625 4250 1398 4047 
Q 1172 3844 1172 3481 
z
" transform="scale(0.015625)"/>
       </defs>
       <use xlink:href="#DejaVuSans-38"/>
       <use xlink:href="#DejaVuSans-30" x="63.623047"/>
       <use xlink:href="#DejaVuSans-30" x="127.246094"/>
      </g>
     </g>
    </g>
    <g id="ytick_3">
     <g id="line2d_27">
      <path d="M 108 235.457451 
L 777.6 235.457451 
" clip-path="url(#pff0acab077)" style="fill: none; stroke-dasharray: 5.12,1.28,0.8,1.28; stroke-dashoffset: 0; stroke: #b0b0b0; stroke-width: 0.8"/>
     </g>
     <g id="line2d_28">
      <g>
       <use xlink:href="#m56ca580e4a" x="108" y="235.457451" style="fill: #a9a9a9; stroke: #a9a9a9; stroke-width: 0.8"/>
      </g>
     </g>
     <g id="text_14">
      <!-- 1600 -->
      <g style="fill: #a9a9a9" transform="translate(75.55 239.256669) scale(0.1 -0.1)">
       <defs>
        <path id="DejaVuSans-36" d="M 2113 2584 
Q 1688 2584 1439 2293 
Q 1191 2003 1191 1497 
Q 1191 994 1439 701 
Q 1688 409 2113 409 
Q 2538 409 2786 701 
Q 3034 994 3034 1497 
Q 3034 2003 2786 2293 
Q 2538 2584 2113 2584 
z
M 3366 4563 
L 3366 3988 
Q 3128 4100 2886 4159 
Q 2644 4219 2406 4219 
Q 1781 4219 1451 3797 
Q 1122 3375 1075 2522 
Q 1259 2794 1537 2939 
Q 1816 3084 2150 3084 
Q 2853 3084 3261 2657 
Q 3669 2231 3669 1497 
Q 3669 778 3244 343 
Q 2819 -91 2113 -91 
Q 1303 -91 875 529 
Q 447 1150 447 2328 
Q 447 3434 972 4092 
Q 1497 4750 2381 4750 
Q 2619 4750 2861 4703 
Q 3103 4656 3366 4563 
z
" transform="scale(0.015625)"/>
       </defs>
       <use xlink:href="#DejaVuSans-31"/>
       <use xlink:href="#DejaVuSans-36" x="63.623047"/>
       <use xlink:href="#DejaVuSans-30" x="127.246094"/>
       <use xlink:href="#DejaVuSans-30" x="190.869141"/>
      </g>
     </g>
    </g>
    <g id="ytick_4">
     <g id="line2d_29">
      <path d="M 108 199.263555 
L 777.6 199.263555 
" clip-path="url(#pff0acab077)" style="fill: none; stroke-dasharray: 5.12,1.28,0.8,1.28; stroke-dashoffset: 0; stroke: #b0b0b0; stroke-width: 0.8"/>
     </g>
     <g id="line2d_30">
      <g>
       <use xlink:href="#m56ca580e4a" x="108" y="199.263555" style="fill: #a9a9a9; stroke: #a9a9a9; stroke-width: 0.8"/>
      </g>
     </g>
     <g id="text_15">
      <!-- 2400 -->
      <g style="fill: #a9a9a9" transform="translate(75.55 203.062774) scale(0.1 -0.1)">
       <use xlink:href="#DejaVuSans-32"/>
       <use xlink:href="#DejaVuSans-34" x="63.623047"/>
       <use xlink:href="#DejaVuSans-30" x="127.246094"/>
       <use xlink:href="#DejaVuSans-30" x="190.869141"/>
      </g>
     </g>
    </g>
    <g id="ytick_5">
     <g id="line2d_31">
      <path d="M 108 163.069659 
L 777.6 163.069659 
" clip-path="url(#pff0acab077)" style="fill: none; stroke-dasharray: 5.12,1.28,0.8,1.28; stroke-dashoffset: 0; stroke: #b0b0b0; stroke-width: 0.8"/>
     </g>
     <g id="line2d_32">
      <g>
       <use xlink:href="#m56ca580e4a" x="108" y="163.069659" style="fill: #a9a9a9; stroke: #a9a9a9; stroke-width: 0.8"/>
      </g>
     </g>
     <g id="text_16">
      <!-- 3200 -->
      <g style="fill: #a9a9a9" transform="translate(75.55 166.868878) scale(0.1 -0.1)">
       <use xlink:href="#DejaVuSans-33"/>
       <use xlink:href="#DejaVuSans-32" x="63.623047"/>
       <use xlink:href="#DejaVuSans-30" x="127.246094"/>
       <use xlink:href="#DejaVuSans-30" x="190.869141"/>
      </g>
     </g>
    </g>
    <g id="ytick_6">
     <g id="line2d_33">
      <path d="M 108 126.875763 
L 777.6 126.875763 
" clip-path="url(#pff0acab077)" style="fill: none; stroke-dasharray: 5.12,1.28,0.8,1.28; stroke-dashoffset: 0; stroke: #b0b0b0; stroke-width: 0.8"/>
     </g>
     <g id="line2d_34">
      <g>
       <use xlink:href="#m56ca580e4a" x="108" y="126.875763" style="fill: #a9a9a9; stroke: #a9a9a9; stroke-width: 0.8"/>
      </g>
     </g>
     <g id="text_17">
      <!-- 4000 -->
      <g style="fill: #a9a9a9" transform="translate(75.55 130.674982) scale(0.1 -0.1)">
       <use xlink:href="#DejaVuSans-34"/>
       <use xlink:href="#DejaVuSans-30" x="63.623047"/>
       <use xlink:href="#DejaVuSans-30" x="127.246094"/>
       <use xlink:href="#DejaVuSans-30" x="190.869141"/>
      </g>
     </g>
    </g>
    <g id="ytick_7">
     <g id="line2d_35">
      <path d="M 108 90.681867 
L 777.6 90.681867 
" clip-path="url(#pff0acab077)" style="fill: none; stroke-dasharray: 5.12,1.28,0.8,1.28; stroke-dashoffset: 0; stroke: #b0b0b0; stroke-width: 0.8"/>
     </g>
     <g id="line2d_36">
      <g>
       <use xlink:href="#m56ca580e4a" x="108" y="90.681867" style="fill: #a9a9a9; stroke: #a9a9a9; stroke-width: 0.8"/>
      </g>
     </g>
     <g id="text_18">
      <!-- 4800 -->
      <g style="fill: #a9a9a9" transform="translate(75.55 94.481086) scale(0.1 -0.1)">
       <use xlink:href="#DejaVuSans-34"/>
       <use xlink:href="#DejaVuSans-38" x="63.623047"/>
       <use xlink:href="#DejaVuSans-30" x="127.246094"/>
       <use xlink:href="#DejaVuSans-30" x="190.869141"/>
      </g>
     </g>
    </g>
    <g id="ytick_8">
     <g id="line2d_37">
      <path d="M 108 54.487971 
L 777.6 54.487971 
" clip-path="url(#pff0acab077)" style="fill: none; stroke-dasharray: 5.12,1.28,0.8,1.28; stroke-dashoffset: 0; stroke: #b0b0b0; stroke-width: 0.8"/>
     </g>
     <g id="line2d_38">
      <g>
       <use xlink:href="#m56ca580e4a" x="108" y="54.487971" style="fill: #a9a9a9; stroke: #a9a9a9; stroke-width: 0.8"/>
      </g>
     </g>
     <g id="text_19">
      <!-- 5600 -->
      <g style="fill: #a9a9a9" transform="translate(75.55 58.28719) scale(0.1 -0.1)">
       <defs>
        <path id="DejaVuSans-35" d="M 691 4666 
L 3169 4666 
L 3169 4134 
L 1269 4134 
L 1269 2991 
Q 1406 3038 1543 3061 
Q 1681 3084 1819 3084 
Q 2600 3084 3056 2656 
Q 3513 2228 3513 1497 
Q 3513 744 3044 326 
Q 2575 -91 1722 -91 
Q 1428 -91 1123 -41 
Q 819 9 494 109 
L 494 744 
Q 775 591 1075 516 
Q 1375 441 1709 441 
Q 2250 441 2565 725 
Q 2881 1009 2881 1497 
Q 2881 1984 2565 2268 
Q 2250 2553 1709 2553 
Q 1456 2553 1204 2497 
Q 953 2441 691 2322 
L 691 4666 
z
" transform="scale(0.015625)"/>
       </defs>
       <use xlink:href="#DejaVuSans-35"/>
       <use xlink:href="#DejaVuSans-36" x="63.623047"/>
       <use xlink:href="#DejaVuSans-30" x="127.246094"/>
       <use xlink:href="#DejaVuSans-30" x="190.869141"/>
      </g>
     </g>
    </g>
   </g>
   <g id="line2d_39">
    <path d="M 138.436364 307.709515 
L 142.380601 307.392819 
L 143.037974 307.121364 
L 145.010092 306.895153 
L 149.611702 306.035548 
L 152.898567 305.718851 
L 153.55594 305.402154 
L 154.213312 305.221185 
L 154.870685 304.406822 
L 155.528058 303.954399 
L 156.185431 302.551885 
L 156.842804 302.4614 
L 157.500177 301.963734 
L 158.814922 301.330341 
L 161.444414 299.339677 
L 162.75916 298.796768 
L 163.416532 298.344345 
L 166.046024 297.213285 
L 166.703397 296.172711 
L 168.018143 295.222621 
L 168.675515 294.905925 
L 175.249244 294.001077 
L 175.906617 293.684381 
L 180.508227 293.322442 
L 182.480346 292.824776 
L 188.396701 292.055655 
L 189.054074 291.693716 
L 189.711447 291.603232 
L 190.36882 291.331777 
L 191.683566 291.105566 
L 192.340939 291.060323 
L 192.998311 290.834111 
L 195.627803 290.42693 
L 196.942549 290.064991 
L 198.914667 289.884022 
L 200.229413 289.748294 
L 200.886786 289.567325 
L 201.544159 289.522083 
L 203.516277 288.933932 
L 207.460514 288.345781 
L 208.117887 288.164811 
L 208.77526 287.259964 
L 210.747379 286.536086 
L 212.719497 285.993178 
L 213.37687 285.676481 
L 214.034243 285.631239 
L 217.321107 284.726391 
L 218.635853 284.635907 
L 219.293226 284.545422 
L 221.265345 283.957271 
L 223.894836 283.323878 
L 224.552209 283.052424 
L 225.209582 282.961939 
L 225.866955 282.645242 
L 232.440683 281.64991 
L 235.727548 280.745063 
L 236.38492 280.337882 
L 239.014412 279.659246 
L 240.329158 278.890126 
L 240.986531 278.437702 
L 242.958649 278.075763 
L 246.902886 276.899461 
L 248.217632 276.49228 
L 248.875005 276.401795 
L 250.189751 276.039856 
L 251.504496 275.72316 
L 252.161869 275.632675 
L 253.476615 275.089767 
L 254.133988 274.954039 
L 254.791361 274.682585 
L 255.448734 274.592101 
L 256.106106 274.275404 
L 256.763479 274.094434 
L 258.078225 274.00395 
L 259.392971 273.551526 
L 260.707716 273.461041 
L 261.365089 273.144345 
L 263.994581 272.691921 
L 266.624072 272.465709 
L 267.281445 272.329982 
L 268.596191 271.696589 
L 275.827292 268.66535 
L 276.484665 268.303411 
L 277.142038 267.579533 
L 277.799411 266.493716 
L 278.456784 265.634111 
L 279.114157 265.453142 
L 279.77153 265.453142 
L 281.086275 264.503052 
L 281.743648 264.322083 
L 282.401021 263.960144 
L 283.058394 263.824417 
L 283.715767 263.236266 
L 284.37314 263.055296 
L 286.345258 262.105206 
L 287.002631 261.290844 
L 287.660004 260.295512 
L 288.317377 259.88833 
L 288.97475 258.802513 
L 289.632123 258.123878 
L 290.289495 257.807181 
L 290.946868 257.626212 
L 293.57636 256.087971 
L 294.891105 255.047397 
L 295.548478 254.640215 
L 296.205851 253.690126 
L 296.863224 252.197127 
L 297.520597 251.247038 
L 298.17797 250.749372 
L 298.835343 250.477917 
L 301.464834 248.215799 
L 302.122207 247.763375 
L 303.436953 246.632316 
L 304.094326 245.727469 
L 305.409071 244.596409 
L 308.038563 242.922442 
L 308.695936 242.334291 
L 309.353308 242.198564 
L 311.325427 241.157989 
L 313.297546 240.162657 
L 314.612291 238.941113 
L 315.269664 238.171993 
L 316.58441 237.267145 
L 317.241783 237.086176 
L 317.899156 236.769479 
L 319.213901 235.909874 
L 319.871274 235.547935 
L 320.528647 235.457451 
L 321.843393 234.733573 
L 322.500766 234.371634 
L 323.158139 233.692998 
L 323.815511 233.285817 
L 324.472884 233.059605 
L 325.130257 232.607181 
L 327.759749 231.24991 
L 328.417122 230.661759 
L 331.046613 229.802154 
L 331.703986 229.349731 
L 332.361359 229.214004 
L 333.676104 228.76158 
L 335.648223 227.99246 
L 337.620342 227.268582 
L 338.935087 227.04237 
L 340.249833 225.911311 
L 341.564579 225.277917 
L 343.536697 224.146858 
L 344.851443 223.784919 
L 345.508816 223.377738 
L 346.166189 223.196768 
L 347.480935 222.337163 
L 348.138307 221.975224 
L 351.425172 221.206104 
L 353.39729 220.075045 
L 354.054663 219.98456 
L 354.712036 219.758348 
L 356.026782 219.486894 
L 357.9989 218.039138 
L 359.971019 217.586715 
L 360.628392 217.360503 
L 361.285765 216.862837 
L 365.230002 215.59605 
L 365.887375 215.550808 
L 370.488985 213.922083 
L 371.146358 213.605386 
L 373.118476 213.152962 
L 374.433222 212.836266 
L 375.090595 212.519569 
L 375.747968 212.383842 
L 377.720086 211.478995 
L 379.692205 210.528905 
L 380.349578 210.076481 
L 381.006951 209.895512 
L 382.979069 208.854937 
L 384.293815 208.538241 
L 385.608561 207.859605 
L 386.923306 207.497666 
L 387.580679 207.407181 
L 388.238052 206.954758 
L 388.895425 206.638061 
L 389.552798 206.502334 
L 390.867544 205.959425 
L 391.524917 205.823698 
L 392.182289 205.461759 
L 394.811781 205.054578 
L 396.126527 204.421185 
L 396.783899 203.878276 
L 397.441272 202.747217 
L 398.756018 202.475763 
L 399.413391 202.340036 
L 402.042882 200.982765 
L 402.700255 200.847038 
L 407.959238 198.358707 
L 409.931357 197.951526 
L 410.58873 197.589587 
L 414.532967 196.232316 
L 415.847713 195.417953 
L 416.505085 194.96553 
L 417.162458 194.648833 
L 417.819831 194.558348 
L 418.477204 194.332136 
L 419.134577 194.286894 
L 422.421441 193.427289 
L 423.078814 192.929623 
L 424.39356 192.477199 
L 426.365678 191.843806 
L 427.023051 191.436625 
L 427.680424 191.255655 
L 428.337797 190.803232 
L 428.99517 190.531777 
L 429.652543 190.124596 
L 430.309916 189.853142 
L 431.624661 189.536445 
L 433.59678 188.767325 
L 435.568898 187.274327 
L 436.226271 187.1386 
L 437.541017 186.143268 
L 438.19839 186.00754 
L 438.855763 185.012208 
L 439.513136 184.740754 
L 440.170509 184.243088 
L 440.827881 184.152603 
L 441.485254 183.70018 
L 442.142627 183.383483 
L 442.8 183.247756 
L 443.457373 182.976302 
L 444.114746 182.478636 
L 444.772119 182.252424 
L 446.744237 180.940395 
L 449.373729 179.628366 
L 450.031102 179.537882 
L 451.345847 178.949731 
L 452.00322 178.587792 
L 452.660593 177.501975 
L 453.317966 176.913824 
L 453.975339 176.551885 
L 454.632712 176.416158 
L 455.947457 175.601795 
L 456.60483 175.466068 
L 457.919576 174.832675 
L 459.891694 174.018312 
L 461.20644 173.113465 
L 462.521186 171.756194 
L 463.835932 170.941831 
L 464.493305 170.53465 
L 465.150677 169.856014 
L 465.80805 169.403591 
L 467.122796 168.317774 
L 467.780169 168.04632 
L 468.437542 167.322442 
L 469.094915 166.824776 
L 470.40966 166.372352 
L 471.067033 165.829443 
L 472.381779 165.150808 
L 473.039152 164.969838 
L 473.696525 164.517415 
L 474.353898 164.381688 
L 476.326016 163.341113 
L 476.983389 162.888689 
L 478.298135 162.345781 
L 478.955508 162.210054 
L 479.61288 161.802873 
L 482.899745 160.762298 
L 483.557118 160.581329 
L 484.21449 160.264632 
L 484.871863 159.676481 
L 486.843982 158.952603 
L 488.158728 158.545422 
L 488.816101 158.047756 
L 491.445592 156.690485 
L 492.102965 156.328546 
L 493.417711 153.749731 
L 494.732456 152.21149 
L 495.389829 151.759066 
L 497.361948 150.899461 
L 498.019321 150.67325 
L 498.676694 150.582765 
L 499.334066 150.220826 
L 501.306185 149.632675 
L 503.935676 148.456373 
L 504.593049 148.049192 
L 505.907795 147.596768 
L 509.852032 145.33465 
L 510.509405 144.656014 
L 511.824151 143.932136 
L 512.481524 143.570197 
L 513.138897 143.343986 
L 513.796269 142.891562 
L 515.111015 142.258169 
L 517.083134 141.217594 
L 517.740507 141.036625 
L 518.397879 140.538959 
L 519.055252 140.267504 
L 519.712625 140.131777 
L 521.027371 139.679354 
L 522.999489 138.955476 
L 523.656862 138.45781 
L 524.971608 138.095871 
L 526.286354 137.598205 
L 526.943727 137.055296 
L 528.258472 136.648115 
L 528.915845 136.331418 
L 529.573218 136.150449 
L 530.887964 135.245601 
L 532.20271 134.657451 
L 533.517455 133.662118 
L 534.832201 133.209695 
L 535.489574 132.666786 
L 536.146947 132.576302 
L 537.461693 131.626212 
L 538.776438 130.992819 
L 539.433811 130.721364 
L 540.091184 130.042729 
L 544.035421 128.594973 
L 546.00754 127.735368 
L 547.979658 127.147217 
L 549.294404 126.966248 
L 549.951777 126.694794 
L 550.60915 126.604309 
L 551.923896 126.0614 
L 552.581268 126.016158 
L 555.21076 125.066068 
L 557.182878 123.708797 
L 561.127116 121.763375 
L 562.441861 120.949013 
L 563.099234 120.541831 
L 564.41398 120.225135 
L 565.728726 119.320287 
L 568.358217 118.505925 
L 569.01559 118.23447 
L 570.330336 117.917774 
L 573.6172 116.831957 
L 575.589319 116.470018 
L 576.246692 116.289048 
L 576.904064 115.972352 
L 577.561437 115.881867 
L 578.876183 115.338959 
L 579.533556 115.248474 
L 580.190929 114.931777 
L 581.505674 114.660323 
L 582.163047 114.343627 
L 584.135166 113.891203 
L 585.449912 113.619749 
L 589.394149 112.895871 
L 590.708895 112.624417 
L 591.366267 112.488689 
L 592.02364 112.217235 
L 592.681013 112.171993 
L 594.653132 111.629084 
L 595.310505 111.267145 
L 598.597369 110.452783 
L 599.254742 110.317056 
L 600.569488 109.864632 
L 602.541606 109.185996 
L 603.198979 109.095512 
L 605.171098 108.416876 
L 605.82847 108.416876 
L 607.143216 107.964452 
L 607.800589 107.331059 
L 608.457962 107.014363 
L 609.772708 106.607181 
L 612.402199 105.611849 
L 613.059572 105.476122 
L 613.716945 105.068941 
L 614.374318 104.933214 
L 615.031691 104.526032 
L 618.318555 103.575943 
L 618.975928 103.168761 
L 619.633301 102.987792 
L 620.290673 102.444883 
L 622.262792 102.082944 
L 623.577538 101.359066 
L 624.234911 100.635189 
L 625.549656 100.363734 
L 630.151266 99.32316 
L 630.808639 99.14219 
L 632.123385 99.096948 
L 632.780758 98.780251 
L 635.410249 98.327828 
L 636.067622 98.011131 
L 638.039741 97.739677 
L 640.669232 96.925314 
L 642.641351 96.47289 
L 644.613469 95.975224 
L 647.242961 95.160862 
L 647.900334 95.025135 
L 648.557707 94.708438 
L 649.21508 94.617953 
L 649.872452 94.391741 
L 650.529825 93.98456 
L 652.501944 93.260682 
L 653.159317 92.763016 
L 654.474062 92.401077 
L 655.131435 92.129623 
L 656.446181 91.767684 
L 659.075672 90.591382 
L 661.047791 90.455655 
L 663.677283 89.641293 
L 664.334655 89.234111 
L 665.649401 88.82693 
L 667.62152 87.831598 
L 668.278893 87.695871 
L 668.936265 87.379174 
L 669.593638 87.288689 
L 676.82474 84.890844 
L 679.454231 84.257451 
L 680.111604 84.076481 
L 681.42635 83.443088 
L 682.083723 83.352603 
L 683.398468 82.990664 
L 684.055841 82.492998 
L 684.713214 82.176302 
L 685.370587 81.407181 
L 686.02796 80.909515 
L 687.342706 80.502334 
L 688.000079 79.959425 
L 695.23118 77.018671 
L 696.545926 76.701975 
L 697.860672 76.113824 
L 699.83279 74.937522 
L 700.490163 74.801795 
L 701.147536 74.304129 
L 702.462282 73.670736 
L 703.777027 72.856373 
L 705.749146 71.951526 
L 706.406519 71.499102 
L 707.721264 71.001436 
L 708.378637 70.549013 
L 709.693383 69.915619 
L 710.350756 69.463196 
L 711.665502 69.010772 
L 712.322875 68.875045 
L 714.952366 67.698743 
L 718.23923 66.567684 
L 718.896603 66.522442 
L 719.553976 66.341472 
L 720.211349 65.934291 
L 720.868722 65.843806 
L 721.526095 65.572352 
L 723.498213 65.165171 
L 726.785078 63.491203 
L 728.099823 62.767325 
L 728.757196 62.67684 
L 730.729315 61.591023 
L 732.701433 60.867145 
L 734.673552 60.00754 
L 737.303043 58.966966 
L 737.960416 58.785996 
L 738.617789 58.378815 
L 739.275162 58.333573 
L 739.932535 58.152603 
L 740.589908 57.70018 
L 741.247281 57.654937 
L 742.562026 57.247756 
L 743.876772 56.614363 
L 744.534145 56.523878 
L 745.191518 56.252424 
L 745.848891 56.116697 
L 746.506263 55.8 
L 747.163636 55.8 
L 747.163636 55.8 
" clip-path="url(#pff0acab077)" style="fill: none; stroke: #1f77b4; stroke-width: 1.5; stroke-linecap: square"/>
   </g>
   <g id="line2d_40">
    <path d="M 139.093737 307.8 
L 141.065855 307.709515 
L 143.037974 307.664273 
L 146.982211 307.573788 
L 150.269075 307.438061 
L 152.898567 307.438061 
L 153.55594 307.257092 
L 156.185431 307.166607 
L 158.15755 306.940395 
L 160.129668 306.759425 
L 164.073905 306.578456 
L 164.731278 306.578456 
L 165.388651 306.442729 
L 168.018143 306.352244 
L 169.332888 306.261759 
L 174.591871 306.171275 
L 177.878736 306.035548 
L 185.76721 305.945063 
L 189.054074 305.809336 
L 192.998311 305.718851 
L 195.627803 305.628366 
L 201.544159 305.537882 
L 203.516277 305.492639 
L 205.488396 305.447397 
L 207.460514 305.221185 
L 211.404752 305.175943 
L 212.719497 305.085458 
L 217.321107 304.994973 
L 224.552209 304.587792 
L 229.153819 304.497307 
L 230.468565 304.406822 
L 232.440683 304.316338 
L 236.38492 304.135368 
L 239.014412 304.090126 
L 240.986531 303.909156 
L 251.504496 303.275763 
L 254.133988 303.185278 
L 258.735598 302.959066 
L 260.707716 302.868582 
L 267.281445 302.506643 
L 274.512547 302.416158 
L 277.142038 302.144704 
L 278.456784 302.054219 
L 287.002631 301.375583 
L 290.946868 300.877917 
L 293.57636 300.787433 
L 298.835343 300.108797 
L 302.122207 300.018312 
L 310.668054 299.339677 
L 314.612291 298.887253 
L 316.58441 298.842011 
L 317.899156 298.751526 
L 320.528647 298.661041 
L 321.843393 298.570557 
L 325.130257 298.25386 
L 325.78763 298.07289 
L 329.731867 297.891921 
L 333.018732 297.801436 
L 341.564579 297.30377 
L 343.536697 297.213285 
L 352.082545 296.715619 
L 356.684155 296.625135 
L 357.341528 296.489408 
L 362.600511 296.398923 
L 367.202121 296.172711 
L 374.433222 296.082226 
L 379.034832 295.856014 
L 384.293815 295.76553 
L 389.552798 295.494075 
L 394.154408 295.403591 
L 406.644492 294.63447 
L 411.903475 294.543986 
L 428.99517 293.458169 
L 432.939407 293.367684 
L 434.911526 293.322442 
L 436.883644 293.277199 
L 438.855763 293.09623 
L 444.114746 293.005745 
L 445.429491 292.779533 
L 446.744237 292.689048 
L 450.031102 292.553321 
L 451.345847 292.462837 
L 452.660593 292.372352 
L 458.576949 292.281867 
L 459.891694 292.14614 
L 462.521186 292.100898 
L 463.178559 291.965171 
L 464.493305 291.874686 
L 465.150677 291.738959 
L 467.122796 291.648474 
L 478.298135 290.969838 
L 480.270253 290.879354 
L 483.557118 290.743627 
L 492.760338 290.653142 
L 497.361948 290.42693 
L 502.620931 290.336445 
L 505.250422 290.245961 
L 507.879914 290.200718 
L 509.194659 290.064991 
L 511.824151 289.974506 
L 518.397879 289.612567 
L 522.342117 289.567325 
L 524.314235 289.386355 
L 526.286354 289.341113 
L 530.887964 289.250628 
L 533.517455 289.160144 
L 539.433811 289.069659 
L 542.063303 288.979174 
L 546.00754 288.888689 
L 552.581268 288.52675 
L 554.553387 288.52675 
L 555.21076 288.391023 
L 556.525506 288.300539 
L 559.154997 288.210054 
L 567.043471 288.119569 
L 570.330336 287.983842 
L 581.505674 287.9386 
L 582.82042 287.848115 
L 584.792539 287.802873 
L 593.338386 287.712388 
L 594.653132 287.621903 
L 601.884233 287.531418 
L 604.513725 287.440934 
L 612.402199 287.395691 
L 613.716945 287.305206 
L 623.577538 287.259964 
L 625.549656 287.078995 
L 636.724995 286.98851 
L 638.697114 286.943268 
L 655.788808 286.852783 
L 658.4183 286.762298 
L 670.251011 286.671813 
L 672.880503 286.581329 
L 677.482113 286.490844 
L 682.741096 286.21939 
L 685.370587 286.128905 
L 688.000079 286.03842 
L 691.944316 285.947935 
L 693.916434 285.902693 
L 696.545926 285.812208 
L 698.518044 285.766966 
L 701.804909 285.676481 
L 703.119654 285.540754 
L 707.063892 285.450269 
L 714.294993 285.043088 
L 717.581857 284.952603 
L 720.211349 284.862118 
L 724.812959 284.771634 
L 727.44245 284.681149 
L 732.701433 284.590664 
L 734.673552 284.545422 
L 737.960416 284.454937 
L 741.904653 284.273968 
L 747.163636 284.183483 
L 747.163636 284.183483 
" clip-path="url(#pff0acab077)" style="fill: none; stroke: #ff7f0e; stroke-width: 1.5; stroke-linecap: square"/>
   </g>
   <g id="patch_3">
    <path d="M 108 320.4 
L 108 43.2 
" style="fill: none; stroke: #a9a9a9; stroke-width: 0.8; stroke-linejoin: miter; stroke-linecap: square"/>
   </g>
   <g id="patch_4">
    <path d="M 777.6 320.4 
L 777.6 43.2 
" style="fill: none"/>
   </g>
   <g id="patch_5">
    <path d="M 108 320.4 
L 777.6 320.4 
" style="fill: none; stroke: #a9a9a9; stroke-width: 0.8; stroke-linejoin: miter; stroke-linecap: square"/>
   </g>
   <g id="patch_6">
    <path d="M 108 43.2 
L 777.6 43.2 
" style="fill: none"/>
   </g>
   <g id="text_20">
    <!-- get_subscribe history -->
    <g style="fill: #a9a9a9" transform="translate(378.6075 37.2) scale(0.12 -0.12)">
     <defs>
      <path id="DejaVuSans-67" d="M 2906 1791 
Q 2906 2416 2648 2759 
Q 2391 3103 1925 3103 
Q 1463 3103 1205 2759 
Q 947 2416 947 1791 
Q 947 1169 1205 825 
Q 1463 481 1925 481 
Q 2391 481 2648 825 
Q 2906 1169 2906 1791 
z
M 3481 434 
Q 3481 -459 3084 -895 
Q 2688 -1331 1869 -1331 
Q 1566 -1331 1297 -1286 
Q 1028 -1241 775 -1147 
L 775 -588 
Q 1028 -725 1275 -790 
Q 1522 -856 1778 -856 
Q 2344 -856 2625 -561 
Q 2906 -266 2906 331 
L 2906 616 
Q 2728 306 2450 153 
Q 2172 0 1784 0 
Q 1141 0 747 490 
Q 353 981 353 1791 
Q 353 2603 747 3093 
Q 1141 3584 1784 3584 
Q 2172 3584 2450 3431 
Q 2728 3278 2906 2969 
L 2906 3500 
L 3481 3500 
L 3481 434 
z
" transform="scale(0.015625)"/>
      <path id="DejaVuSans-65" d="M 3597 1894 
L 3597 1613 
L 953 1613 
Q 991 1019 1311 708 
Q 1631 397 2203 397 
Q 2534 397 2845 478 
Q 3156 559 3463 722 
L 3463 178 
Q 3153 47 2828 -22 
Q 2503 -91 2169 -91 
Q 1331 -91 842 396 
Q 353 884 353 1716 
Q 353 2575 817 3079 
Q 1281 3584 2069 3584 
Q 2775 3584 3186 3129 
Q 3597 2675 3597 1894 
z
M 3022 2063 
Q 3016 2534 2758 2815 
Q 2500 3097 2075 3097 
Q 1594 3097 1305 2825 
Q 1016 2553 972 2059 
L 3022 2063 
z
" transform="scale(0.015625)"/>
      <path id="DejaVuSans-74" d="M 1172 4494 
L 1172 3500 
L 2356 3500 
L 2356 3053 
L 1172 3053 
L 1172 1153 
Q 1172 725 1289 603 
Q 1406 481 1766 481 
L 2356 481 
L 2356 0 
L 1766 0 
Q 1100 0 847 248 
Q 594 497 594 1153 
L 594 3053 
L 172 3053 
L 172 3500 
L 594 3500 
L 594 4494 
L 1172 4494 
z
" transform="scale(0.015625)"/>
      <path id="DejaVuSans-5f" d="M 3263 -1063 
L 3263 -1509 
L -63 -1509 
L -63 -1063 
L 3263 -1063 
z
" transform="scale(0.015625)"/>
      <path id="DejaVuSans-73" d="M 2834 3397 
L 2834 2853 
Q 2591 2978 2328 3040 
Q 2066 3103 1784 3103 
Q 1356 3103 1142 2972 
Q 928 2841 928 2578 
Q 928 2378 1081 2264 
Q 1234 2150 1697 2047 
L 1894 2003 
Q 2506 1872 2764 1633 
Q 3022 1394 3022 966 
Q 3022 478 2636 193 
Q 2250 -91 1575 -91 
Q 1294 -91 989 -36 
Q 684 19 347 128 
L 347 722 
Q 666 556 975 473 
Q 1284 391 1588 391 
Q 1994 391 2212 530 
Q 2431 669 2431 922 
Q 2431 1156 2273 1281 
Q 2116 1406 1581 1522 
L 1381 1569 
Q 847 1681 609 1914 
Q 372 2147 372 2553 
Q 372 3047 722 3315 
Q 1072 3584 1716 3584 
Q 2034 3584 2315 3537 
Q 2597 3491 2834 3397 
z
" transform="scale(0.015625)"/>
      <path id="DejaVuSans-75" d="M 544 1381 
L 544 3500 
L 1119 3500 
L 1119 1403 
Q 1119 906 1312 657 
Q 1506 409 1894 409 
Q 2359 409 2629 706 
Q 2900 1003 2900 1516 
L 2900 3500 
L 3475 3500 
L 3475 0 
L 2900 0 
L 2900 538 
Q 2691 219 2414 64 
Q 2138 -91 1772 -91 
Q 1169 -91 856 284 
Q 544 659 544 1381 
z
M 1991 3584 
L 1991 3584 
z
" transform="scale(0.015625)"/>
      <path id="DejaVuSans-62" d="M 3116 1747 
Q 3116 2381 2855 2742 
Q 2594 3103 2138 3103 
Q 1681 3103 1420 2742 
Q 1159 2381 1159 1747 
Q 1159 1113 1420 752 
Q 1681 391 2138 391 
Q 2594 391 2855 752 
Q 3116 1113 3116 1747 
z
M 1159 2969 
Q 1341 3281 1617 3432 
Q 1894 3584 2278 3584 
Q 2916 3584 3314 3078 
Q 3713 2572 3713 1747 
Q 3713 922 3314 415 
Q 2916 -91 2278 -91 
Q 1894 -91 1617 61 
Q 1341 213 1159 525 
L 1159 0 
L 581 0 
L 581 4863 
L 1159 4863 
L 1159 2969 
z
" transform="scale(0.015625)"/>
      <path id="DejaVuSans-63" d="M 3122 3366 
L 3122 2828 
Q 2878 2963 2633 3030 
Q 2388 3097 2138 3097 
Q 1578 3097 1268 2742 
Q 959 2388 959 1747 
Q 959 1106 1268 751 
Q 1578 397 2138 397 
Q 2388 397 2633 464 
Q 2878 531 3122 666 
L 3122 134 
Q 2881 22 2623 -34 
Q 2366 -91 2075 -91 
Q 1284 -91 818 406 
Q 353 903 353 1747 
Q 353 2603 823 3093 
Q 1294 3584 2113 3584 
Q 2378 3584 2631 3529 
Q 2884 3475 3122 3366 
z
" transform="scale(0.015625)"/>
      <path id="DejaVuSans-72" d="M 2631 2963 
Q 2534 3019 2420 3045 
Q 2306 3072 2169 3072 
Q 1681 3072 1420 2755 
Q 1159 2438 1159 1844 
L 1159 0 
L 581 0 
L 581 3500 
L 1159 3500 
L 1159 2956 
Q 1341 3275 1631 3429 
Q 1922 3584 2338 3584 
Q 2397 3584 2469 3576 
Q 2541 3569 2628 3553 
L 2631 2963 
z
" transform="scale(0.015625)"/>
      <path id="DejaVuSans-69" d="M 603 3500 
L 1178 3500 
L 1178 0 
L 603 0 
L 603 3500 
z
M 603 4863 
L 1178 4863 
L 1178 4134 
L 603 4134 
L 603 4863 
z
" transform="scale(0.015625)"/>
      <path id="DejaVuSans-20" transform="scale(0.015625)"/>
      <path id="DejaVuSans-68" d="M 3513 2113 
L 3513 0 
L 2938 0 
L 2938 2094 
Q 2938 2591 2744 2837 
Q 2550 3084 2163 3084 
Q 1697 3084 1428 2787 
Q 1159 2491 1159 1978 
L 1159 0 
L 581 0 
L 581 4863 
L 1159 4863 
L 1159 2956 
Q 1366 3272 1645 3428 
Q 1925 3584 2291 3584 
Q 2894 3584 3203 3211 
Q 3513 2838 3513 2113 
z
" transform="scale(0.015625)"/>
      <path id="DejaVuSans-6f" d="M 1959 3097 
Q 1497 3097 1228 2736 
Q 959 2375 959 1747 
Q 959 1119 1226 758 
Q 1494 397 1959 397 
Q 2419 397 2687 759 
Q 2956 1122 2956 1747 
Q 2956 2369 2687 2733 
Q 2419 3097 1959 3097 
z
M 1959 3584 
Q 2709 3584 3137 3096 
Q 3566 2609 3566 1747 
Q 3566 888 3137 398 
Q 2709 -91 1959 -91 
Q 1206 -91 779 398 
Q 353 888 353 1747 
Q 353 2609 779 3096 
Q 1206 3584 1959 3584 
z
" transform="scale(0.015625)"/>
      <path id="DejaVuSans-79" d="M 2059 -325 
Q 1816 -950 1584 -1140 
Q 1353 -1331 966 -1331 
L 506 -1331 
L 506 -850 
L 844 -850 
Q 1081 -850 1212 -737 
Q 1344 -625 1503 -206 
L 1606 56 
L 191 3500 
L 800 3500 
L 1894 763 
L 2988 3500 
L 3597 3500 
L 2059 -325 
z
" transform="scale(0.015625)"/>
     </defs>
     <use xlink:href="#DejaVuSans-67"/>
     <use xlink:href="#DejaVuSans-65" x="63.476562"/>
     <use xlink:href="#DejaVuSans-74" x="125"/>
     <use xlink:href="#DejaVuSans-5f" x="164.208984"/>
     <use xlink:href="#DejaVuSans-73" x="214.208984"/>
     <use xlink:href="#DejaVuSans-75" x="266.308594"/>
     <use xlink:href="#DejaVuSans-62" x="329.6875"/>
     <use xlink:href="#DejaVuSans-73" x="393.164062"/>
     <use xlink:href="#DejaVuSans-63" x="445.263672"/>
     <use xlink:href="#DejaVuSans-72" x="500.244141"/>
     <use xlink:href="#DejaVuSans-69" x="541.357422"/>
     <use xlink:href="#DejaVuSans-62" x="569.140625"/>
     <use xlink:href="#DejaVuSans-65" x="632.617188"/>
     <use xlink:href="#DejaVuSans-20" x="694.140625"/>
     <use xlink:href="#DejaVuSans-68" x="725.927734"/>
     <use xlink:href="#DejaVuSans-69" x="789.306641"/>
     <use xlink:href="#DejaVuSans-73" x="817.089844"/>
     <use xlink:href="#DejaVuSans-74" x="869.189453"/>
     <use xlink:href="#DejaVuSans-6f" x="908.398438"/>
     <use xlink:href="#DejaVuSans-72" x="969.580078"/>
     <use xlink:href="#DejaVuSans-79" x="1010.693359"/>
    </g>
   </g>
   <g id="legend_1">
    <g id="line2d_41">
     <path d="M 815.08 328.498438 
L 825.08 328.498438 
L 835.08 328.498438 
" style="fill: none; stroke: #1f77b4; stroke-width: 1.5; stroke-linecap: square"/>
    </g>
    <g id="text_21">
     <!-- star -->
     <g style="fill: #a9a9a9" transform="translate(843.08 331.998438) scale(0.1 -0.1)">
      <defs>
       <path id="DejaVuSans-61" d="M 2194 1759 
Q 1497 1759 1228 1600 
Q 959 1441 959 1056 
Q 959 750 1161 570 
Q 1363 391 1709 391 
Q 2188 391 2477 730 
Q 2766 1069 2766 1631 
L 2766 1759 
L 2194 1759 
z
M 3341 1997 
L 3341 0 
L 2766 0 
L 2766 531 
Q 2569 213 2275 61 
Q 1981 -91 1556 -91 
Q 1019 -91 701 211 
Q 384 513 384 1019 
Q 384 1609 779 1909 
Q 1175 2209 1959 2209 
L 2766 2209 
L 2766 2266 
Q 2766 2663 2505 2880 
Q 2244 3097 1772 3097 
Q 1472 3097 1187 3025 
Q 903 2953 641 2809 
L 641 3341 
Q 956 3463 1253 3523 
Q 1550 3584 1831 3584 
Q 2591 3584 2966 3190 
Q 3341 2797 3341 1997 
z
" transform="scale(0.015625)"/>
      </defs>
      <use xlink:href="#DejaVuSans-73"/>
      <use xlink:href="#DejaVuSans-74" x="52.099609"/>
      <use xlink:href="#DejaVuSans-61" x="91.308594"/>
      <use xlink:href="#DejaVuSans-72" x="152.587891"/>
     </g>
    </g>
    <g id="line2d_42">
     <path d="M 815.08 343.176562 
L 825.08 343.176562 
L 835.08 343.176562 
" style="fill: none; stroke: #ff7f0e; stroke-width: 1.5; stroke-linecap: square"/>
    </g>
    <g id="text_22">
     <!-- fork -->
     <g style="fill: #a9a9a9" transform="translate(843.08 346.676562) scale(0.1 -0.1)">
      <defs>
       <path id="DejaVuSans-66" d="M 2375 4863 
L 2375 4384 
L 1825 4384 
Q 1516 4384 1395 4259 
Q 1275 4134 1275 3809 
L 1275 3500 
L 2222 3500 
L 2222 3053 
L 1275 3053 
L 1275 0 
L 697 0 
L 697 3053 
L 147 3053 
L 147 3500 
L 697 3500 
L 697 3744 
Q 697 4328 969 4595 
Q 1241 4863 1831 4863 
L 2375 4863 
z
" transform="scale(0.015625)"/>
       <path id="DejaVuSans-6b" d="M 581 4863 
L 1159 4863 
L 1159 1991 
L 2875 3500 
L 3609 3500 
L 1753 1863 
L 3688 0 
L 2938 0 
L 1159 1709 
L 1159 0 
L 581 0 
L 581 4863 
z
" transform="scale(0.015625)"/>
      </defs>
      <use xlink:href="#DejaVuSans-66"/>
      <use xlink:href="#DejaVuSans-6f" x="35.205078"/>
      <use xlink:href="#DejaVuSans-72" x="96.386719"/>
      <use xlink:href="#DejaVuSans-6b" x="137.5"/>
     </g>
    </g>
   </g>
  </g>
 </g>
 <defs>
  <clipPath id="pff0acab077">
   <rect x="108" y="43.2" width="669.6" height="277.2"/>
  </clipPath>
 </defs>
</svg>
